<svg width="52" height="55" viewBox="0 0 52 55" fill="none" xmlns="http://www.w3.org/2000/svg">
<path d="M0 26C0 11.6406 11.6406 0 26 0C40.3594 0 52 11.6406 52 26V29C52 43.3594 40.3594 55 26 55C11.6406 55 0 43.3594 0 29V26Z" fill="#E8E8E8"/>
<path fill-rule="evenodd" clip-rule="evenodd" d="M30.389 16C30.5984 17.3971 30.0195 18.7657 29.2559 19.734C28.4389 20.7727 27.0307 21.576 25.6663 21.5341C25.4172 20.1966 26.0549 18.8184 26.8309 17.892C27.6821 16.8696 29.1409 16.0852 30.389 16ZM34.4878 35.6635C35.1912 34.6045 35.454 34.0703 36 32.8748C32.0286 31.3912 31.3922 25.8449 35.3226 23.7162C34.1238 22.2394 32.4391 21.3833 30.8489 21.3833C29.7031 21.3833 28.918 21.677 28.2043 21.944C27.6096 22.1666 27.0644 22.3705 26.4012 22.3705C25.6847 22.3705 25.0501 22.147 24.3856 21.913C23.6555 21.6559 22.8893 21.386 21.9385 21.386C20.154 21.386 18.2545 22.4571 17.0502 24.2883C15.3574 26.8673 15.6461 31.7158 18.3913 35.8461C19.3726 37.3243 20.6836 38.985 22.3983 38.9999C23.1099 39.0069 23.5833 38.7983 24.0957 38.5725C24.6821 38.3141 25.3195 38.0333 26.4231 38.0275C27.5333 38.021 28.1606 38.3052 28.7393 38.5674C29.2385 38.7936 29.7014 39.0034 30.4069 38.9959C32.123 38.9823 33.5066 37.1417 34.4878 35.6635Z" fill="#1F1F1F"/>
<path d="M29.2559 19.734L28.8633 19.4244L28.8629 19.4249L29.2559 19.734ZM30.389 16L30.8835 15.9259L30.8151 15.4697L30.3549 15.5012L30.389 16ZM25.6663 21.5341L25.1747 21.6256L25.2484 22.0215L25.6509 22.0339L25.6663 21.5341ZM26.8309 17.892L27.2142 18.2131L27.2151 18.2119L26.8309 17.892ZM36 32.8748L36.4548 33.0825L36.6778 32.5943L36.175 32.4064L36 32.8748ZM34.4878 35.6635L34.0713 35.3868L34.0712 35.387L34.4878 35.6635ZM35.3226 23.7162L35.5607 24.1559L36.0905 23.8689L35.7108 23.4011L35.3226 23.7162ZM28.2043 21.944L28.0291 21.4757H28.0291L28.2043 21.944ZM24.3856 21.913L24.2195 22.3846L24.3856 21.913ZM17.0502 24.2883L16.6324 24.0135L16.6322 24.0139L17.0502 24.2883ZM18.3913 35.8461L18.8079 35.5695L18.8078 35.5693L18.3913 35.8461ZM22.3983 38.9999L22.4032 38.4999L22.4027 38.4999L22.3983 38.9999ZM24.0957 38.5725L23.8941 38.115L24.0957 38.5725ZM26.4231 38.0275L26.4258 38.5275L26.4261 38.5275L26.4231 38.0275ZM28.7393 38.5674L28.9456 38.112H28.9456L28.7393 38.5674ZM30.4069 38.9959L30.4029 38.4959L30.4016 38.4959L30.4069 38.9959ZM29.6485 20.0436C30.4666 19.0063 31.1197 17.5021 30.8835 15.9259L29.8945 16.0741C30.0771 17.292 29.5724 18.5251 28.8633 19.4244L29.6485 20.0436ZM25.6509 22.0339C27.205 22.0816 28.7546 21.18 29.6489 20.0432L28.8629 19.4249C28.1231 20.3654 26.8563 21.0704 25.6816 21.0343L25.6509 22.0339ZM26.4476 17.571C25.6213 18.5575 24.8875 20.0835 25.1747 21.6256L26.1578 21.4426C25.9468 20.3096 26.4886 19.0794 27.2142 18.2131L26.4476 17.571ZM30.3549 15.5012C28.958 15.5965 27.3768 16.4548 26.4466 17.5721L27.2151 18.2119C27.9873 17.2844 29.3238 16.5739 30.4231 16.4988L30.3549 15.5012ZM35.5452 32.6671C35.0049 33.85 34.7546 34.3582 34.0713 35.3868L34.9043 35.9401C35.6278 34.8509 35.903 34.2907 36.4548 33.0825L35.5452 32.6671ZM35.0845 23.2765C30.749 25.6246 31.4814 31.7205 35.825 33.3432L36.175 32.4064C32.5757 31.0618 32.0354 26.0652 35.5607 24.1559L35.0845 23.2765ZM30.8489 21.8833C32.2647 21.8833 33.8144 22.6517 34.9344 24.0313L35.7108 23.4011C34.4331 21.8271 32.6135 20.8833 30.8489 20.8833V21.8833ZM28.3795 22.4123C29.086 22.148 29.7991 21.8833 30.8489 21.8833V20.8833C29.6071 20.8833 28.7501 21.206 28.0291 21.4757L28.3795 22.4123ZM26.4012 22.8705C27.1676 22.8705 27.7937 22.6315 28.3795 22.4123L28.0291 21.4757C27.4254 21.7016 26.9611 21.8705 26.4012 21.8705V22.8705ZM24.2195 22.3846C24.8724 22.6146 25.5859 22.8705 26.4012 22.8705V21.8705C25.7834 21.8705 25.2278 21.6795 24.5518 21.4414L24.2195 22.3846ZM21.9385 21.886C22.7936 21.886 23.4856 22.1261 24.2195 22.3846L24.5518 21.4414C23.8254 21.1856 22.985 20.886 21.9385 20.886V21.886ZM17.468 24.563C18.5948 22.8495 20.348 21.886 21.9385 21.886V20.886C19.96 20.886 17.9141 22.0647 16.6324 24.0135L17.468 24.563ZM18.8078 35.5693C17.4795 33.5709 16.7496 31.404 16.554 29.436C16.3577 27.4594 16.7034 25.7278 17.4682 24.5626L16.6322 24.0139C15.7041 25.4278 15.3478 27.41 15.5589 29.5349C15.7709 31.6685 16.558 33.991 17.9749 36.1228L18.8078 35.5693ZM22.4027 38.4999C21.7147 38.494 21.0713 38.1588 20.4553 37.6011C19.8386 37.0427 19.2935 36.301 18.8079 35.5695L17.9748 36.1226C18.4704 36.8693 19.0714 37.6971 19.7842 38.3424C20.4977 38.9884 21.3673 39.491 22.394 39.4999L22.4027 38.4999ZM23.8941 38.115C23.3856 38.339 22.9983 38.5057 22.4032 38.4999L22.3935 39.4999C23.2214 39.508 23.7811 39.2575 24.2973 39.0301L23.8941 38.115ZM26.4205 37.5275C25.2127 37.5339 24.4993 37.8483 23.8941 38.115L24.2973 39.0301C24.865 38.7799 25.4263 38.5327 26.4258 38.5275L26.4205 37.5275ZM28.9456 38.112C28.3462 37.8404 27.6394 37.5204 26.4202 37.5275L26.4261 38.5275C27.4271 38.5216 27.975 38.7701 28.5329 39.0229L28.9456 38.112ZM30.4016 38.4959C29.8154 38.5021 29.4402 38.3361 28.9456 38.112L28.5329 39.0229C29.0368 39.2512 29.5875 39.5046 30.4122 39.4958L30.4016 38.4959ZM34.0712 35.387C33.5836 36.1215 33.0184 36.9107 32.3792 37.5158C31.7361 38.1246 31.0776 38.4906 30.4029 38.4959L30.4108 39.4958C31.4523 39.4876 32.3437 38.9265 33.0667 38.242C33.7935 37.5539 34.4107 36.6837 34.9044 35.94L34.0712 35.387Z" fill="#1F1F1F"/>
</svg>
