<svg width="382" height="130" viewBox="0 0 382 130" fill="none" xmlns="http://www.w3.org/2000/svg">
<path d="M382 100C382 116.569 368.569 130 352 130L30 130C13.4315 130 0 116.569 0 100V30C0 13.4315 13.4315 0 30 0L352 0C368.569 0 382 13.4315 382 30V100Z" fill="url(#paint0_linear_636_819)"/>
<g style="mix-blend-mode:multiply" clip-path="url(#clip0_636_819)">
<path d="M40.3584 58.7098L30.6468 80.3898L60.9989 93.9861L70.482 72.8161M40.3584 58.7098L38.1904 57.7386L41.1039 51.2346L75.792 66.7731L72.8785 73.2771L40.3584 58.7098ZM58.4479 59.0038C62.0351 55.8385 70.2931 49.9932 72.6868 56.2715C75.0805 62.5498 64.0298 61.0704 58.4479 59.0038ZM58.4479 59.0038C58.4217 54.2199 57.2853 44.1663 51.0069 46.56C44.7286 48.9537 53.1898 56.2146 58.4479 59.0038Z" stroke="url(#paint1_linear_636_819)" stroke-width="2.5" stroke-linecap="round" stroke-linejoin="round"/>
<rect x="40.4363" y="58.5356" width="33.2582" height="23.7559" transform="rotate(24.13 40.4363 58.5356)" fill="#E3CBCB"/>
</g>
<g filter="url(#filter0_f_636_819)">
<circle cx="44" cy="100" r="5" transform="rotate(-180 44 100)" fill="white" fill-opacity="0.7"/>
</g>
<g filter="url(#filter1_f_636_819)">
<circle cx="97" cy="49" r="5" transform="rotate(-180 97 49)" fill="white" fill-opacity="0.7"/>
</g>
<g filter="url(#filter2_f_636_819)">
<circle cx="17" cy="27" r="5" transform="rotate(-180 17 27)" fill="white" fill-opacity="0.7"/>
</g>
<g filter="url(#filter3_f_636_819)">
<circle cx="150" cy="17" r="5" transform="rotate(-180 150 17)" fill="#7A4343" fill-opacity="0.7"/>
</g>
<g filter="url(#filter4_f_636_819)">
<circle cx="150" cy="110" r="5" transform="rotate(-180 150 110)" fill="white" fill-opacity="0.7"/>
</g>
<g filter="url(#filter5_f_636_819)">
<circle cx="222" cy="110" r="5" transform="rotate(-180 222 110)" fill="white" fill-opacity="0.7"/>
</g>
<g filter="url(#filter6_f_636_819)">
<circle cx="274" cy="100" r="5" transform="rotate(-180 274 100)" fill="white" fill-opacity="0.7"/>
</g>
<g filter="url(#filter7_f_636_819)">
<circle cx="274" cy="17" r="5" transform="rotate(-180 274 17)" fill="white" fill-opacity="0.7"/>
</g>
<g filter="url(#filter8_f_636_819)">
<circle cx="352" cy="115" r="5" transform="rotate(-180 352 115)" fill="#7A4343" fill-opacity="0.7"/>
</g>
<g filter="url(#filter9_f_636_819)">
<circle cx="239" cy="49" r="5" transform="rotate(-180 239 49)" fill="#7A4343" fill-opacity="0.7"/>
</g>
<g filter="url(#filter10_f_636_819)">
<circle cx="361" cy="17" r="5" transform="rotate(-180 361 17)" fill="white" fill-opacity="0.7"/>
</g>
<g filter="url(#filter11_f_636_819)">
<circle cx="183" cy="65" r="5" transform="rotate(-180 183 65)" fill="white" fill-opacity="0.7"/>
</g>
<g filter="url(#filter12_f_636_819)">
<circle cx="92" cy="83" r="5" transform="rotate(-180 92 83)" fill="#7A4343" fill-opacity="0.7"/>
</g>
<defs>
<filter id="filter0_f_636_819" x="35" y="91" width="18" height="18" filterUnits="userSpaceOnUse" color-interpolation-filters="sRGB">
<feFlood flood-opacity="0" result="BackgroundImageFix"/>
<feBlend mode="normal" in="SourceGraphic" in2="BackgroundImageFix" result="shape"/>
<feGaussianBlur stdDeviation="2" result="effect1_foregroundBlur_636_819"/>
</filter>
<filter id="filter1_f_636_819" x="88" y="40" width="18" height="18" filterUnits="userSpaceOnUse" color-interpolation-filters="sRGB">
<feFlood flood-opacity="0" result="BackgroundImageFix"/>
<feBlend mode="normal" in="SourceGraphic" in2="BackgroundImageFix" result="shape"/>
<feGaussianBlur stdDeviation="2" result="effect1_foregroundBlur_636_819"/>
</filter>
<filter id="filter2_f_636_819" x="8" y="18" width="18" height="18" filterUnits="userSpaceOnUse" color-interpolation-filters="sRGB">
<feFlood flood-opacity="0" result="BackgroundImageFix"/>
<feBlend mode="normal" in="SourceGraphic" in2="BackgroundImageFix" result="shape"/>
<feGaussianBlur stdDeviation="2" result="effect1_foregroundBlur_636_819"/>
</filter>
<filter id="filter3_f_636_819" x="141" y="8" width="18" height="18" filterUnits="userSpaceOnUse" color-interpolation-filters="sRGB">
<feFlood flood-opacity="0" result="BackgroundImageFix"/>
<feBlend mode="normal" in="SourceGraphic" in2="BackgroundImageFix" result="shape"/>
<feGaussianBlur stdDeviation="2" result="effect1_foregroundBlur_636_819"/>
</filter>
<filter id="filter4_f_636_819" x="141" y="101" width="18" height="18" filterUnits="userSpaceOnUse" color-interpolation-filters="sRGB">
<feFlood flood-opacity="0" result="BackgroundImageFix"/>
<feBlend mode="normal" in="SourceGraphic" in2="BackgroundImageFix" result="shape"/>
<feGaussianBlur stdDeviation="2" result="effect1_foregroundBlur_636_819"/>
</filter>
<filter id="filter5_f_636_819" x="213" y="101" width="18" height="18" filterUnits="userSpaceOnUse" color-interpolation-filters="sRGB">
<feFlood flood-opacity="0" result="BackgroundImageFix"/>
<feBlend mode="normal" in="SourceGraphic" in2="BackgroundImageFix" result="shape"/>
<feGaussianBlur stdDeviation="2" result="effect1_foregroundBlur_636_819"/>
</filter>
<filter id="filter6_f_636_819" x="265" y="91" width="18" height="18" filterUnits="userSpaceOnUse" color-interpolation-filters="sRGB">
<feFlood flood-opacity="0" result="BackgroundImageFix"/>
<feBlend mode="normal" in="SourceGraphic" in2="BackgroundImageFix" result="shape"/>
<feGaussianBlur stdDeviation="2" result="effect1_foregroundBlur_636_819"/>
</filter>
<filter id="filter7_f_636_819" x="265" y="8" width="18" height="18" filterUnits="userSpaceOnUse" color-interpolation-filters="sRGB">
<feFlood flood-opacity="0" result="BackgroundImageFix"/>
<feBlend mode="normal" in="SourceGraphic" in2="BackgroundImageFix" result="shape"/>
<feGaussianBlur stdDeviation="2" result="effect1_foregroundBlur_636_819"/>
</filter>
<filter id="filter8_f_636_819" x="343" y="106" width="18" height="18" filterUnits="userSpaceOnUse" color-interpolation-filters="sRGB">
<feFlood flood-opacity="0" result="BackgroundImageFix"/>
<feBlend mode="normal" in="SourceGraphic" in2="BackgroundImageFix" result="shape"/>
<feGaussianBlur stdDeviation="2" result="effect1_foregroundBlur_636_819"/>
</filter>
<filter id="filter9_f_636_819" x="230" y="40" width="18" height="18" filterUnits="userSpaceOnUse" color-interpolation-filters="sRGB">
<feFlood flood-opacity="0" result="BackgroundImageFix"/>
<feBlend mode="normal" in="SourceGraphic" in2="BackgroundImageFix" result="shape"/>
<feGaussianBlur stdDeviation="2" result="effect1_foregroundBlur_636_819"/>
</filter>
<filter id="filter10_f_636_819" x="352" y="8" width="18" height="18" filterUnits="userSpaceOnUse" color-interpolation-filters="sRGB">
<feFlood flood-opacity="0" result="BackgroundImageFix"/>
<feBlend mode="normal" in="SourceGraphic" in2="BackgroundImageFix" result="shape"/>
<feGaussianBlur stdDeviation="2" result="effect1_foregroundBlur_636_819"/>
</filter>
<filter id="filter11_f_636_819" x="174" y="56" width="18" height="18" filterUnits="userSpaceOnUse" color-interpolation-filters="sRGB">
<feFlood flood-opacity="0" result="BackgroundImageFix"/>
<feBlend mode="normal" in="SourceGraphic" in2="BackgroundImageFix" result="shape"/>
<feGaussianBlur stdDeviation="2" result="effect1_foregroundBlur_636_819"/>
</filter>
<filter id="filter12_f_636_819" x="83" y="74" width="18" height="18" filterUnits="userSpaceOnUse" color-interpolation-filters="sRGB">
<feFlood flood-opacity="0" result="BackgroundImageFix"/>
<feBlend mode="normal" in="SourceGraphic" in2="BackgroundImageFix" result="shape"/>
<feGaussianBlur stdDeviation="2" result="effect1_foregroundBlur_636_819"/>
</filter>
<linearGradient id="paint0_linear_636_819" x1="-171.744" y1="108.181" x2="699.362" y2="177.989" gradientUnits="userSpaceOnUse">
<stop offset="0.282253" stop-color="#D88F8F"/>
<stop offset="0.816198" stop-color="#F4E7E7"/>
<stop offset="0.895105" stop-color="#F9F5F5"/>
</linearGradient>
<linearGradient id="paint1_linear_636_819" x1="49.8496" y1="48.5247" x2="89.4804" y2="87.5996" gradientUnits="userSpaceOnUse">
<stop stop-color="#7A4343"/>
<stop offset="0.42992" stop-color="#D88F8F"/>
<stop offset="0.902909" stop-color="#CBE3E3"/>
</linearGradient>
<clipPath id="clip0_636_819">
<rect width="57.014" height="57.014" fill="white" transform="translate(39.3079 32) rotate(24.13)"/>
</clipPath>
</defs>
</svg>
