<svg width="150" height="29" viewBox="0 0 150 29" fill="none" xmlns="http://www.w3.org/2000/svg">
<path d="M143.97 0.256104H149.261V0.679561C148.571 0.673953 147.893 0.860239 147.303 1.21764C146.697 1.57451 146.202 2.09394 145.875 2.71727L139.315 14.9965V27.6549H142.101V28.0784H132.606V27.6549H135.356V16.1873L126.495 0.688391H124.133V0.264933H133.893V0.688391H131.186L139.121 14.5907L146.483 0.688391H144.006L143.97 0.256104Z" fill="white"/>
<path d="M98.7664 0.256104H122.783V7.81593H122.36V7.69242C122.2 5.73361 121.339 3.89832 119.936 2.52317C118.51 1.25596 116.647 0.594615 114.742 0.679561H112.785V27.6285H116.365V28.0519H105.194V27.6285H108.765V0.679561H106.79C104.893 0.595355 103.038 1.24988 101.614 2.50557C100.213 3.88981 99.3535 5.72944 99.1895 7.69242V7.81593H98.784L98.7664 0.256104Z" fill="white"/>
<path d="M91.1222 0.256104H97.2323V0.679561C96.4582 0.681873 95.7163 0.989934 95.1681 1.53676C94.6199 2.08358 94.3097 2.82491 94.3051 3.5994V19.1601C94.3051 22.1064 93.5027 24.3999 91.8892 26.0142C90.2757 27.6285 88.001 28.4489 85.065 28.4489C81.7587 28.4489 79.29 27.7608 77.6765 26.3759C75.8367 24.8763 74.9139 22.4122 74.908 18.9837V0.679561H71.875V0.256104H81.8116V0.679561H78.9108V18.9837C78.9108 22.03 79.4163 24.2617 80.4273 25.679C81.4501 27.208 83.1223 27.9725 85.4441 27.9725C86.5868 28.0435 87.7317 27.8746 88.8052 27.4766C89.8787 27.0785 90.8571 26.4602 91.6776 25.6614C93.153 24.1265 93.8907 21.9593 93.8907 19.1601V0.635411H91.1222V0.256104Z" fill="white"/>
<path d="M68.542 27.6282H71.4868V28.0516H61.6648V27.6282H64.5127L61.1623 18.6041H51.4197L48.1134 27.6282H50.5909V28.0516H45.53V27.6282C46.16 27.6404 46.7775 27.452 47.2934 27.0901C47.8065 26.7346 48.1975 26.2294 48.4131 25.6434L57.8207 0H58.2616L68.542 27.6282ZM51.5696 18.163H61.0124L56.2601 5.46919L51.5696 18.163Z" fill="white"/>
<path d="M43.5728 19.3542H43.9784V28.0519H22.9414V27.6285H25.7099V0.679561H22.9414V0.256104H42.4972V7.41019H42.0739V7.31311C41.6566 2.88484 39.3731 0.67368 35.2233 0.679561H29.748V13.1616H31.0176C32.9221 13.1616 34.3122 12.6735 35.188 11.6973C36.0828 10.5375 36.55 9.10412 36.5105 7.63949V7.54247H36.9337V19.1777H36.5105V19.0807C36.5474 17.6219 36.0803 16.1949 35.188 15.0405C34.3122 14.082 32.9221 13.6027 31.0176 13.6027H29.748V27.6285H36.8015C37.7115 27.6645 38.6175 27.4889 39.4482 27.1154C40.2789 26.7419 41.0117 26.1808 41.589 25.4761C42.8866 23.7411 43.5942 21.6357 43.6081 19.4688L43.5728 19.3542Z" fill="white"/>
<path d="M18.7358 14.9965C19.5868 15.5966 20.2744 16.3999 20.7363 17.3335C21.1982 18.267 21.4198 19.3012 21.3809 20.3421C21.4176 21.451 21.1744 22.5513 20.6735 23.5411C20.1726 24.531 19.4304 25.3786 18.5154 26.0054C16.6021 27.3727 13.9659 28.0607 10.5802 28.0607H0V27.6373H2.9801V0.679561H0V0.256104H9.36349C12.8314 0.256104 15.3883 0.803063 17.0341 1.8969C17.8581 2.45282 18.5216 3.21566 18.9579 4.109C19.3943 5.00233 19.5883 5.99473 19.5205 6.98673C19.5205 10.3329 17.3339 12.3589 12.9608 13.0646C15.0196 13.2018 17.0085 13.8671 18.7358 14.9965ZM15.5529 6.98673C15.5529 4.8461 15.1826 3.33766 14.442 2.46142C13.5133 1.28525 11.8381 0.697167 9.41639 0.697167H7.05348V12.9676H9.61036C10.6396 13.0072 11.6652 12.8237 12.6169 12.4295C13.333 12.1179 13.9558 11.6254 14.4244 11.0004C14.851 10.4225 15.1514 9.76133 15.306 9.05976C15.465 8.38007 15.5478 7.68475 15.5529 6.98673ZM7.05348 13.3557V27.6285H10.4391C11.6177 27.6747 12.7927 27.4702 13.8865 27.0287C14.6861 26.6871 15.3714 26.1239 15.8615 25.4055C16.3176 24.6976 16.6181 23.9008 16.7432 23.0679C16.8942 22.1643 16.9679 21.2494 16.9636 20.3333C17.069 18.6115 16.6109 16.9022 15.6587 15.464C14.5742 14.0526 12.8285 13.3557 10.4303 13.3557H7.05348Z" fill="white"/>
</svg>
