<svg width="484" height="484" viewBox="0 0 484 484" fill="none" xmlns="http://www.w3.org/2000/svg">
<g filter="url(#filter0_f_94_1989)">
<circle cx="242" cy="242" r="91.7269" fill="#E3CBCB" fill-opacity="0.2"/>
</g>
<circle cx="242" cy="242" r="99" fill="#E3CBCB" stroke="white" stroke-width="12"/>
<mask id="mask0_94_1989" style="mask-type:alpha" maskUnits="userSpaceOnUse" x="143" y="142" width="198" height="199">
<circle cx="242.033" cy="241.715" r="98.7543" fill="white"/>
</mask>
<g mask="url(#mask0_94_1989)">
<circle cx="242" cy="242" r="31" fill="url(#paint0_linear_94_1989)"/>
<path d="M232.264 249.777L233.264 249.777L232.264 249.777C232.264 250.297 232.471 250.795 232.838 251.162C233.206 251.53 233.704 251.736 234.223 251.736L234.223 250.736L234.223 251.736C234.743 251.736 235.241 251.53 235.608 251.162L241.681 245.09L247.753 251.162C248.12 251.53 248.619 251.736 249.138 251.736L249.138 250.736L249.138 251.736C249.658 251.736 250.156 251.53 250.523 251.162C250.89 250.795 251.097 250.297 251.097 249.777L250.097 249.777L251.097 249.777C251.097 249.258 250.89 248.76 250.523 248.392L244.451 242.32L250.523 236.247C250.89 235.88 251.097 235.382 251.097 234.862C251.097 234.343 250.89 233.845 250.523 233.477C250.156 233.11 249.658 232.904 249.138 232.904C248.619 232.904 248.12 233.11 247.753 233.477L241.681 239.55L235.608 233.477C235.241 233.11 234.743 232.904 234.223 232.904C233.704 232.904 233.206 233.11 232.838 233.477C232.471 233.845 232.264 234.343 232.264 234.862C232.264 235.382 232.471 235.88 232.838 236.247L238.911 242.32L232.838 248.392C232.471 248.76 232.264 249.258 232.264 249.777Z" fill="white" stroke="white" stroke-width="2"/>
</g>
<defs>
<filter id="filter0_f_94_1989" x="0.273193" y="0.273193" width="483.454" height="483.454" filterUnits="userSpaceOnUse" color-interpolation-filters="sRGB">
<feFlood flood-opacity="0" result="BackgroundImageFix"/>
<feBlend mode="normal" in="SourceGraphic" in2="BackgroundImageFix" result="shape"/>
<feGaussianBlur stdDeviation="75" result="effect1_foregroundBlur_94_1989"/>
</filter>
<linearGradient id="paint0_linear_94_1989" x1="222.212" y1="216.569" x2="305.838" y2="249.885" gradientUnits="userSpaceOnUse">
<stop stop-color="#7A4343"/>
<stop offset="0.42992" stop-color="#D88F8F"/>
<stop offset="0.902909" stop-color="#CBE3E3"/>
</linearGradient>
</defs>
</svg>
