<svg width="382" height="231" viewBox="0 0 382 231" fill="none" xmlns="http://www.w3.org/2000/svg">
<g clip-path="url(#clip0_130_738)">
<path d="M64.1018 219.887C63.7957 219.901 63.4927 219.82 63.2338 219.655C62.9749 219.49 62.7727 219.248 62.6545 218.963C62.5363 218.679 62.5079 218.364 62.573 218.062C62.6382 217.761 62.7938 217.487 63.0188 217.277L63.1212 216.867C63.1077 216.834 63.0941 216.801 63.0805 216.768C62.7721 216.035 62.2555 215.409 61.5953 214.97C60.9352 214.531 60.1611 214.299 59.3702 214.302C58.5793 214.305 57.8069 214.543 57.1501 214.987C56.4932 215.431 55.9812 216.06 55.6782 216.796C54.4676 219.734 52.9262 222.677 52.5466 225.783C52.3795 227.156 52.45 228.548 52.755 229.897C49.9115 223.647 48.4349 216.855 48.4254 209.98C48.4248 208.255 48.52 206.531 48.7104 204.816C48.8677 203.411 49.0861 202.015 49.3654 200.63C50.8894 193.112 54.1617 186.066 58.9134 180.07C61.2132 178.806 63.0731 176.862 64.2425 174.5C64.6661 173.651 64.9655 172.744 65.1314 171.809C64.872 171.843 64.1532 167.862 64.3489 167.618C63.9873 167.065 63.3402 166.79 62.9454 166.251C60.9815 163.568 58.2759 164.037 56.8635 167.682C53.8461 169.216 53.8169 171.761 55.6684 174.208C56.8462 175.765 57.0081 177.872 58.0416 179.539C57.9352 179.676 57.8246 179.809 57.7183 179.946C55.7747 182.464 54.0806 185.168 52.6605 188.019C53.0059 184.825 52.5937 181.594 51.4578 178.592C50.3067 175.794 48.149 173.437 46.249 171.019C43.9667 168.113 39.2866 169.381 38.8845 173.064C38.8806 173.1 38.8768 173.136 38.8731 173.171C39.1553 173.332 39.4316 173.502 39.7019 173.682C40.0415 173.911 40.3046 174.237 40.4568 174.619C40.609 175.001 40.6432 175.42 40.5548 175.822C40.4665 176.224 40.2598 176.589 39.9618 176.87C39.6637 177.152 39.2883 177.336 38.8847 177.398L38.8433 177.405C38.9439 178.43 39.1216 179.445 39.375 180.443C36.9374 189.941 42.1999 193.4 49.7141 193.555C49.88 193.641 50.0416 193.727 50.2075 193.808C48.7807 197.882 47.8857 202.125 47.5451 206.432C47.3523 208.972 47.3636 211.525 47.5791 214.063L47.5664 213.973C47.0219 211.15 45.5272 208.603 43.3346 206.762C40.078 204.066 35.477 203.074 31.9637 200.907C31.5903 200.666 31.1562 200.537 30.7125 200.536C30.2688 200.535 29.834 200.662 29.4595 200.901C29.0849 201.141 28.7862 201.484 28.5986 201.889C28.411 202.294 28.3422 202.744 28.4005 203.188C28.4052 203.219 28.41 203.251 28.4149 203.282C28.9386 203.497 29.4486 203.745 29.9417 204.024C30.2239 204.184 30.5002 204.354 30.7705 204.534C31.1101 204.763 31.3732 205.09 31.5254 205.471C31.6776 205.853 31.7118 206.272 31.6234 206.674C31.5351 207.076 31.3284 207.441 31.0304 207.723C30.7323 208.004 30.3569 208.188 29.9533 208.251L29.9119 208.257C29.8822 208.261 29.8566 208.266 29.8269 208.27C30.7218 210.423 31.9777 212.404 33.5398 214.128C35.0639 222.419 41.6102 223.205 48.6126 220.791H48.6168C49.3851 224.155 50.4983 227.429 51.9385 230.561H63.8045C63.847 230.428 63.8853 230.291 63.9236 230.158C62.8252 230.228 61.7226 230.161 60.6402 229.961C61.5206 228.873 62.401 227.776 63.2814 226.687C63.301 226.667 63.3195 226.645 63.3367 226.623C63.7832 226.066 64.234 225.513 64.6806 224.956L64.6808 224.955C64.7047 223.248 64.5097 221.544 64.1018 219.887Z" fill="#E8E8E8"/>
<path d="M311.942 219.887C312.248 219.901 312.551 219.82 312.81 219.655C313.069 219.49 313.271 219.248 313.389 218.963C313.508 218.679 313.536 218.364 313.471 218.062C313.406 217.761 313.25 217.487 313.025 217.277L312.923 216.867C312.936 216.834 312.95 216.801 312.964 216.768C313.272 216.035 313.789 215.409 314.449 214.97C315.109 214.531 315.883 214.299 316.674 214.302C317.465 214.305 318.237 214.543 318.894 214.987C319.551 215.431 320.063 216.06 320.366 216.796C321.576 219.734 323.118 222.677 323.497 225.783C323.665 227.156 323.594 228.548 323.289 229.897C326.133 223.647 327.609 216.855 327.619 209.98C327.619 208.255 327.524 206.531 327.334 204.816C327.176 203.411 326.958 202.015 326.679 200.63C325.155 193.112 321.882 186.066 317.131 180.07C314.831 178.806 312.971 176.862 311.801 174.5C311.378 173.651 311.078 172.744 310.913 171.809C311.172 171.843 311.891 167.862 311.695 167.618C312.057 167.065 312.704 166.79 313.099 166.251C315.062 163.568 317.768 164.037 319.181 167.682C322.198 169.216 322.227 171.761 320.376 174.208C319.198 175.765 319.036 177.872 318.002 179.539C318.109 179.676 318.219 179.809 318.326 179.946C320.269 182.464 321.963 185.168 323.383 188.019C323.038 184.825 323.45 181.594 324.586 178.592C325.737 175.794 327.895 173.437 329.795 171.019C332.077 168.113 336.757 169.381 337.159 173.064C337.163 173.1 337.167 173.136 337.171 173.171C336.889 173.332 336.612 173.502 336.342 173.682C336.003 173.911 335.739 174.237 335.587 174.619C335.435 175.001 335.401 175.42 335.489 175.822C335.578 176.224 335.784 176.589 336.082 176.87C336.38 177.152 336.756 177.336 337.159 177.398L337.201 177.405C337.1 178.43 336.922 179.445 336.669 180.443C339.107 189.941 333.844 193.4 326.33 193.555C326.164 193.641 326.002 193.727 325.836 193.808C327.263 197.882 328.158 202.125 328.499 206.432C328.692 208.972 328.68 211.525 328.465 214.063L328.478 213.973C329.022 211.15 330.517 208.603 332.709 206.762C335.966 204.066 340.567 203.074 344.08 200.907C344.454 200.666 344.888 200.537 345.332 200.536C345.775 200.535 346.21 200.662 346.585 200.901C346.959 201.141 347.258 201.484 347.445 201.889C347.633 202.294 347.702 202.744 347.643 203.188C347.639 203.219 347.634 203.251 347.629 203.282C347.105 203.497 346.595 203.745 346.102 204.024C345.82 204.184 345.544 204.354 345.273 204.534C344.934 204.763 344.671 205.09 344.519 205.471C344.366 205.853 344.332 206.272 344.421 206.674C344.509 207.076 344.716 207.441 345.014 207.723C345.312 208.004 345.687 208.188 346.091 208.251L346.132 208.257C346.162 208.261 346.187 208.266 346.217 208.27C345.322 210.423 344.066 212.404 342.504 214.128C340.98 222.419 334.434 223.205 327.431 220.791H327.427C326.659 224.155 325.546 227.429 324.106 230.561H312.24C312.197 230.428 312.159 230.291 312.12 230.158C313.219 230.228 314.321 230.161 315.404 229.961C314.523 228.873 313.643 227.776 312.763 226.687C312.743 226.667 312.725 226.645 312.707 226.623C312.261 226.066 311.81 225.513 311.363 224.956L311.363 224.955C311.339 223.248 311.534 221.544 311.942 219.887Z" fill="#E8E8E8"/>
<path d="M77.75 230.293H96.8979C100.173 219.183 96.9154 192.927 101.232 182.196C109.514 161.619 120.093 139.908 139.84 129.861C148.272 125.571 157.465 123.896 166.853 123.987C179.823 124.111 193.156 127.618 205.364 132.267C210.358 134.164 215.306 136.251 220.234 138.383C238.803 146.422 257.17 155.178 277.138 157.544C302.406 160.537 332.114 149.147 339.015 124.613C344.283 105.829 334.797 86.3286 324.848 69.5531C314.9 52.7777 303.78 34.8286 305.596 15.4062C305.603 15.341 305.609 15.2692 305.622 15.204C306.306 8.22785 310.44 3.21426 316.215 0H291.071C290.739 18.1185 301.143 34.1115 310.505 49.9024C320.453 66.6714 329.94 86.1786 324.672 104.962C317.771 129.49 260.625 100.738 235.357 97.7392C228.221 96.8982 239.556 99.8908 232.753 97.7392C222.082 94.3685 220.898 125.284 210.514 120.747C204.049 117.917 197.577 115.107 191.021 112.61C188.306 111.573 185.532 110.602 182.726 109.702C182.72 109.702 182.72 109.702 182.713 109.696C163.871 103.684 143.265 101.344 125.855 110.035C125.738 110.093 125.615 110.152 125.497 110.211C105.75 120.251 95.1706 141.962 86.889 162.539C80.0462 179.549 81.1225 212.351 77.75 230.293Z" fill="#E8E8E8"/>
<path d="M184.281 229.724C232.852 229.724 272.226 190.054 272.226 141.118C272.226 92.1817 232.852 52.5112 184.281 52.5112C135.711 52.5112 96.3364 92.1817 96.3364 141.118C96.3364 190.054 135.711 229.724 184.281 229.724Z" fill="white"/>
<path d="M184.03 230.293C97.0178 232.307 95.1099 190.657 95.1099 141.117C95.1099 91.5787 135.112 51.2754 184.281 51.2754C233.451 51.2754 273.453 91.5787 273.453 141.117C273.453 190.657 233.2 230.293 184.03 230.293ZM184.281 53.7475C136.465 53.7475 98.3687 92.9483 97.5635 141.117C96.8145 185.921 144.055 241.829 184.281 228.488C205.854 204.551 266.844 178.77 270.999 141.117C276.283 93.2365 232.098 53.7475 184.281 53.7475Z" fill="#1F1F1F"/>
<path d="M172.284 187.233C170.765 187.233 169.267 186.877 167.909 186.193C166.551 185.508 165.369 184.514 164.459 183.29L140.466 151.059C139.694 150.023 139.133 148.845 138.814 147.591C138.494 146.337 138.423 145.031 138.605 143.75C138.786 142.468 139.217 141.235 139.871 140.121C140.526 139.007 141.392 138.033 142.42 137.257C143.448 136.48 144.618 135.915 145.863 135.594C147.108 135.272 148.403 135.202 149.675 135.385C150.947 135.568 152.171 136.003 153.277 136.663C154.382 137.323 155.348 138.196 156.118 139.232L171.815 160.317L212.13 99.3898C213.57 97.2162 215.808 95.7077 218.351 95.1958C220.895 94.684 223.536 95.2108 225.694 96.6603C227.852 98.1098 229.35 100.364 229.86 102.926C230.369 105.488 229.847 108.149 228.41 110.324L180.424 182.844C179.556 184.156 178.389 185.238 177.02 186.002C175.651 186.765 174.12 187.186 172.556 187.23C172.465 187.232 172.375 187.233 172.284 187.233Z" fill="#E8E8E8"/>
<path d="M2.80365e-06 230.362C-0.000245278 230.446 0.0159727 230.529 0.0477191 230.606C0.0794654 230.684 0.126117 230.754 0.184988 230.814C0.243859 230.873 0.313783 230.92 0.390748 230.952C0.467714 230.984 0.550202 231 0.633456 231H381.367C381.535 231 381.696 230.933 381.815 230.813C381.933 230.693 382 230.531 382 230.362C382 230.193 381.933 230.03 381.815 229.911C381.696 229.791 381.535 229.724 381.367 229.724H0.633456C0.550203 229.723 0.46772 229.74 0.390756 229.772C0.313792 229.804 0.243866 229.851 0.184996 229.91C0.126125 229.969 0.0794745 230.04 0.0477272 230.117C0.0159799 230.195 -0.000242452 230.278 2.80365e-06 230.362Z" fill="#BBBBBB"/>
<path d="M240.441 224.106H235.291L232.842 204.093L240.442 204.094L240.441 224.106Z" fill="#E3CBCB"/>
<path d="M240.622 229.518L224.787 229.518V229.316C224.787 227.669 225.436 226.089 226.592 224.925C227.748 223.76 229.316 223.106 230.95 223.106L233.843 220.895L239.24 223.106L240.622 223.106L240.622 229.518Z" fill="#1F1F1F"/>
<path d="M218.053 199.304L213.296 201.291L203.424 183.751L210.445 180.818L218.053 199.304Z" fill="#E3CBCB"/>
<path d="M220.279 204.233L205.651 210.345L205.574 210.158C204.948 208.637 204.947 206.927 205.572 205.405C206.197 203.884 207.396 202.674 208.906 202.043L210.738 198.884L216.564 198.844L217.841 198.311L220.279 204.233Z" fill="#1F1F1F"/>
<path d="M246.329 110.265L209.784 114.112L204.895 130.7L187.966 158.112C187.966 158.112 199.779 178.144 198.67 177.926C197.561 177.708 199.778 183.168 201.331 182.851C202.883 182.534 204.498 186.095 203.425 186.728C202.351 187.361 206.658 192.713 206.658 192.713L213.241 186.76C214.641 176.119 212.95 166.648 206.922 158.819L225.783 138.305L229.359 136.81L232.198 212.933L242.698 213.107C245.595 198.091 247.051 184.575 244.786 174.934C244.786 174.934 245.111 145.97 246.353 146.287C247.595 146.603 246.542 142.83 246.542 142.83C246.542 142.83 245.455 139.617 246.791 138.283C248.127 136.95 247.293 129.109 247.293 129.109C249.501 121.689 248.836 115.562 246.329 110.265Z" fill="#1F1F1F"/>
<path d="M218.229 49.0475L228.332 46.4098L233.048 39.8564L244.248 41.2436L246.632 50.1825L254.606 54.8455C254.606 54.8455 250.199 101.809 251.247 104.387C252.295 106.966 256.054 106.753 252.844 110.077C249.634 113.401 249.209 112.063 249.954 115.682C250.698 119.301 256.128 123.131 249.954 123.093C243.779 123.055 206.519 122.518 207.584 118.228C208.648 113.938 208.632 115.027 210.237 112.337C211.842 109.647 212.922 111.151 212.382 107.181C211.842 103.212 212.374 100.531 212.374 98.3855C212.374 96.2404 214.158 76.7473 214.158 76.7473L218.229 49.0475Z" fill="#D2D2D2"/>
<path d="M238.62 38.6451C245.175 38.6451 250.489 33.2914 250.489 26.6873C250.489 20.0832 245.175 14.7295 238.62 14.7295C232.066 14.7295 226.752 20.0832 226.752 26.6873C226.752 33.2914 232.066 38.6451 238.62 38.6451Z" fill="#E3CBCB"/>
<path d="M226.184 19.4506C227.226 20.2991 226.988 24.4256 228.149 23.753C229.31 23.0804 229.552 21.8759 230.889 21.8633C231.979 21.9239 233.007 22.3928 233.772 23.1778C233.914 23.3074 234.05 23.4433 234.181 23.5776C234.301 23.5351 234.42 23.4966 234.545 23.465C235.483 23.2344 236.473 23.3748 237.311 23.8574C236.537 23.9131 235.8 24.2125 235.204 24.7133C235.46 25.0015 235.719 25.2913 235.991 25.5591C238.264 27.8034 242.925 25.4134 246.058 24.8741C243.448 27.7453 243.963 29.3482 244.612 33.186L244.615 33.3956C244.748 32.5106 247.561 32.5547 247.098 33.729C246.515 34.8892 245.786 35.9686 244.929 36.9406C248.763 34.265 251.857 30.5769 252.541 26.1217C252.682 25.185 252.956 24.2293 252.691 23.316C252.578 22.8542 252.317 22.443 251.948 22.1465C251.579 21.8501 251.123 21.6852 250.651 21.6776C251.078 20.311 251.129 18.8533 250.8 17.4596C250.47 16.0658 249.772 14.7881 248.779 13.7622C247.787 12.7364 246.537 12.0007 245.162 11.6335C243.788 11.2663 242.34 11.2812 240.973 11.6767C239.726 12.1231 238.51 12.6519 237.333 13.2598C236.144 13.8699 234.799 14.0995 233.477 13.9177C232.654 13.7464 231.82 13.3168 231.013 13.56C230.077 13.8426 229.675 14.8377 229.301 15.7983C230.004 16.0572 230.615 16.5216 231.056 17.1321C230.328 16.8617 229.535 16.8292 228.788 17.0393C228.774 17.0417 228.761 17.0454 228.748 17.0503C227.901 18.579 227.852 18.9539 226.184 19.4506Z" fill="#1F1F1F"/>
<path d="M230.098 43.2066C224.019 42.7135 218.468 47.3976 215.938 52.9881C213.407 58.5787 213.241 64.9208 213.118 71.0641L212.736 90.1604C212.68 92.9862 212.623 95.8125 212.484 98.6354C212.412 101.382 212.069 104.115 211.46 106.793C210.221 111.708 207.494 116.088 204.808 120.377C211.686 122.471 218.681 124.154 225.756 125.417C229.29 113.902 232.864 102.057 231.995 90.0362C231.535 83.6752 229.837 77.4649 229.192 71.1204C228.278 62.1348 229.489 53.083 230.699 44.1329" fill="#1F1F1F"/>
<path d="M244.854 44.2808C250.875 45.2562 255.163 51.1343 256.304 57.1704C257.444 63.2066 256.111 69.4069 254.782 75.4039C253.405 81.6177 252.029 87.8315 250.652 94.0453C250.041 96.8037 249.43 99.5627 248.9 102.338C248.386 105.035 250.54 108.493 250.565 111.238C250.611 116.309 249.633 120.486 251.232 125.294C244.057 125.683 236.865 125.645 229.695 125.178C228.976 113.148 228.297 100.786 231.974 89.3168C233.919 83.2478 237.033 77.6214 239.155 71.6128C242.161 63.103 243.117 54.0202 244.052 45.0368" fill="#1F1F1F"/>
<path d="M248.868 130.972C248.421 130.186 248.295 129.256 248.518 128.379C248.741 127.503 249.295 126.748 250.062 126.276C250.219 126.183 250.384 126.102 250.554 126.036L249.787 99.6965L258.104 97.5635L254.932 128.251C255.149 128.984 255.119 129.769 254.847 130.484C254.574 131.198 254.075 131.802 253.426 132.2C253.055 132.423 252.644 132.57 252.216 132.633C251.788 132.696 251.352 132.674 250.933 132.567C250.514 132.46 250.12 132.271 249.773 132.011C249.427 131.751 249.134 131.424 248.913 131.05C248.898 131.024 248.882 130.998 248.868 130.972Z" fill="#E3CBCB"/>
<path d="M248.261 54.8034C248.261 54.8034 254.067 49.8567 258.952 59.7476C263.838 69.6385 261.107 92.2344 260.42 93.4403C259.732 94.6463 259.312 92.9663 259.689 96.1809C259.995 98.7952 258.174 98.4683 258.827 99.0261C260.55 100.497 255.726 100.665 258.204 101.961C260.681 103.257 249.592 103.5 249.592 103.5C249.592 103.5 248.251 102.535 249.183 98.8956C249.706 96.8516 251.016 96.1039 249.618 95.158C248.221 94.2122 251.062 91.2881 251.064 90.6465C251.066 90.0049 246.635 75.972 246.635 75.972L248.261 54.8034Z" fill="#1F1F1F"/>
<path d="M200.217 176.651C198.699 176.651 197.201 176.295 195.843 175.61C194.484 174.926 193.303 173.932 192.392 172.708L168.399 140.476C167.628 139.441 167.067 138.263 166.747 137.008C166.428 135.754 166.357 134.449 166.538 133.167C166.72 131.886 167.15 130.653 167.805 129.539C168.46 128.424 169.326 127.451 170.354 126.674C171.382 125.898 172.552 125.332 173.796 125.011C175.041 124.69 176.337 124.619 177.609 124.803C178.881 124.986 180.105 125.42 181.21 126.08C182.316 126.74 183.281 127.614 184.052 128.65L199.749 149.735L240.064 88.8075C240.776 87.7306 241.693 86.8055 242.76 86.0853C243.827 85.3651 245.025 84.8637 246.285 84.6099C247.545 84.356 248.842 84.3546 250.102 84.6058C251.362 84.857 252.561 85.3559 253.63 86.0738C254.699 86.7918 255.617 87.7149 256.332 88.7904C257.047 89.8658 257.544 91.0727 257.796 92.3419C258.048 93.6111 258.05 94.9179 257.8 96.1877C257.551 97.4574 257.056 98.6653 256.343 99.7423L208.358 172.262C207.49 173.573 206.323 174.656 204.953 175.419C203.584 176.182 202.054 176.604 200.49 176.648C200.399 176.65 200.308 176.651 200.217 176.651Z" fill="#7A4343"/>
<path d="M218.506 126.396C218.996 125.637 219.172 124.716 218.998 123.828C218.823 122.94 218.312 122.155 217.572 121.641C217.42 121.539 217.26 121.45 217.093 121.375L219.305 95.1178L211.117 92.5249L212.6 123.342C212.343 124.062 212.33 124.848 212.563 125.576C212.796 126.305 213.262 126.935 213.887 127.369C214.246 127.612 214.648 127.782 215.072 127.869C215.496 127.956 215.932 127.957 216.356 127.874C216.781 127.791 217.185 127.624 217.545 127.384C217.905 127.143 218.215 126.834 218.457 126.472C218.474 126.447 218.49 126.422 218.506 126.396Z" fill="#E3CBCB"/>
<path d="M223.298 50.4324C223.298 50.4324 217.772 45.17 212.352 54.7737C206.931 64.3775 208.418 87.0908 209.038 88.3333C209.659 89.5757 210.17 87.9217 209.618 91.1103C209.168 93.7037 211.005 93.4786 210.322 93.9992C208.521 95.3722 213.329 95.808 210.784 96.9643C208.239 98.1206 219.298 98.9805 219.298 98.9805C219.298 98.9805 220.69 98.0915 219.959 94.406C219.549 92.336 218.282 91.5164 219.729 90.6498C221.176 89.7832 218.5 86.7054 218.533 86.0647C218.567 85.4239 223.761 71.6592 223.761 71.6592L223.298 50.4324Z" fill="#1F1F1F"/>
</g>
<defs>
<clipPath id="clip0_130_738">
<rect width="382" height="231" fill="white"/>
</clipPath>
</defs>
</svg>
