<svg width="24" height="24" viewBox="0 0 24 24" fill="none" xmlns="http://www.w3.org/2000/svg">
<path d="M14.6589 20.0099L13.1389 21.5299C12.5189 22.1499 11.4989 22.1499 10.8789 21.5299L9.35893 20.0099C9.09893 19.7499 8.58893 19.5399 8.22893 19.5399H6.07893C5.19893 19.5399 4.47893 18.8199 4.47893 17.9399V15.7899C4.47893 15.4299 4.26893 14.9199 4.00893 14.6599L2.48893 13.1399C1.86893 12.5199 1.86893 11.4999 2.48893 10.8799L4.00893 9.35991C4.26893 9.09991 4.47893 8.58991 4.47893 8.22991V6.07991C4.47893 5.19991 5.19893 4.47991 6.07893 4.47991M9.33993 3.98891L10.8599 2.46891C11.4799 1.84891 12.4999 1.84891 13.1199 2.46891L14.6399 3.98891C14.8999 4.24891 15.4099 4.45891 15.7699 4.45891H17.9199C18.7999 4.45891 19.5199 5.17891 19.5199 6.05891V8.20891C19.5199 8.56891 19.7299 9.07891 19.9899 9.33891L21.5099 10.8589C22.1299 11.4789 22.1299 12.4989 21.5099 13.1189L19.9899 14.6389C19.7299 14.8989 19.5199 15.4089 19.5199 15.7689V17.9189C19.5199 18.7989 18.7999 19.5189 17.9199 19.5189M8.99993 14.9999L14.9999 8.99991" stroke="#606060" stroke-width="1.5" stroke-linecap="round" stroke-linejoin="round"/>
<path d="M14.4951 14.5H14.5041M9.49512 9.5H9.50312" stroke="#606060" stroke-width="2" stroke-linecap="round" stroke-linejoin="round"/>
</svg>
