<svg width="18" height="14" viewBox="0 0 18 14" fill="none" xmlns="http://www.w3.org/2000/svg">
<path d="M1.74408 1.41073C1.89488 1.25993 2.10321 1.16666 2.33333 1.16666H15.6667C15.8968 1.16666 16.1051 1.25993 16.2559 1.41073M1.74408 1.41073C1.59327 1.56154 1.5 1.76987 1.5 1.99999V12C1.5 12.4602 1.8731 12.8333 2.33333 12.8333H10.6667M1.74408 1.41073L3.16667 2.83337M16.2559 1.41073C16.4067 1.56154 16.5 1.76987 16.5 1.99999V12C16.5 12.4602 16.1269 12.8333 15.6667 12.8333H14M16.2559 1.41073L10.1785 7.48811C9.5276 8.13898 8.47232 8.13898 7.82145 7.48811L5.66667 5.33332" stroke="#8E8E8E" stroke-width="1.5" stroke-linecap="round" stroke-linejoin="round"/>
</svg>
