<svg width="430" height="554" viewBox="0 0 430 554" fill="none" xmlns="http://www.w3.org/2000/svg">
<g filter="url(#filter0_f_79_402)">
<circle cx="215" cy="277" r="126.67" fill="#C69797" fill-opacity="0.19"/>
</g>
<circle cx="215" cy="277" r="139" fill="#E3CBCB" stroke="white" stroke-width="12"/>
<mask id="mask0_79_402" style="mask-type:alpha" maskUnits="userSpaceOnUse" x="78" y="140" width="274" height="274">
<circle cx="215" cy="277" r="136.49" fill="white"/>
</mask>
<g mask="url(#mask0_79_402)">
<path d="M257.542 325.567C254.473 324.745 252.666 321.615 253.488 318.546L262.384 285.344C268.855 261.194 254.464 236.267 230.314 229.796C206.163 223.325 181.237 237.716 174.765 261.867L165.875 295.046C165.053 298.115 161.923 299.922 158.854 299.1C155.785 298.278 153.978 295.148 154.8 292.079L163.691 258.899C167.606 244.289 177.009 232.055 190.2 224.458C203.368 216.856 218.693 214.813 233.281 218.722C247.869 222.63 260.126 232.04 267.722 245.23C275.325 258.398 277.368 273.723 273.459 288.312L264.569 321.491C263.746 324.56 260.588 326.383 257.542 325.567Z" fill="white"/>
<path d="M142.233 227.79L166.05 234.172L158.125 263.749L134.308 257.367L142.233 227.79ZM284.135 265.812L307.952 272.194L300.027 301.771L276.21 295.389L284.135 265.812Z" fill="#C69797"/>
<path d="M259.809 439.415L100.716 396.786C93.9114 394.962 89.8193 387.907 91.6486 381.08L125.447 254.945L309.29 304.205L275.493 430.341C273.663 437.168 266.614 441.238 259.809 439.415Z" fill="url(#paint0_linear_79_402)"/>
<path d="M309.291 304.206C298.276 297.989 290.403 290.636 292.289 283.418C293.476 278.898 299.328 274.674 307.937 272.166L224.398 249.83L142.217 227.762C148.291 234.18 151.396 240.828 150.164 245.336C148.195 252.507 137.878 254.986 125.447 254.945L309.291 304.206Z" fill="#603535"/>
<path d="M150.218 313.185C149.72 315.045 149.592 316.985 149.844 318.895C150.095 320.804 150.72 322.645 151.683 324.313C152.646 325.981 153.928 327.443 155.456 328.615C156.984 329.788 158.728 330.648 160.588 331.146C162.448 331.645 164.389 331.772 166.298 331.521C168.207 331.269 170.049 330.644 171.717 329.681C173.384 328.718 174.846 327.436 176.019 325.908C177.191 324.38 178.051 322.637 178.55 320.776C179.048 318.916 179.175 316.976 178.924 315.066C178.672 313.157 178.047 311.316 177.084 309.648C176.121 307.98 174.839 306.518 173.312 305.346C171.784 304.173 170.04 303.313 168.179 302.815C166.319 302.316 164.379 302.189 162.47 302.441C160.56 302.692 158.719 303.317 157.051 304.28C155.383 305.243 153.921 306.525 152.749 308.053C151.576 309.581 150.716 311.325 150.218 313.185Z" fill="#7A4343"/>
<path d="M248.127 339.443C247.12 343.2 247.647 347.203 249.592 350.572C251.537 353.94 254.74 356.398 258.497 357.405C262.254 358.411 266.257 357.884 269.625 355.94C272.994 353.995 275.452 350.792 276.458 347.035C277.465 343.278 276.938 339.275 274.993 335.906C273.048 332.538 269.845 330.08 266.088 329.073C262.331 328.066 258.328 328.593 254.96 330.538C251.591 332.483 249.133 335.686 248.127 339.443Z" fill="#7A4343"/>
<path d="M268.664 341.61L257.59 338.642L266.486 305.44C266.873 303.995 266.991 302.31 267.116 300.509C267.278 298.216 267.396 295.817 268.194 293.194L279.269 296.162C279.557 299.266 278.234 305.895 277.561 308.408L268.664 341.61ZM169.971 315.165L158.896 312.197L167.793 278.996C168.484 276.416 169.578 274.111 170.556 272.061C171.326 270.432 172.079 268.87 172.436 267.536L183.511 270.503C182.122 272.753 179.521 279.612 178.889 281.969L169.993 315.171L169.971 315.165Z" fill="#7A4343"/>
<path d="M141.344 310.807C140.846 312.667 140.719 314.607 140.97 316.517C141.221 318.426 141.846 320.267 142.809 321.935C143.772 323.603 145.054 325.065 146.582 326.238C148.11 327.41 149.854 328.27 151.714 328.768C153.575 329.267 155.515 329.394 157.424 329.143C159.334 328.891 161.175 328.266 162.843 327.303C164.511 326.34 165.972 325.058 167.145 323.53C168.317 322.002 169.177 320.259 169.676 318.398C170.682 314.641 170.155 310.638 168.211 307.27C166.266 303.901 163.063 301.444 159.306 300.437C155.549 299.43 151.546 299.957 148.177 301.902C144.809 303.847 142.351 307.05 141.344 310.807Z" fill="white"/>
<path d="M239.276 337.071C238.778 338.932 238.65 340.872 238.902 342.781C239.153 344.691 239.778 346.532 240.741 348.2C241.704 349.868 242.986 351.33 244.514 352.502C246.042 353.674 247.786 354.534 249.646 355.033C251.506 355.531 253.447 355.658 255.356 355.407C257.266 355.156 259.107 354.531 260.775 353.568C262.442 352.605 263.904 351.323 265.077 349.795C266.249 348.267 267.109 346.523 267.608 344.663C268.106 342.802 268.233 340.862 267.982 338.953C267.731 337.043 267.106 335.202 266.143 333.534C265.18 331.866 263.898 330.405 262.37 329.232C260.842 328.06 259.098 327.2 257.238 326.701C255.377 326.203 253.437 326.076 251.528 326.327C249.618 326.578 247.777 327.203 246.109 328.166C244.441 329.129 242.979 330.411 241.807 331.939C240.635 333.467 239.775 335.211 239.276 337.071Z" fill="white"/>
<path d="M252.793 343.291C249.724 342.469 247.917 339.339 248.739 336.27L257.635 303.068C264.106 278.917 249.715 253.991 225.565 247.52C201.414 241.049 176.488 255.44 170.016 279.591L161.12 312.793C160.298 315.861 157.168 317.668 154.099 316.846C151.03 316.024 149.223 312.894 150.045 309.825L158.942 276.623C162.857 262.013 172.26 249.779 185.451 242.182C198.619 234.58 213.944 232.536 228.532 236.445C243.12 240.354 255.377 249.764 262.973 262.954C270.576 276.122 272.619 291.447 268.71 306.036L259.814 339.237C258.997 342.284 255.839 344.107 252.793 343.291Z" fill="white"/>
</g>
<g filter="url(#filter1_f_79_402)">
<circle cx="328.25" cy="201.718" r="31.7494" fill="#E3CBCB"/>
</g>
<circle cx="321.049" cy="194.517" r="31.7494" fill="url(#paint1_linear_79_402)"/>
<path d="M319.321 207.047L320.028 206.34L319.321 207.047C319.693 207.419 320.197 207.628 320.722 207.628C321.248 207.628 321.752 207.419 322.124 207.047L321.417 206.34L322.124 207.047C322.495 206.675 322.704 206.171 322.704 205.646V196.826H331.524C332.049 196.826 332.553 196.617 332.925 196.246L332.218 195.539L332.925 196.246C333.297 195.874 333.506 195.37 333.506 194.844C333.506 194.319 333.297 193.815 332.925 193.443L332.218 194.15L332.925 193.443C332.553 193.071 332.049 192.862 331.524 192.862H322.704V184.043C322.704 183.517 322.495 183.013 322.124 182.642C321.752 182.27 321.248 182.061 320.722 182.061C320.197 182.061 319.693 182.27 319.321 182.642C318.949 183.013 318.74 183.517 318.74 184.043V192.862H309.921C309.395 192.862 308.891 193.071 308.519 193.443C308.148 193.815 307.939 194.319 307.939 194.844C307.939 195.37 308.148 195.874 308.519 196.246C308.891 196.617 309.395 196.826 309.921 196.826H318.74V205.646C318.74 206.171 318.949 206.675 319.321 207.047Z" fill="white" stroke="white" stroke-width="2"/>
<defs>
<filter id="filter0_f_79_402" x="-61.6702" y="0.32959" width="553.341" height="553.341" filterUnits="userSpaceOnUse" color-interpolation-filters="sRGB">
<feFlood flood-opacity="0" result="BackgroundImageFix"/>
<feBlend mode="normal" in="SourceGraphic" in2="BackgroundImageFix" result="shape"/>
<feGaussianBlur stdDeviation="75" result="effect1_foregroundBlur_79_402"/>
</filter>
<filter id="filter1_f_79_402" x="256.501" y="129.968" width="143.499" height="143.499" filterUnits="userSpaceOnUse" color-interpolation-filters="sRGB">
<feFlood flood-opacity="0" result="BackgroundImageFix"/>
<feBlend mode="normal" in="SourceGraphic" in2="BackgroundImageFix" result="shape"/>
<feGaussianBlur stdDeviation="20" result="effect1_foregroundBlur_79_402"/>
</filter>
<linearGradient id="paint0_linear_79_402" x1="217.368" y1="279.575" x2="180.252" y2="418.097" gradientUnits="userSpaceOnUse">
<stop stop-color="#C69797"/>
<stop offset="1" stop-color="#E3CBCB"/>
</linearGradient>
<linearGradient id="paint1_linear_79_402" x1="300.783" y1="168.471" x2="386.431" y2="202.592" gradientUnits="userSpaceOnUse">
<stop stop-color="#7A4343"/>
<stop offset="0.42992" stop-color="#D88F8F"/>
<stop offset="0.902909" stop-color="#CBE3E3"/>
</linearGradient>
</defs>
</svg>
