<svg width="48" height="48" viewBox="0 0 48 48" fill="none" xmlns="http://www.w3.org/2000/svg">
<path d="M0 24C0 10.7452 10.7452 0 24 0C37.2548 0 48 10.7452 48 24C48 37.2548 37.2548 48 24 48C10.7452 48 0 37.2548 0 24Z" fill="#7A4343"/>
<path d="M31 16V19M31 26V32M31 26C32.1046 26 33 25.1046 33 24C33 22.8954 32.1046 22 31 22C29.8954 22 29 22.8954 29 24C29 25.1046 29.8954 26 31 26ZM24 22V28M24 28C22.8954 28 22 28.8954 22 30C22 31.1046 22.8954 32 24 32C25.1046 32 26 31.1046 26 30C26 28.8954 25.1046 28 24 28ZM24 16V19M17 23V32M19 18C19 19.1046 18.1046 20 17 20C15.8954 20 15 19.1046 15 18C15 16.8954 15.8954 16 17 16C18.1046 16 19 16.8954 19 18Z" stroke="white" stroke-width="1.5" stroke-linecap="round"/>
</svg>
