<svg width="242" height="305" viewBox="0 0 242 305" fill="none" xmlns="http://www.w3.org/2000/svg">
<path d="M142.471 215.812C147.501 207.712 152.513 199.594 157.578 191.511C177.212 160.116 196.969 128.792 216.47 97.3178C223.542 85.8341 228.89 73.5377 231.083 60.0929C232.334 53.1815 232.093 46.0826 230.375 39.272C227.582 28.813 220.731 22.1083 211.175 17.3823C190.684 7.23243 169.698 6.2519 148.137 13.1068C137.697 16.4282 127.717 20.9157 119.151 27.7441C109.825 35.182 102.771 44.4485 100.322 56.5418C99.57 60.2992 99.6423 64.175 100.534 67.9018C100.981 70.026 102.074 71.9604 103.663 73.4405C108.517 77.981 113.688 81.9296 120.459 83.0426C122.847 83.4769 125.301 83.3941 127.654 82.7997C130.007 82.2054 132.205 81.1134 134.099 79.5975C132.487 78.5653 130.99 77.3629 129.635 76.0111C125.374 71.3999 126.161 65.181 129.52 61.1617C131.518 58.7855 134.904 58.1406 137.998 57.6283C145.83 56.3916 151.921 59.5717 156.809 65.4107C159.364 68.4671 159.187 75.4457 156.677 79.5445C154.582 82.8449 151.538 85.4347 147.943 86.9736C132.508 94.1289 117.109 93.4045 102.17 85.7987C91.9682 80.6134 87.8311 71.6649 88.5471 60.3579C88.7341 58.0121 89.0737 55.681 89.5637 53.3793C90.5944 48.7134 92.7729 44.3779 95.902 40.7649C109.622 23.928 126.188 11.1987 147.174 4.80318C166.807 -1.17719 186.777 -1.95454 206.189 4.64418C224.143 10.7482 236.784 22.9121 240.311 42.5404C242.079 52.3016 240.895 61.9744 238.393 71.4441C234.424 86.5496 227.626 100.374 219.06 113.333C209.787 127.343 200.885 141.601 191.815 155.735C180.651 173.154 169.601 190.663 158.356 207.994C155.041 213.109 151.16 217.862 147.545 222.773C147.545 222.208 147.501 221.633 147.483 221.059C147.43 219.425 147.978 217.331 147.174 216.254C146.369 215.176 144.08 216.104 142.471 215.812Z" fill="white"/>
<path d="M93.6037 220.026C88.6444 216.766 84.0742 213.012 79.4597 209.311C59.3135 193.083 41.3242 174.771 26.1637 153.782C16.5281 140.453 8.59867 126.213 3.88698 110.356C0.713439 99.65 -0.789346 88.7316 0.412887 77.5571C2.18088 61.3474 8.8904 47.6729 21.01 36.5867C32.334 26.2337 45.2138 18.9194 60.2328 15.5185C71.3841 13.0434 82.9002 12.6749 94.1871 14.432C99.7244 15.2427 105.183 16.5193 110.506 18.2481C111.823 18.6721 112.044 19.1314 111.505 20.4123C110.161 23.5571 110.24 23.4864 106.952 22.5501C85.3029 16.3665 64.0429 16.7464 43.6137 26.9669C31.2908 33.1504 20.9304 41.8427 13.5579 53.6268C8.74013 61.2855 6.37101 69.8365 5.60193 78.8291C4.18754 94.4823 7.98873 109.12 14.327 123.236C21.4608 139.136 31.4411 153.129 42.6679 166.317C57.2048 183.331 73.5885 198.678 91.5174 212.076C92.1804 212.57 92.8876 212.959 93.5683 213.462C93.5418 215.671 93.5683 217.844 93.6037 220.026Z" fill="white"/>
<path d="M135.567 224.637C132.082 222.081 128.752 219.32 125.596 216.369C111.381 203.931 98.1299 190.601 86.5054 175.646C74.3239 159.966 67.526 141.989 63.0706 122.944C61.007 114.652 60.1173 106.113 60.4275 97.5739C60.8253 89.4204 62.5668 81.6733 68.1183 75.2955C72.1316 70.6843 77.3295 68.2286 83.1992 66.93C84.1451 66.7268 84.6224 66.8682 84.8346 68.0431C85.4711 71.5765 85.5506 71.5765 82.0412 72.5659C72.6797 75.2778 68.1006 82.062 66.3856 91.1607C64.6176 100.445 65.6165 109.711 67.526 118.81C70.0277 130.771 73.5106 142.466 78.8146 153.5C84.2335 164.762 91.8447 174.585 100.03 183.94C110.684 195.86 122.208 206.973 134.506 217.19C134.842 217.473 135.213 217.72 135.567 217.985V224.637Z" fill="white"/>
<path d="M136.239 238.444C135.735 238.444 135.231 238.444 134.727 238.444C134.055 238.506 133.118 238.117 133.039 239.327C132.959 240.538 134.002 240.149 134.612 240.361C135.196 241.244 136.195 241.545 137.105 241.951V247.834C135.958 247.321 134.848 246.731 133.781 246.068C132.146 244.902 130.873 244.822 129.909 246.81C128.716 242.154 126.082 238.859 121.211 237.799C120.23 237.587 119.222 237.543 118.223 237.419C118.223 236.81 117.79 236.536 117.339 236.306C110.851 232.234 104.53 227.906 98.2448 223.542C98.6602 221.598 99.0669 219.664 99.4823 217.729C100.428 218.984 101.834 219.664 103.063 220.538C110.904 226.086 118.974 231.28 127.16 236.315C128.486 237.128 129.132 237.048 129.945 235.662C131.713 232.596 133.737 229.646 135.655 226.651C135.726 227.843 135.726 229.037 135.655 230.229C135.496 231.837 135.938 232.587 137.697 232.358C138.638 232.302 139.581 232.326 140.517 232.428L136.239 238.444Z" fill="white"/>
<path d="M136.398 225.008L143.364 229.645L134.612 240.414L128.451 236.862L136.398 225.008Z" fill="white"/>
<path d="M186.299 262.365V256.102L195.679 262.206C195.679 265.969 195.679 269.727 195.679 273.478C192.487 272.71 189.491 271.482 186.37 270.43C186.211 268.594 186.211 266.746 186.37 264.909L192.92 267.242L193.159 266.72C190.855 265.26 188.568 263.808 186.299 262.365ZM193.575 267.206L193.513 267.295H193.628L193.575 267.206Z" fill="white"/>
<path d="M145.026 232.499C147.501 232.287 147.492 232.287 147.51 229.663C147.51 229.098 147.554 228.532 147.58 227.967C152.089 231.436 156.603 234.901 161.123 238.364H152.646L145.026 232.499Z" fill="white"/>
<path d="M166.701 262.692V257.189L176.381 261.058C176.545 262.909 176.545 264.772 176.381 266.623L166.701 262.692Z" fill="white"/>
<path d="M212.899 272.983C212.899 274.803 212.875 276.623 212.828 278.442L205.394 276.676C205.394 273.937 205.409 271.205 205.438 268.478L212.899 272.983Z" fill="white"/>
<path d="M148.411 254.114C148.411 252.2 148.432 250.284 148.473 248.364L156.571 252.251C156.571 254.123 156.571 255.996 156.571 257.869L148.411 254.114Z" fill="white"/>
<path d="M222.87 281.101C222.87 280.412 222.87 279.714 222.87 279.025L228.996 282.373L228.882 282.691L222.87 281.101Z" fill="white"/>
<path d="M100.481 282.877V287.046C96.4678 292.423 92.4456 297.806 88.4146 303.194C88.0345 303.707 87.84 304.511 86.7527 304.511L100.481 282.877Z" fill="white"/>
</svg>
