<svg width="52" height="55" viewBox="0 0 52 55" fill="none" xmlns="http://www.w3.org/2000/svg">
<path d="M0 26C0 11.6406 11.6406 0 26 0C40.3594 0 52 11.6406 52 26V29C52 43.3594 40.3594 55 26 55C11.6406 55 0 43.3594 0 29V26Z" fill="#E8E8E8"/>
<path d="M25.9985 20.4467C27.8763 20.4467 29.143 21.3794 29.8652 22.1589L32.6874 18.99C30.9541 17.1372 28.6985 16 25.9985 16C22.0874 16 18.7096 18.5811 17.0652 22.3378L20.2985 25.2256C21.1096 22.4528 23.3541 20.4467 25.9985 20.4467Z" fill="#EA4335"/>
<path d="M35.599 27.755C35.599 26.8094 35.5324 26.1194 35.3879 25.4039H25.999V29.6716H31.5101C31.399 30.7322 30.799 32.3294 29.4657 33.4028L32.6212 36.2139C34.5101 34.2078 35.599 31.2561 35.599 27.755Z" fill="#4285F4"/>
<path d="M20.3111 29.7753C20.1 29.0597 19.9778 28.2931 19.9778 27.5008C19.9778 26.7086 20.1 25.942 20.3 25.2264L17.0667 22.3386C16.3889 23.8975 16 25.6481 16 27.5008C16 29.3536 16.3889 31.1042 17.0667 32.6631L20.3111 29.7753Z" fill="#FBBC05"/>
<path d="M25.9986 39C28.6986 39 30.9653 37.9777 32.6208 36.2144L29.4653 33.4033C28.6209 34.0805 27.4875 34.5533 25.9986 34.5533C23.3542 34.5533 21.1097 32.5472 20.3097 29.7744L17.0764 32.6622C18.7209 36.4189 22.0875 39 25.9986 39Z" fill="#34A853"/>
</svg>
