<svg width="154" height="223" viewBox="0 0 154 223" fill="none" xmlns="http://www.w3.org/2000/svg">
<path d="M54.9785 215.812C60.0085 207.712 65.0207 199.594 70.086 191.511C89.7195 160.116 109.477 128.792 128.978 97.3178C136.05 85.8341 141.398 73.5377 143.59 60.0929C144.842 53.1815 144.601 46.0826 142.883 39.272C140.09 28.813 133.239 22.1083 123.683 17.3823C103.192 7.23243 82.2056 6.2519 60.6449 13.1068C50.205 16.4282 40.2246 20.9157 31.6587 27.7441C22.3326 35.182 15.2783 44.4485 12.8296 56.5418C12.0776 60.2992 12.15 64.175 13.0418 67.9018C13.4892 70.026 14.5821 71.9604 16.1711 73.4405C21.0243 77.981 26.1957 81.9296 32.9671 83.0426C35.3549 83.4769 37.8082 83.3941 40.1613 82.7997C42.5144 82.2054 44.7125 81.1134 46.6071 79.5975C44.9948 78.5653 43.4981 77.3629 42.1429 76.0111C37.8821 71.3999 38.6688 65.181 42.028 61.1617C44.0258 58.7855 47.4115 58.1406 50.5055 57.6283C58.3377 56.3916 64.4284 59.5717 69.3169 65.4107C71.8717 68.4671 71.6949 75.4457 69.1843 79.5445C67.09 82.8449 64.0453 85.4347 60.4505 86.9736C45.0159 94.1289 29.6167 93.4045 14.6772 85.7987C4.47589 80.6134 0.338792 71.6649 1.05483 60.3579C1.24176 58.0121 1.58134 55.681 2.07142 53.3793C3.10213 48.7134 5.28057 44.3779 8.40967 40.7649C22.1293 23.928 38.6953 11.1987 59.6814 4.80318C79.3149 -1.17719 99.2844 -1.95454 118.697 4.64418C136.651 10.7482 149.292 22.9121 152.819 42.5404C154.587 52.3016 153.403 61.9744 150.901 71.4441C146.932 86.5496 140.134 100.374 131.568 113.333C122.295 127.343 113.393 141.601 104.323 155.735C93.1583 173.154 82.1083 190.663 70.8639 207.994C67.5489 213.109 63.6682 217.862 60.0527 222.773C60.0527 222.208 60.0085 221.633 59.9908 221.059C59.9378 219.425 60.4858 217.331 59.6814 216.254C58.8769 215.176 56.5874 216.104 54.9785 215.812Z" fill="white"/>
</svg>
