<svg width="229" height="270" viewBox="0 0 229 270" fill="none" xmlns="http://www.w3.org/2000/svg">
<path d="M93.6037 206.685C88.6444 203.425 84.0742 199.671 79.4597 195.969C59.3135 179.742 41.3242 161.43 26.1637 140.441C16.5281 127.111 8.59867 112.871 3.88698 97.015C0.713439 86.3087 -0.789346 75.3903 0.412887 64.2158C2.18088 48.0061 8.8904 34.3316 21.01 23.2454C32.334 12.8924 45.2138 5.57813 60.2328 2.17718C71.3841 -0.297865 82.9002 -0.666379 94.1871 1.09065C99.7244 1.90139 105.183 3.17796 110.506 4.90677C111.823 5.33079 112.044 5.79013 111.505 7.07101C110.161 10.2158 110.24 10.1451 106.952 9.20876C85.3029 3.02522 64.0429 3.40506 43.6137 13.6256C31.2908 19.8091 20.9304 28.5014 13.5579 40.2855C8.74013 47.9442 6.37101 56.4952 5.60193 65.4878C4.18754 81.141 7.98873 95.7783 14.327 109.894C21.4608 125.795 31.4411 139.787 42.6679 152.976C57.2048 169.99 73.5885 185.337 91.5174 198.734C92.1804 199.229 92.8876 199.618 93.5683 200.121C93.5418 202.33 93.5683 204.503 93.6037 206.685Z" fill="white"/>
<path d="M135.567 211.296C132.082 208.74 128.752 205.979 125.596 203.027C111.381 190.59 98.1299 177.26 86.5054 162.304C74.3239 146.625 67.526 128.648 63.0706 109.603C61.007 101.311 60.1173 92.7713 60.4275 84.2327C60.8253 76.0793 62.5668 68.3322 68.1183 61.9543C72.1316 57.3431 77.3295 54.8874 83.1992 53.5888C84.1451 53.3857 84.6224 53.527 84.8346 54.7019C85.4711 58.2353 85.5506 58.2353 82.0412 59.2247C72.6797 61.9366 68.1006 68.7208 66.3856 77.8195C64.6176 87.1036 65.6165 96.3701 67.526 105.469C70.0277 117.429 73.5106 129.125 78.8146 140.158C84.2335 151.421 91.8447 161.244 100.03 170.599C110.684 182.518 122.208 193.632 134.506 203.849C134.842 204.132 135.213 204.379 135.567 204.644V211.296Z" fill="white"/>
<path d="M136.239 225.103C135.735 225.103 135.231 225.103 134.727 225.103C134.055 225.165 133.118 224.776 133.039 225.986C132.959 227.197 134.002 226.808 134.612 227.02C135.196 227.903 136.195 228.204 137.105 228.61V234.493C135.958 233.98 134.848 233.39 133.781 232.726C132.146 231.56 130.873 231.481 129.909 233.468C128.716 228.813 126.082 225.518 121.211 224.458C120.23 224.246 119.222 224.202 118.223 224.078C118.223 223.469 117.79 223.195 117.339 222.965C110.851 218.893 104.53 214.564 98.2448 210.201C98.6602 208.257 99.0669 206.323 99.4823 204.388C100.428 205.642 101.834 206.323 103.063 207.197C110.904 212.745 118.974 217.939 127.16 222.974C128.486 223.787 129.132 223.707 129.945 222.32C131.713 219.255 133.737 216.305 135.655 213.31C135.726 214.502 135.726 215.696 135.655 216.888C135.496 218.495 135.938 219.246 137.697 219.017C138.638 218.961 139.581 218.985 140.517 219.087L136.239 225.103Z" fill="white"/>
<path d="M186.299 249.024V242.761L195.679 248.865C195.679 252.628 195.679 256.386 195.679 260.137C192.487 259.368 189.491 258.14 186.37 257.089C186.211 255.252 186.211 253.405 186.37 251.568L192.92 253.9L193.159 253.379C190.855 251.919 188.568 250.467 186.299 249.024ZM193.575 253.865L193.513 253.953H193.628L193.575 253.865Z" fill="white"/>
<path d="M145.026 219.158C147.501 218.946 147.492 218.946 147.51 216.322C147.51 215.757 147.554 215.191 147.58 214.626C152.089 218.095 156.603 221.56 161.123 225.023H152.646L145.026 219.158Z" fill="white"/>
<path d="M166.701 249.351V243.848L176.381 247.717C176.545 249.568 176.545 251.43 176.381 253.282L166.701 249.351Z" fill="white"/>
<path d="M212.899 259.642C212.899 261.462 212.875 263.282 212.828 265.101L205.394 263.335C205.394 260.596 205.409 257.864 205.438 255.137L212.899 259.642Z" fill="white"/>
<path d="M148.411 240.773C148.411 238.859 148.432 236.942 148.473 235.023L156.571 238.909C156.571 240.782 156.571 242.655 156.571 244.528L148.411 240.773Z" fill="white"/>
<path d="M222.87 267.76C222.87 267.071 222.87 266.373 222.87 265.684L228.996 269.032L228.882 269.35L222.87 267.76Z" fill="white"/>
</svg>
