<svg width="113" height="208" viewBox="0 0 113 208" fill="none" xmlns="http://www.w3.org/2000/svg">
<path d="M94.1113 207.026C89.1521 203.766 84.5819 200.012 79.9674 196.311C59.8212 180.083 41.8319 161.771 26.6713 140.782C17.0358 127.452 9.10637 113.213 4.39467 97.3562C1.22113 86.6499 -0.281656 75.7315 0.920577 64.557C2.68857 48.3472 9.39809 34.6728 21.5177 23.5866C32.8416 13.2336 45.7215 5.91932 60.7405 2.51837C71.8918 0.0433218 83.4079 -0.325192 94.6948 1.43184C100.232 2.24258 105.691 3.51915 111.013 5.24796C112.33 5.67197 112.551 6.13132 112.012 7.41219C110.669 10.557 110.748 10.4863 107.46 9.54994C85.8106 3.3664 64.5506 3.74625 44.1214 13.9668C31.7985 20.1503 21.4381 28.8426 14.0656 40.6266C9.24782 48.2854 6.8787 56.8364 6.10962 65.829C4.69523 81.4822 8.49642 96.1195 14.8347 110.236C21.9685 126.136 31.9488 140.129 43.1755 153.317C57.7125 170.331 74.0962 185.678 92.0251 199.075C92.6881 199.57 93.3953 199.959 94.076 200.462C94.0495 202.671 94.076 204.844 94.1113 207.026Z" fill="white"/>
</svg>
