<svg width="430" height="554" viewBox="0 0 430 554" fill="none" xmlns="http://www.w3.org/2000/svg">
<g filter="url(#filter0_f_94_1828)">
<circle cx="213.036" cy="277" r="126.67" fill="#E3CBCB" fill-opacity="0.2"/>
</g>
<circle cx="213.036" cy="277" r="139" fill="#E3CBCB" stroke="white" stroke-width="12"/>
<mask id="mask0_94_1828" style="mask-type:alpha" maskUnits="userSpaceOnUse" x="76" y="140" width="274" height="273">
<circle cx="213.082" cy="276.606" r="136.375" fill="white"/>
</mask>
<g mask="url(#mask0_94_1828)">
<path d="M144.403 276.925L213.1 348.167L281.798 276.925C289.435 269.005 293.725 258.264 293.725 247.063C293.725 223.741 275.494 204.833 253.004 204.833C242.204 204.833 231.846 209.283 224.209 217.202L213.1 228.722L201.992 217.202C194.355 209.283 183.997 204.833 173.197 204.833C150.707 204.833 132.475 223.741 132.475 247.063C132.475 258.264 136.766 269.005 144.403 276.925Z" fill="url(#paint0_linear_94_1828)" stroke="url(#paint1_linear_94_1828)" stroke-width="1.5" stroke-linecap="round" stroke-linejoin="round"/>
<path d="M276.641 347.25L274.44 349.303L267.907 342.298L265.587 339.81L267.788 337.757L270.108 340.245L276.641 347.25Z" fill="#C69797"/>
<path d="M270.108 340.245C269.757 340.601 269.395 340.95 269.028 341.293C268.661 341.636 268.286 341.973 267.907 342.296L265.587 339.808L267.794 337.755L270.108 340.245ZM276.994 347.579C276.643 347.934 276.282 348.283 275.914 348.626C275.547 348.97 275.172 349.307 274.793 349.63L272.473 347.142L274.68 345.089L276.994 347.579Z" fill="#C69797"/>
<path d="M279.241 314.58C278.986 321.759 276.609 328.702 272.411 334.531C268.212 340.359 262.381 344.813 255.653 347.33C248.924 349.846 241.601 350.312 234.608 348.669C227.615 347.026 221.266 343.348 216.362 338.098C209.791 331.051 206.287 321.682 206.622 312.052C206.958 302.422 211.104 293.32 218.15 286.747C232.797 273.082 255.836 273.883 269.5 288.534C272.765 292.016 275.308 296.111 276.98 300.581C278.652 305.052 279.421 309.81 279.241 314.58Z" fill="url(#paint2_linear_94_1828)"/>
<path d="M272.455 314.358C272.19 322.005 268.967 329.251 263.465 334.569C257.963 339.888 250.612 342.863 242.96 342.87C242.611 342.87 242.26 342.864 241.907 342.852C240.072 342.789 238.247 342.557 236.455 342.159C233.043 341.401 229.794 340.036 226.864 338.13C224.839 336.81 222.982 335.248 221.334 333.479C216.052 327.74 213.254 320.144 213.551 312.35C213.848 304.555 217.216 297.194 222.92 291.874C228.624 286.553 236.202 283.705 243.998 283.95C251.794 284.196 259.177 287.515 264.536 293.183C265.717 294.449 266.785 295.814 267.73 297.265C269.638 300.192 271.005 303.439 271.765 306.849C272.313 309.313 272.545 311.836 272.455 314.358Z" fill="#E3CBCB"/>
<path d="M252.703 297.515C247.929 294.806 242.275 294.103 236.983 295.562C231.691 297.02 227.194 300.52 224.482 305.293" stroke="white" stroke-width="15" stroke-linecap="round" stroke-linejoin="round"/>
<path d="M303.782 377.658C302.54 378.822 300.901 379.467 299.2 379.464H298.961C298.08 379.437 297.213 379.235 296.411 378.87C295.609 378.506 294.886 377.986 294.286 377.341L269.57 351.789L279.402 342.613L304.114 368.152C305.327 369.458 305.974 371.192 305.912 372.973C305.85 374.755 305.084 376.44 303.782 377.658Z" fill="#7A4343"/>
<path d="M304.657 376.663C304.036 377.531 303.217 378.238 302.268 378.727C301.319 379.215 300.267 379.471 299.2 379.472H298.961C298.079 379.443 297.213 379.24 296.41 378.874C295.608 378.509 294.886 377.987 294.286 377.341L269.57 351.789L271.163 350.302L295.827 375.796C296.427 376.441 297.149 376.961 297.952 377.326C298.754 377.691 299.621 377.893 300.502 377.921H300.741C302.146 377.924 303.517 377.484 304.657 376.663Z" fill="#7A4343"/>
<path d="M279.263 345.639L302.536 368.912" stroke="white" stroke-width="3" stroke-linecap="round" stroke-linejoin="round"/>
</g>
<circle cx="330.214" cy="197.135" r="31.7494" fill="url(#paint3_linear_94_1828)"/>
<path d="M338.926 203.699L332.69 197.463L338.926 191.227C339.298 190.855 339.507 190.351 339.507 189.825C339.507 189.3 339.298 188.795 338.926 188.424C338.554 188.052 338.05 187.843 337.525 187.843C336.999 187.843 336.495 188.052 336.123 188.424L329.887 194.66L323.651 188.424C323.279 188.052 322.775 187.843 322.249 187.843C321.724 187.843 321.22 188.052 320.848 188.424C320.476 188.795 320.267 189.3 320.267 189.825C320.267 190.351 320.476 190.855 320.848 191.227L327.084 197.463L320.848 203.699C320.476 204.071 320.267 204.575 320.267 205.101C320.267 205.626 320.476 206.13 320.848 206.502C321.22 206.874 321.724 207.083 322.249 207.083C322.775 207.083 323.279 206.874 323.651 206.502L329.887 200.266L336.123 206.502C336.495 206.874 336.999 207.083 337.525 207.083C338.05 207.083 338.554 206.874 338.926 206.502C339.298 206.13 339.507 205.626 339.507 205.101C339.507 204.575 339.298 204.071 338.926 203.699Z" fill="white" stroke="white" stroke-width="2"/>
<defs>
<linearGradient id="paint0_linear_94_1828" x1="97.9669" y1="292.326" x2="344.968" y2="316.739" gradientUnits="userSpaceOnUse">
<stop stop-color="#7A4343"/>
<stop offset="0.630745" stop-color="#C69797"/>
</linearGradient>
<linearGradient id="paint1_linear_94_1828" x1="97.9669" y1="292.326" x2="344.968" y2="316.739" gradientUnits="userSpaceOnUse">
<stop stop-color="#7A4343"/>
<stop offset="0.630745" stop-color="#C69797"/>
</linearGradient>
<linearGradient id="paint2_linear_94_1828" x1="191.049" y1="321.336" x2="302.584" y2="331.139" gradientUnits="userSpaceOnUse">
<stop stop-color="#7A4343"/>
<stop offset="0.630745" stop-color="#C69797"/>
</linearGradient>
<linearGradient id="paint3_linear_94_1828" x1="284.876" y1="204.146" x2="382.34" y2="212.709" gradientUnits="userSpaceOnUse">
<stop stop-color="#7A4343"/>
<stop offset="0.630745" stop-color="#C69797"/>
</linearGradient>
</defs>
</svg>
