<svg width="430" height="554" viewBox="0 0 430 554" fill="none" xmlns="http://www.w3.org/2000/svg">
<g filter="url(#filter0_f_94_1622)">
<circle cx="209.436" cy="277" r="126.67" fill="#E3CBCB" fill-opacity="0.2"/>
</g>
<circle cx="209.436" cy="277" r="139" fill="#E3CBCB" stroke="white" stroke-width="12"/>
<mask id="mask0_94_1622" style="mask-type:alpha" maskUnits="userSpaceOnUse" x="73" y="140" width="273" height="273">
<circle cx="209.482" cy="276.606" r="136.375" fill="white"/>
</mask>
<g mask="url(#mask0_94_1622)">
<path d="M140.802 276.925L209.5 348.167L278.198 276.925C285.835 269.005 290.125 258.264 290.125 247.063C290.125 223.741 271.893 204.833 249.403 204.833C238.603 204.833 228.245 209.283 220.609 217.202L209.5 228.722L198.391 217.202C190.755 209.283 180.397 204.833 169.597 204.833C147.107 204.833 128.875 223.741 128.875 247.063C128.875 258.264 133.165 269.005 140.802 276.925Z" fill="url(#paint0_linear_94_1622)" stroke="url(#paint1_linear_94_1622)" stroke-width="1.5" stroke-linecap="round" stroke-linejoin="round"/>
<path d="M273.04 347.25L270.839 349.303L264.306 342.298L261.987 339.81L264.188 337.757L266.507 340.245L273.04 347.25Z" fill="#C69797"/>
<path d="M266.507 340.245C266.156 340.601 265.795 340.95 265.428 341.293C265.061 341.636 264.685 341.973 264.306 342.296L261.987 339.808L264.194 337.755L266.507 340.245ZM273.394 347.579C273.042 347.934 272.681 348.283 272.314 348.626C271.947 348.97 271.572 349.307 271.192 349.63L268.873 347.142L271.08 345.089L273.394 347.579Z" fill="#C69797"/>
<path d="M275.641 314.58C275.386 321.759 273.009 328.702 268.81 334.531C264.612 340.359 258.78 344.813 252.052 347.33C245.324 349.846 238.001 350.312 231.008 348.669C224.015 347.026 217.665 343.348 212.762 338.098C206.19 331.051 202.687 321.682 203.022 312.052C203.357 302.422 207.504 293.32 214.55 286.747C229.197 273.082 252.235 273.883 265.899 288.534C269.165 292.016 271.707 296.111 273.379 300.581C275.051 305.052 275.82 309.81 275.641 314.58Z" fill="url(#paint2_linear_94_1622)"/>
<path d="M268.855 314.358C268.589 322.005 265.366 329.251 259.864 334.569C254.363 339.888 247.012 342.863 239.36 342.87C239.01 342.87 238.659 342.864 238.306 342.852C236.472 342.789 234.647 342.557 232.855 342.159C229.442 341.401 226.194 340.036 223.264 338.13C221.238 336.81 219.382 335.248 217.734 333.479C212.451 327.74 209.653 320.144 209.95 312.35C210.248 304.555 213.616 297.194 219.32 291.874C225.024 286.553 232.601 283.705 240.398 283.95C248.194 284.196 255.577 287.515 260.935 293.183C262.116 294.449 263.185 295.814 264.13 297.265C266.037 300.192 267.404 303.439 268.165 306.849C268.713 309.313 268.945 311.836 268.855 314.358Z" fill="#E3CBCB"/>
<path d="M249.103 297.515C244.329 294.806 238.674 294.103 233.382 295.562C228.09 297.02 223.594 300.52 220.882 305.293" stroke="white" stroke-width="15" stroke-linecap="round" stroke-linejoin="round"/>
<path d="M300.182 377.658C298.94 378.822 297.301 379.467 295.599 379.464H295.36C294.48 379.437 293.613 379.235 292.811 378.87C292.008 378.506 291.286 377.986 290.685 377.341L265.97 351.789L275.801 342.613L300.513 368.152C301.727 369.458 302.374 371.192 302.312 372.973C302.25 374.755 301.484 376.44 300.182 377.658Z" fill="#7A4343"/>
<path d="M301.057 376.663C300.436 377.531 299.616 378.238 298.667 378.727C297.718 379.215 296.667 379.471 295.599 379.472H295.36C294.479 379.443 293.612 379.24 292.81 378.874C292.007 378.509 291.285 377.987 290.685 377.341L265.97 351.789L267.563 350.302L292.226 375.796C292.827 376.441 293.549 376.961 294.351 377.326C295.154 377.691 296.02 377.893 296.901 377.921H297.14C298.546 377.924 299.916 377.484 301.057 376.663Z" fill="#7A4343"/>
<path d="M275.663 345.639L298.936 368.912" stroke="white" stroke-width="3" stroke-linecap="round" stroke-linejoin="round"/>
</g>
<g filter="url(#filter1_f_94_1622)">
<circle cx="333.815" cy="204.336" r="31.7494" fill="#FF7070" fill-opacity="0.7"/>
</g>
<circle cx="326.614" cy="197.135" r="31.7494" fill="url(#paint3_linear_94_1622)"/>
<path d="M335.326 203.699L329.089 197.463L335.326 191.227C335.697 190.855 335.906 190.351 335.906 189.825C335.906 189.3 335.697 188.795 335.326 188.424C334.954 188.052 334.45 187.843 333.924 187.843C333.399 187.843 332.894 188.052 332.523 188.424L326.286 194.66L320.05 188.424C319.679 188.052 319.174 187.843 318.649 187.843C318.123 187.843 317.619 188.052 317.247 188.424C316.876 188.795 316.667 189.3 316.667 189.825C316.667 190.351 316.876 190.855 317.247 191.227L323.484 197.463L317.247 203.699C316.876 204.071 316.667 204.575 316.667 205.101C316.667 205.626 316.876 206.13 317.247 206.502C317.619 206.874 318.123 207.083 318.649 207.083C319.174 207.083 319.679 206.874 320.05 206.502L326.286 200.266L332.523 206.502C332.894 206.874 333.399 207.083 333.924 207.083C334.45 207.083 334.954 206.874 335.326 206.502C335.697 206.13 335.906 205.626 335.906 205.101C335.906 204.575 335.697 204.071 335.326 203.699Z" fill="white" stroke="white" stroke-width="2"/>
<defs>
<filter id="filter0_f_94_1622" x="-67.2347" y="0.32959" width="553.341" height="553.341" filterUnits="userSpaceOnUse" color-interpolation-filters="sRGB">
<feFlood flood-opacity="0" result="BackgroundImageFix"/>
<feBlend mode="normal" in="SourceGraphic" in2="BackgroundImageFix" result="shape"/>
<feGaussianBlur stdDeviation="75" result="effect1_foregroundBlur_94_1622"/>
</filter>
<filter id="filter1_f_94_1622" x="262.065" y="132.587" width="143.499" height="143.499" filterUnits="userSpaceOnUse" color-interpolation-filters="sRGB">
<feFlood flood-opacity="0" result="BackgroundImageFix"/>
<feBlend mode="normal" in="SourceGraphic" in2="BackgroundImageFix" result="shape"/>
<feGaussianBlur stdDeviation="20" result="effect1_foregroundBlur_94_1622"/>
</filter>
<linearGradient id="paint0_linear_94_1622" x1="158.036" y1="217.707" x2="367.895" y2="311.764" gradientUnits="userSpaceOnUse">
<stop stop-color="#7A4343"/>
<stop offset="0.42992" stop-color="#D88F8F"/>
<stop offset="0.902909" stop-color="#CBE3E3"/>
</linearGradient>
<linearGradient id="paint1_linear_94_1622" x1="158.036" y1="217.707" x2="367.895" y2="311.764" gradientUnits="userSpaceOnUse">
<stop stop-color="#7A4343"/>
<stop offset="0.42992" stop-color="#D88F8F"/>
<stop offset="0.902909" stop-color="#CBE3E3"/>
</linearGradient>
<linearGradient id="paint2_linear_94_1622" x1="216.141" y1="283.524" x2="314.141" y2="322.584" gradientUnits="userSpaceOnUse">
<stop stop-color="#7A4343"/>
<stop offset="0.42992" stop-color="#D88F8F"/>
<stop offset="0.902909" stop-color="#CBE3E3"/>
</linearGradient>
<linearGradient id="paint3_linear_94_1622" x1="306.348" y1="171.089" x2="391.995" y2="205.21" gradientUnits="userSpaceOnUse">
<stop stop-color="#7A4343"/>
<stop offset="0.42992" stop-color="#D88F8F"/>
<stop offset="0.902909" stop-color="#CBE3E3"/>
</linearGradient>
</defs>
</svg>
