<svg width="324" height="131" viewBox="0 0 324 131" fill="none" xmlns="http://www.w3.org/2000/svg">
<path fill-rule="evenodd" clip-rule="evenodd" d="M209.336 116.649H70.288C64.3808 116.649 59.592 112.105 59.592 106.499C59.592 100.894 64.3808 96.3494 70.288 96.3494H10.696C4.78876 96.3494 0 91.8051 0 86.1994C0 80.5937 4.78876 76.0494 10.696 76.0494H71.816C77.7232 76.0494 82.512 71.5051 82.512 65.8994C82.512 60.2937 77.7232 55.7494 71.816 55.7494H33.616C27.7088 55.7494 22.92 51.2051 22.92 45.5994C22.92 39.9937 27.7088 35.4494 33.616 35.4494H94.736C88.8288 35.4494 84.04 30.9051 84.04 25.2994C84.04 19.6937 88.8288 15.1494 94.736 15.1494H181.832C187.739 15.1494 192.528 19.6937 192.528 25.2994C192.528 30.9051 187.739 35.4494 181.832 35.4494H279.624C285.531 35.4494 290.32 39.9937 290.32 45.5994C290.32 51.2051 285.531 55.7494 279.624 55.7494H313.24C319.147 55.7494 323.936 60.2937 323.936 65.8994C323.936 71.5051 319.147 76.0494 313.24 76.0494H284.208C278.301 76.0494 273.512 80.5937 273.512 86.1994C273.512 91.8051 278.301 96.3494 284.208 96.3494H293.376C299.283 96.3494 304.072 100.894 304.072 106.499C304.072 112.105 299.283 116.649 293.376 116.649H213.92C213.133 116.649 212.366 116.569 211.628 116.416C210.89 116.569 210.123 116.649 209.336 116.649Z" fill="#E3CBCB"/>
<path fill-rule="evenodd" clip-rule="evenodd" d="M114.599 125.35C96.0338 125.35 80.9834 111.392 80.9834 94.175C80.9834 76.9575 96.0338 63 114.599 63C115.389 63 116.172 63.0252 116.948 63.0749C116.409 60.2273 116.127 57.2948 116.127 54.3C116.127 27.0724 139.387 5 168.079 5C190.986 5 210.43 19.0679 217.34 38.5958C218.977 38.4333 220.64 38.35 222.323 38.35C248.062 38.35 268.927 57.8256 268.927 81.85C268.927 104.674 250.095 123.505 226.143 125.318V125.35H139.823M132.929 125.35H122.287H132.929Z" fill="white"/>
<path d="M114.599 130.35C117.361 130.35 119.599 128.111 119.599 125.35C119.599 122.589 117.361 120.35 114.599 120.35V130.35ZM116.948 63.0749L116.629 68.0647L123.059 68.4762L121.861 62.1448L116.948 63.0749ZM217.34 38.5958L212.626 40.2638L213.934 43.9583L217.834 43.5713L217.34 38.5958ZM226.143 125.318L225.766 120.333L221.143 120.683V125.318H226.143ZM226.143 125.35V130.35H231.143V125.35H226.143ZM139.823 120.35C137.062 120.35 134.823 122.589 134.823 125.35C134.823 128.111 137.062 130.35 139.823 130.35V120.35ZM132.929 130.35C135.691 130.35 137.929 128.111 137.929 125.35C137.929 122.588 135.691 120.35 132.929 120.35V130.35ZM122.287 120.35C119.526 120.35 117.287 122.588 117.287 125.35C117.287 128.111 119.526 130.35 122.287 130.35V120.35ZM114.599 120.35C98.4336 120.35 85.9834 108.283 85.9834 94.175H75.9834C75.9834 114.502 93.634 130.35 114.599 130.35V120.35ZM85.9834 94.175C85.9834 80.0672 98.4336 68 114.599 68V58C93.634 58 75.9834 73.8478 75.9834 94.175H85.9834ZM114.599 68C115.282 68 115.959 68.0218 116.629 68.0647L117.267 58.0851C116.385 58.0286 115.495 58 114.599 58V68ZM121.861 62.1448C121.379 59.6019 121.127 56.9808 121.127 54.3H111.127C111.127 57.6089 111.438 60.8527 112.035 64.0049L121.861 62.1448ZM121.127 54.3C121.127 30.0774 141.898 10 168.079 10V0C136.876 0 111.127 24.0673 111.127 54.3H121.127ZM168.079 10C188.94 10 206.447 22.8004 212.626 40.2638L222.054 36.9278C214.413 15.3354 193.032 0 168.079 0V10ZM217.834 43.5713C219.307 43.4251 220.805 43.35 222.323 43.35V33.35C220.475 33.35 218.647 33.4415 216.846 33.6202L217.834 43.5713ZM222.323 43.35C245.631 43.35 263.927 60.906 263.927 81.85H273.927C273.927 54.7452 250.493 33.35 222.323 33.35V43.35ZM263.927 81.85C263.927 101.771 247.408 118.694 225.766 120.333L226.521 130.304C252.783 128.315 273.927 107.577 273.927 81.85H263.927ZM221.143 125.318V125.35H231.143V125.318H221.143ZM226.143 120.35H139.823V130.35H226.143V120.35ZM132.929 120.35H122.287V130.35H132.929V120.35Z" fill="#945151"/>
<path fill-rule="evenodd" clip-rule="evenodd" d="M152.208 15.646C152.208 62.3695 196.551 100.87 253.648 106.068C246.493 114.418 235.443 120.082 222.854 120.972V120.999H120.32C107.879 120.999 87.0962 116.025 87.0962 94.2443C87.0962 72.4633 103.253 67.4894 120.32 67.4894C121.045 67.4894 121.765 67.5111 122.478 67.5537C121.983 65.1098 121.896 62.5909 121.724 60.0229C120.565 42.6763 128.54 20.8143 152.235 13.6992C152.216 14.3478 152.208 14.9961 152.208 15.646Z" fill="#E3CBCB"/>
<path d="M183.36 22.4004C193.306 24.8981 201.158 32.279 203.897 41.6755" stroke="#945151" stroke-width="10" stroke-linecap="round"/>
<path d="M139.047 69.5242C139.047 74.7295 143.836 78.9492 149.743 78.9492C155.65 78.9492 160.439 74.7295 160.439 69.5242" stroke="#945151" stroke-width="10" stroke-linecap="round"/>
<path d="M183.36 69.5242C183.36 74.7295 188.148 78.9492 194.056 78.9492C199.963 78.9492 204.752 74.7295 204.752 69.5242" stroke="#945151" stroke-width="10" stroke-linecap="round"/>
<path d="M160.439 96.3494H182.595" stroke="#945151" stroke-width="10" stroke-linecap="round"/>
<path fill-rule="evenodd" clip-rule="evenodd" d="M79.6939 9.77344H61.4405V13.2186H74.349L60.3647 29.2962V32.55H80.0301V29.1048H65.7097L79.6939 12.8039V9.77344ZM100.188 31.9346H86.9122V34.4402H96.3003L86.1299 46.133V48.4994H100.432V45.9938H90.0171L100.188 34.1386V31.9346Z" fill="#945151"/>
</svg>
