<svg width="430" height="554" viewBox="0 0 430 554" fill="none" xmlns="http://www.w3.org/2000/svg">
<g filter="url(#filter0_f_94_1553)">
<circle cx="209.436" cy="277" r="126.67" fill="#E3CBCB" fill-opacity="0.2"/>
</g>
<circle cx="209.436" cy="277" r="139" fill="#E3CBCB" stroke="white" stroke-width="12"/>
<mask id="mask0_94_1553" style="mask-type:alpha" maskUnits="userSpaceOnUse" x="73" y="140" width="273" height="273">
<circle cx="209.482" cy="276.606" r="136.375" fill="white"/>
</mask>
<g mask="url(#mask0_94_1553)">
<path d="M209.5 200.354C179.815 200.354 155.75 215.46 155.75 245.146C155.75 262.517 149.434 281.994 142.926 297.453C137.522 310.288 146.593 325.771 160.519 325.771H258.481C272.407 325.771 281.479 310.288 276.075 297.453C269.566 281.994 263.25 262.517 263.25 245.146C263.25 215.46 239.185 200.354 209.5 200.354Z" fill="url(#paint0_linear_94_1553)"/>
<path d="M182.625 325.771V334.729C182.625 349.572 194.658 357.125 209.5 357.125C224.343 357.125 236.375 349.572 236.375 334.729V325.771M155.75 245.146C155.75 215.46 179.815 200.354 209.5 200.354C239.185 200.354 263.25 215.46 263.25 245.146C263.25 262.517 269.566 281.994 276.075 297.453C281.479 310.288 272.407 325.771 258.481 325.771H160.519C146.593 325.771 137.522 310.288 142.926 297.453C149.434 281.994 155.75 262.517 155.75 245.146Z" stroke="url(#paint1_linear_94_1553)" stroke-width="19.5" stroke-linecap="round" stroke-linejoin="round"/>
<path d="M298.041 335.25L295.839 337.303L289.306 330.298L286.987 327.81L289.188 325.757L291.507 328.245L298.041 335.25Z" fill="#C69797"/>
<path d="M291.507 328.245C291.156 328.601 290.795 328.95 290.428 329.293C290.061 329.636 289.686 329.973 289.306 330.296L286.987 327.808L289.194 325.755L291.507 328.245ZM298.394 335.579C298.043 335.934 297.681 336.283 297.314 336.626C296.947 336.97 296.572 337.307 296.193 337.63L293.873 335.142L296.08 333.089L298.394 335.579Z" fill="#C69797"/>
<path d="M300.641 302.58C300.386 309.759 298.009 316.702 293.81 322.531C289.612 328.359 283.78 332.813 277.052 335.33C270.324 337.846 263.001 338.312 256.008 336.669C249.015 335.026 242.665 331.348 237.762 326.098C231.19 319.051 227.687 309.682 228.022 300.052C228.357 290.422 232.504 281.32 239.55 274.747C254.197 261.082 277.235 261.883 290.899 276.534C294.165 280.016 296.707 284.111 298.379 288.581C300.051 293.052 300.82 297.81 300.641 302.58Z" fill="url(#paint2_linear_94_1553)"/>
<path d="M293.855 302.358C293.589 310.005 290.366 317.251 284.865 322.569C279.363 327.888 272.012 330.863 264.36 330.87C264.011 330.87 263.66 330.864 263.306 330.852C261.472 330.789 259.647 330.557 257.855 330.159C254.443 329.401 251.194 328.036 248.264 326.13C246.239 324.81 244.382 323.248 242.734 321.479C237.451 315.74 234.654 308.144 234.951 300.35C235.248 292.555 238.616 285.194 244.32 279.874C250.024 274.553 257.601 271.705 265.398 271.95C273.194 272.196 280.577 275.515 285.935 281.183C287.116 282.449 288.185 283.814 289.13 285.265C291.038 288.192 292.404 291.439 293.165 294.849C293.713 297.313 293.945 299.836 293.855 302.358Z" fill="#E3CBCB"/>
<path d="M274.103 285.515C269.329 282.806 263.674 282.103 258.382 283.562C253.09 285.02 248.594 288.52 245.882 293.293" stroke="white" stroke-width="15" stroke-linecap="round" stroke-linejoin="round"/>
<path d="M325.182 365.658C323.94 366.822 322.301 367.467 320.599 367.464H320.361C319.48 367.437 318.613 367.235 317.811 366.87C317.008 366.506 316.286 365.986 315.686 365.341L290.97 339.789L300.801 330.613L325.513 356.152C326.727 357.458 327.374 359.192 327.312 360.973C327.25 362.755 326.484 364.44 325.182 365.658Z" fill="#7A4343"/>
<path d="M326.057 364.663C325.436 365.531 324.617 366.238 323.668 366.727C322.719 367.215 321.667 367.471 320.599 367.472H320.361C319.479 367.443 318.612 367.24 317.81 366.874C317.007 366.509 316.285 365.987 315.686 365.341L290.97 339.789L292.563 338.302L317.227 363.796C317.827 364.441 318.549 364.961 319.352 365.326C320.154 365.691 321.021 365.893 321.902 365.921H322.14C323.546 365.924 324.916 365.484 326.057 364.663Z" fill="#7A4343"/>
<path d="M300.663 333.639L323.936 356.912" stroke="white" stroke-width="3" stroke-linecap="round" stroke-linejoin="round"/>
</g>
<g filter="url(#filter1_f_94_1553)">
<circle cx="333.814" cy="204.336" r="31.7494" fill="#FF7070" fill-opacity="0.7"/>
</g>
<circle cx="326.614" cy="197.135" r="31.7494" fill="url(#paint3_linear_94_1553)"/>
<path d="M335.325 203.699L329.089 197.463L335.325 191.227C335.697 190.855 335.906 190.351 335.906 189.825C335.906 189.3 335.697 188.795 335.325 188.424C334.954 188.052 334.449 187.843 333.924 187.843C333.398 187.843 332.894 188.052 332.522 188.424L326.286 194.66L320.05 188.424C319.678 188.052 319.174 187.843 318.648 187.843C318.123 187.843 317.619 188.052 317.247 188.424C316.875 188.795 316.666 189.3 316.666 189.825C316.666 190.351 316.875 190.855 317.247 191.227L323.483 197.463L317.247 203.699C316.875 204.071 316.666 204.575 316.666 205.101C316.666 205.626 316.875 206.13 317.247 206.502C317.619 206.874 318.123 207.083 318.648 207.083C319.174 207.083 319.678 206.874 320.05 206.502L326.286 200.266L332.522 206.502C332.894 206.874 333.398 207.083 333.924 207.083C334.449 207.083 334.954 206.874 335.325 206.502C335.697 206.13 335.906 205.626 335.906 205.101C335.906 204.575 335.697 204.071 335.325 203.699Z" fill="white" stroke="white" stroke-width="2"/>
<defs>
<filter id="filter0_f_94_1553" x="-67.2349" y="0.32959" width="553.341" height="553.341" filterUnits="userSpaceOnUse" color-interpolation-filters="sRGB">
<feFlood flood-opacity="0" result="BackgroundImageFix"/>
<feBlend mode="normal" in="SourceGraphic" in2="BackgroundImageFix" result="shape"/>
<feGaussianBlur stdDeviation="75" result="effect1_foregroundBlur_94_1553"/>
</filter>
<filter id="filter1_f_94_1553" x="262.065" y="132.587" width="143.499" height="143.499" filterUnits="userSpaceOnUse" color-interpolation-filters="sRGB">
<feFlood flood-opacity="0" result="BackgroundImageFix"/>
<feBlend mode="normal" in="SourceGraphic" in2="BackgroundImageFix" result="shape"/>
<feGaussianBlur stdDeviation="20" result="effect1_foregroundBlur_94_1553"/>
</filter>
<linearGradient id="paint0_linear_94_1553" x1="165.995" y1="214.435" x2="356.211" y2="280.327" gradientUnits="userSpaceOnUse">
<stop stop-color="#7A4343"/>
<stop offset="0.42992" stop-color="#D88F8F"/>
<stop offset="0.902909" stop-color="#CBE3E3"/>
</linearGradient>
<linearGradient id="paint1_linear_94_1553" x1="165.995" y1="214.435" x2="356.211" y2="280.327" gradientUnits="userSpaceOnUse">
<stop stop-color="#7A4343"/>
<stop offset="0.42992" stop-color="#D88F8F"/>
<stop offset="0.902909" stop-color="#CBE3E3"/>
</linearGradient>
<linearGradient id="paint2_linear_94_1553" x1="241.141" y1="271.524" x2="339.141" y2="310.584" gradientUnits="userSpaceOnUse">
<stop stop-color="#7A4343"/>
<stop offset="0.42992" stop-color="#D88F8F"/>
<stop offset="0.902909" stop-color="#CBE3E3"/>
</linearGradient>
<linearGradient id="paint3_linear_94_1553" x1="306.348" y1="171.089" x2="391.995" y2="205.21" gradientUnits="userSpaceOnUse">
<stop stop-color="#7A4343"/>
<stop offset="0.42992" stop-color="#D88F8F"/>
<stop offset="0.902909" stop-color="#CBE3E3"/>
</linearGradient>
</defs>
</svg>
