<svg width="430" height="554" viewBox="0 0 430 554" fill="none" xmlns="http://www.w3.org/2000/svg">
<g filter="url(#filter0_f_94_1592)">
<circle cx="209.436" cy="277" r="126.67" fill="#E3CBCB" fill-opacity="0.2"/>
</g>
<circle cx="209.436" cy="277" r="139" fill="#E3CBCB" stroke="white" stroke-width="12"/>
<mask id="mask0_94_1592" style="mask-type:alpha" maskUnits="userSpaceOnUse" x="73" y="140" width="273" height="273">
<circle cx="209.482" cy="276.606" r="136.375" fill="white"/>
</mask>
<g mask="url(#mask0_94_1592)">
<mask id="mask1_94_1592" style="mask-type:luminance" maskUnits="userSpaceOnUse" x="104" y="171" width="211" height="211">
<path d="M104 171.865H314.135V382H104V171.865Z" fill="white"/>
</mask>
<g mask="url(#mask1_94_1592)">
<path d="M288.781 230.404L239.012 180.635C236.917 178.665 234.138 177.588 231.262 177.631C228.387 177.675 225.642 178.836 223.608 180.87C221.574 182.903 220.412 185.648 220.367 188.523C220.322 191.398 221.398 194.178 223.368 196.274L202.028 217.613L251.797 267.382L273.137 246.043C275.211 248.117 278.024 249.283 280.957 249.283C282.409 249.284 283.848 248.998 285.19 248.442C286.531 247.887 287.751 247.072 288.778 246.045C289.805 245.018 290.62 243.799 291.176 242.458C291.732 241.116 292.019 239.678 292.019 238.225C292.019 236.773 291.733 235.335 291.178 233.993C290.622 232.651 289.808 231.431 288.781 230.404Z" fill="#7A4343"/>
<path d="M231.187 177.395H148.239C142.372 177.395 136.746 179.725 132.598 183.873C128.45 188.021 126.119 193.648 126.119 199.514V354.351C126.119 360.217 128.45 365.843 132.598 369.992C136.746 374.14 142.372 376.47 148.239 376.47H269.896C275.763 376.47 281.389 374.14 285.537 369.992C289.685 365.843 292.016 360.217 292.016 354.351V238.223H242.247C236.717 238.223 231.187 232.693 231.187 227.163V177.395Z" fill="url(#paint0_linear_94_1592)"/>
<path d="M231.187 177.394H220.127V227.163C220.127 233.03 222.458 238.656 226.606 242.804C230.754 246.952 236.38 249.283 242.247 249.283H292.016V238.223H242.247C236.717 238.223 231.187 232.693 231.187 227.163V177.394Z" fill="white"/>
<path d="M203.538 238.93C203.538 240.396 202.955 241.803 201.918 242.84C200.881 243.877 199.475 244.459 198.008 244.459H153.769C152.302 244.459 150.896 243.877 149.859 242.84C148.822 241.803 148.239 240.396 148.239 238.93C148.239 237.463 148.822 236.056 149.859 235.019C150.896 233.982 152.302 233.4 153.769 233.4H198.008C199.475 233.4 200.881 233.982 201.918 235.019C202.955 236.056 203.538 237.463 203.538 238.93Z" fill="white"/>
<path d="M203.538 323.376C203.538 324.843 202.955 326.25 201.918 327.287C200.881 328.324 199.475 328.906 198.008 328.906H153.769C152.302 328.906 150.896 328.324 149.859 327.287C148.822 326.25 148.239 324.843 148.239 323.376C148.239 321.91 148.822 320.503 149.859 319.466C150.896 318.429 152.302 317.846 153.769 317.846H198.008C199.475 317.846 200.881 318.429 201.918 319.466C202.955 320.503 203.538 321.91 203.538 323.376Z" fill="white"/>
<path d="M269.896 265.769C269.896 267.236 269.314 268.642 268.277 269.679C267.24 270.716 265.833 271.299 264.366 271.299H153.769C152.302 271.299 150.896 270.716 149.859 269.679C148.822 268.642 148.239 267.236 148.239 265.769C148.239 264.302 148.822 262.896 149.859 261.859C150.896 260.822 152.302 260.239 153.769 260.239H264.366C265.833 260.239 267.24 260.822 268.277 261.859C269.314 262.896 269.896 264.302 269.896 265.769Z" fill="white"/>
<path d="M249.327 292.574C249.327 294.05 248.844 295.465 247.985 296.509C247.126 297.552 245.96 298.139 244.745 298.139H153.097C151.881 298.139 150.716 297.552 149.857 296.509C148.997 295.465 148.514 294.05 148.514 292.574C148.514 291.099 148.997 289.683 149.857 288.64C150.716 287.596 151.881 287.01 153.097 287.01H244.745C245.96 287.01 247.126 287.596 247.985 288.64C248.844 289.683 249.327 291.099 249.327 292.574Z" fill="white"/>
</g>
<path d="M274.566 367.871L272.365 369.923L265.832 362.919L263.513 360.431L265.714 358.378L268.033 360.866L274.566 367.871Z" fill="#C69797"/>
<path d="M268.033 360.866C267.682 361.221 267.321 361.57 266.954 361.913C266.587 362.257 266.211 362.594 265.832 362.917L263.513 360.429L265.72 358.376L268.033 360.866ZM274.92 368.2C274.568 368.555 274.207 368.904 273.84 369.247C273.473 369.59 273.098 369.927 272.718 370.25L270.399 367.762L272.606 365.71L274.92 368.2Z" fill="#C69797"/>
<path d="M277.167 335.201C276.912 342.38 274.535 349.322 270.336 355.151C266.138 360.98 260.306 365.434 253.578 367.95C246.85 370.467 239.527 370.933 232.534 369.29C225.541 367.647 219.191 363.968 214.288 358.719C207.716 351.672 204.213 342.303 204.548 332.673C204.883 323.043 209.03 313.94 216.076 307.367C230.723 293.703 253.761 294.504 267.425 309.155C270.691 312.636 273.233 316.731 274.905 321.202C276.578 325.673 277.346 330.431 277.167 335.201Z" fill="url(#paint1_linear_94_1592)"/>
<path d="M270.381 334.978C270.115 342.626 266.892 349.872 261.39 355.19C255.889 360.508 248.538 363.484 240.886 363.49C240.537 363.49 240.185 363.484 239.832 363.472C237.998 363.409 236.173 363.177 234.381 362.78C230.968 362.022 227.72 360.657 224.79 358.751C222.765 357.431 220.908 355.869 219.26 354.1C213.977 348.361 211.179 340.765 211.477 332.97C211.774 325.176 215.142 317.815 220.846 312.494C226.55 307.174 234.127 304.325 241.924 304.571C249.72 304.816 257.103 308.135 262.461 313.804C263.642 315.069 264.711 316.435 265.656 317.885C267.564 320.813 268.93 324.059 269.691 327.47C270.239 329.933 270.471 332.456 270.381 334.978Z" fill="#E3CBCB"/>
<path d="M250.629 318.136C245.855 315.427 240.2 314.724 234.908 316.182C229.616 317.64 225.12 321.141 222.408 325.913" stroke="white" stroke-width="15" stroke-linecap="round" stroke-linejoin="round"/>
<path d="M301.708 398.279C300.466 399.442 298.827 400.088 297.125 400.085H296.887C296.006 400.057 295.139 399.855 294.337 399.491C293.534 399.127 292.812 398.607 292.211 397.962L267.496 372.41L277.327 363.234L302.039 388.772C303.253 390.078 303.9 391.812 303.838 393.594C303.776 395.376 303.01 397.061 301.708 398.279Z" fill="#7A4343"/>
<path d="M302.583 397.283C301.962 398.151 301.143 398.859 300.193 399.347C299.244 399.836 298.193 400.091 297.125 400.093H296.887C296.005 400.064 295.138 399.861 294.336 399.495C293.533 399.129 292.811 398.608 292.211 397.962L267.496 372.409L269.089 370.922L293.752 396.417C294.353 397.062 295.075 397.582 295.877 397.947C296.68 398.311 297.547 398.514 298.427 398.542H298.666C300.072 398.545 301.442 398.105 302.583 397.283Z" fill="#7A4343"/>
<path d="M277.189 366.259L300.462 389.532" stroke="white" stroke-width="3" stroke-linecap="round" stroke-linejoin="round"/>
</g>
<g filter="url(#filter1_f_94_1592)">
<circle cx="333.815" cy="204.336" r="31.7494" fill="#FF7070" fill-opacity="0.7"/>
</g>
<circle cx="326.614" cy="197.135" r="31.7494" fill="url(#paint2_linear_94_1592)"/>
<path d="M335.326 203.699L329.09 197.463L335.326 191.227C335.698 190.855 335.907 190.351 335.907 189.825C335.907 189.3 335.698 188.795 335.326 188.424C334.954 188.052 334.45 187.843 333.925 187.843C333.399 187.843 332.895 188.052 332.523 188.424L326.287 194.66L320.051 188.424C319.679 188.052 319.175 187.843 318.649 187.843C318.124 187.843 317.619 188.052 317.248 188.424C316.876 188.795 316.667 189.3 316.667 189.825C316.667 190.351 316.876 190.855 317.248 191.227L323.484 197.463L317.248 203.699C316.876 204.071 316.667 204.575 316.667 205.101C316.667 205.626 316.876 206.13 317.248 206.502C317.619 206.874 318.124 207.083 318.649 207.083C319.175 207.083 319.679 206.874 320.051 206.502L326.287 200.266L332.523 206.502C332.895 206.874 333.399 207.083 333.925 207.083C334.45 207.083 334.954 206.874 335.326 206.502C335.698 206.13 335.907 205.626 335.907 205.101C335.907 204.575 335.698 204.071 335.326 203.699Z" fill="white" stroke="white" stroke-width="2"/>
<defs>
<filter id="filter0_f_94_1592" x="-67.2346" y="0.32959" width="553.341" height="553.341" filterUnits="userSpaceOnUse" color-interpolation-filters="sRGB">
<feFlood flood-opacity="0" result="BackgroundImageFix"/>
<feBlend mode="normal" in="SourceGraphic" in2="BackgroundImageFix" result="shape"/>
<feGaussianBlur stdDeviation="75" result="effect1_foregroundBlur_94_1592"/>
</filter>
<filter id="filter1_f_94_1592" x="262.065" y="132.587" width="143.499" height="143.499" filterUnits="userSpaceOnUse" color-interpolation-filters="sRGB">
<feFlood flood-opacity="0" result="BackgroundImageFix"/>
<feBlend mode="normal" in="SourceGraphic" in2="BackgroundImageFix" result="shape"/>
<feGaussianBlur stdDeviation="20" result="effect1_foregroundBlur_94_1592"/>
</filter>
<linearGradient id="paint0_linear_94_1592" x1="156.121" y1="358.59" x2="389.656" y2="281.057" gradientUnits="userSpaceOnUse">
<stop stop-color="#E3CBCB"/>
<stop offset="0.42992" stop-color="#D88F8F"/>
<stop offset="0.902909" stop-color="#CBE3E3"/>
</linearGradient>
<linearGradient id="paint1_linear_94_1592" x1="217.667" y1="304.144" x2="315.667" y2="343.205" gradientUnits="userSpaceOnUse">
<stop stop-color="#7A4343"/>
<stop offset="0.42992" stop-color="#D88F8F"/>
<stop offset="0.902909" stop-color="#CBE3E3"/>
</linearGradient>
<linearGradient id="paint2_linear_94_1592" x1="306.348" y1="171.089" x2="391.996" y2="205.21" gradientUnits="userSpaceOnUse">
<stop stop-color="#7A4343"/>
<stop offset="0.42992" stop-color="#D88F8F"/>
<stop offset="0.902909" stop-color="#CBE3E3"/>
</linearGradient>
</defs>
</svg>
