<svg width="430" height="554" viewBox="0 0 430 554" fill="none" xmlns="http://www.w3.org/2000/svg">
<g filter="url(#filter0_f_94_1592)">
<circle cx="213.036" cy="277" r="126.67" fill="#E3CBCB" fill-opacity="0.2"/>
</g>
<circle cx="213.036" cy="277" r="139" fill="#E3CBCB" stroke="white" stroke-width="12"/>
<mask id="mask0_94_1592" style="mask-type:alpha" maskUnits="userSpaceOnUse" x="76" y="140" width="274" height="273">
<circle cx="213.082" cy="276.606" r="136.375" fill="white"/>
</mask>
<g mask="url(#mask0_94_1592)">
<mask id="mask1_94_1592" style="mask-type:luminance" maskUnits="userSpaceOnUse" x="107" y="171" width="211" height="211">
<path d="M107.6 171.865H317.736V382H107.6V171.865Z" fill="white"/>
</mask>
<g mask="url(#mask1_94_1592)">
<path d="M292.381 230.404L242.612 180.635C240.518 178.665 237.738 177.588 234.863 177.631C231.987 177.675 229.242 178.836 227.208 180.87C225.174 182.903 224.012 185.648 223.967 188.523C223.922 191.398 224.999 194.178 226.968 196.274L205.628 217.613L255.397 267.382L276.737 246.043C278.811 248.117 281.624 249.283 284.557 249.283C286.01 249.284 287.448 248.998 288.79 248.442C290.132 247.887 291.351 247.072 292.378 246.045C293.406 245.018 294.221 243.799 294.777 242.458C295.333 241.116 295.619 239.678 295.619 238.225C295.619 236.773 295.334 235.335 294.778 233.993C294.222 232.651 293.408 231.431 292.381 230.404Z" fill="#7A4343"/>
<path d="M234.787 177.395H151.839C145.973 177.395 140.347 179.725 136.198 183.873C132.05 188.021 129.72 193.648 129.72 199.514V354.351C129.72 360.217 132.05 365.843 136.198 369.992C140.347 374.14 145.973 376.47 151.839 376.47H273.497C279.363 376.47 284.989 374.14 289.137 369.992C293.286 365.843 295.616 360.217 295.616 354.351V238.223H245.847C240.317 238.223 234.787 232.693 234.787 227.163V177.395Z" fill="url(#paint0_linear_94_1592)"/>
<path d="M234.787 177.394H223.728V227.163C223.728 233.03 226.058 238.656 230.206 242.804C234.354 246.952 239.981 249.283 245.847 249.283H295.616V238.223H245.847C240.317 238.223 234.787 232.693 234.787 227.163V177.394Z" fill="white"/>
<path d="M207.138 238.93C207.138 240.396 206.556 241.803 205.518 242.84C204.481 243.877 203.075 244.459 201.608 244.459H157.369C155.903 244.459 154.496 243.877 153.459 242.84C152.422 241.803 151.839 240.396 151.839 238.93C151.839 237.463 152.422 236.056 153.459 235.019C154.496 233.982 155.903 233.4 157.369 233.4H201.608C203.075 233.4 204.481 233.982 205.518 235.019C206.556 236.056 207.138 237.463 207.138 238.93Z" fill="white"/>
<path d="M207.138 323.376C207.138 324.843 206.556 326.25 205.518 327.287C204.481 328.324 203.075 328.906 201.608 328.906H157.369C155.903 328.906 154.496 328.324 153.459 327.287C152.422 326.25 151.839 324.843 151.839 323.376C151.839 321.91 152.422 320.503 153.459 319.466C154.496 318.429 155.903 317.846 157.369 317.846H201.608C203.075 317.846 204.481 318.429 205.518 319.466C206.556 320.503 207.138 321.91 207.138 323.376Z" fill="white"/>
<path d="M273.497 265.769C273.497 267.236 272.914 268.642 271.877 269.679C270.84 270.716 269.433 271.299 267.967 271.299H157.369C155.903 271.299 154.496 270.716 153.459 269.679C152.422 268.642 151.839 267.236 151.839 265.769C151.839 264.302 152.422 262.896 153.459 261.859C154.496 260.822 155.903 260.239 157.369 260.239H267.967C269.433 260.239 270.84 260.822 271.877 261.859C272.914 262.896 273.497 264.302 273.497 265.769Z" fill="white"/>
<path d="M252.927 292.574C252.927 294.05 252.445 295.465 251.585 296.509C250.726 297.552 249.56 298.139 248.345 298.139H156.697C155.482 298.139 154.316 297.552 153.457 296.509C152.598 295.465 152.115 294.05 152.115 292.574C152.115 291.099 152.598 289.683 153.457 288.64C154.316 287.596 155.482 287.01 156.697 287.01H248.345C249.56 287.01 250.726 287.596 251.585 288.64C252.445 289.683 252.927 291.099 252.927 292.574Z" fill="white"/>
</g>
<path d="M278.167 367.871L275.966 369.923L269.433 362.919L267.113 360.431L269.314 358.378L271.634 360.866L278.167 367.871Z" fill="#C69797"/>
<path d="M271.634 360.866C271.283 361.221 270.921 361.57 270.554 361.913C270.187 362.257 269.812 362.594 269.433 362.917L267.113 360.429L269.32 358.376L271.634 360.866ZM278.52 368.2C278.169 368.555 277.808 368.904 277.44 369.247C277.073 369.59 276.698 369.927 276.319 370.25L273.999 367.762L276.206 365.71L278.52 368.2Z" fill="#C69797"/>
<path d="M280.767 335.201C280.512 342.38 278.135 349.322 273.937 355.151C269.738 360.98 263.907 365.434 257.179 367.95C250.45 370.467 243.127 370.933 236.134 369.29C229.141 367.647 222.792 363.968 217.888 358.719C211.317 351.672 207.813 342.303 208.148 332.673C208.484 323.043 212.63 313.94 219.676 307.367C234.323 293.703 257.362 294.504 271.026 309.155C274.291 312.636 276.834 316.731 278.506 321.202C280.178 325.673 280.947 330.431 280.767 335.201Z" fill="url(#paint1_linear_94_1592)"/>
<path d="M273.981 334.978C273.716 342.626 270.493 349.872 264.991 355.19C259.489 360.508 252.138 363.484 244.486 363.49C244.137 363.49 243.786 363.484 243.433 363.472C241.598 363.409 239.773 363.177 237.981 362.78C234.569 362.022 231.32 360.657 228.39 358.751C226.365 357.431 224.508 355.869 222.86 354.1C217.578 348.361 214.78 340.765 215.077 332.97C215.374 325.176 218.742 317.815 224.446 312.494C230.15 307.174 237.727 304.325 245.524 304.571C253.32 304.816 260.703 308.135 266.062 313.804C267.243 315.069 268.311 316.435 269.256 317.885C271.164 320.813 272.531 324.059 273.291 327.47C273.839 329.933 274.071 332.456 273.981 334.978Z" fill="#E3CBCB"/>
<path d="M254.229 318.136C249.455 315.427 243.801 314.724 238.509 316.182C233.217 317.64 228.72 321.141 226.008 325.913" stroke="white" stroke-width="15" stroke-linecap="round" stroke-linejoin="round"/>
<path d="M305.308 398.279C304.066 399.442 302.427 400.088 300.726 400.085H300.487C299.606 400.057 298.739 399.855 297.937 399.491C297.135 399.127 296.412 398.607 295.812 397.962L271.096 372.41L280.928 363.234L305.639 388.772C306.853 390.078 307.5 391.812 307.438 393.594C307.376 395.376 306.61 397.061 305.308 398.279Z" fill="#7A4343"/>
<path d="M306.183 397.283C305.562 398.151 304.743 398.859 303.794 399.347C302.845 399.836 301.793 400.091 300.726 400.093H300.487C299.605 400.064 298.739 399.861 297.936 399.495C297.134 399.129 296.412 398.608 295.812 397.962L271.096 372.409L272.689 370.922L297.353 396.417C297.953 397.062 298.675 397.582 299.478 397.947C300.28 398.311 301.147 398.514 302.028 398.542H302.267C303.672 398.545 305.043 398.105 306.183 397.283Z" fill="#7A4343"/>
<path d="M280.789 366.259L304.062 389.532" stroke="white" stroke-width="3" stroke-linecap="round" stroke-linejoin="round"/>
</g>
<circle cx="330.215" cy="197.135" r="31.7494" fill="url(#paint2_linear_94_1592)"/>
<path d="M338.926 203.699L332.69 197.463L338.926 191.227C339.298 190.855 339.507 190.351 339.507 189.825C339.507 189.3 339.298 188.795 338.926 188.424C338.555 188.052 338.051 187.843 337.525 187.843C336.999 187.843 336.495 188.052 336.123 188.424L329.887 194.66L323.651 188.424C323.279 188.052 322.775 187.843 322.249 187.843C321.724 187.843 321.22 188.052 320.848 188.424C320.476 188.795 320.268 189.3 320.268 189.825C320.268 190.351 320.476 190.855 320.848 191.227L327.084 197.463L320.848 203.699C320.476 204.071 320.268 204.575 320.268 205.101C320.268 205.626 320.476 206.13 320.848 206.502C321.22 206.874 321.724 207.083 322.249 207.083C322.775 207.083 323.279 206.874 323.651 206.502L329.887 200.266L336.123 206.502C336.495 206.874 336.999 207.083 337.525 207.083C338.051 207.083 338.555 206.874 338.926 206.502C339.298 206.13 339.507 205.626 339.507 205.101C339.507 204.575 339.298 204.071 338.926 203.699Z" fill="white" stroke="white" stroke-width="2"/>
<defs>
<filter id="filter0_f_94_1592" x="-63.6343" y="0.32959" width="553.341" height="553.341" filterUnits="userSpaceOnUse" color-interpolation-filters="sRGB">
<feFlood flood-opacity="0" result="BackgroundImageFix"/>
<feBlend mode="normal" in="SourceGraphic" in2="BackgroundImageFix" result="shape"/>
<feGaussianBlur stdDeviation="75" result="effect1_foregroundBlur_94_1592"/>
</filter>
<linearGradient id="paint0_linear_94_1592" x1="159.721" y1="358.59" x2="393.257" y2="281.057" gradientUnits="userSpaceOnUse">
<stop stop-color="#E3CBCB"/>
<stop offset="0.42992" stop-color="#D88F8F"/>
<stop offset="0.902909" stop-color="#CBE3E3"/>
</linearGradient>
<linearGradient id="paint1_linear_94_1592" x1="221.268" y1="304.144" x2="319.268" y2="343.205" gradientUnits="userSpaceOnUse">
<stop stop-color="#7A4343"/>
<stop offset="0.42992" stop-color="#D88F8F"/>
<stop offset="0.902909" stop-color="#CBE3E3"/>
</linearGradient>
<linearGradient id="paint2_linear_94_1592" x1="309.948" y1="171.089" x2="395.596" y2="205.21" gradientUnits="userSpaceOnUse">
<stop stop-color="#7A4343"/>
<stop offset="0.42992" stop-color="#D88F8F"/>
<stop offset="0.902909" stop-color="#CBE3E3"/>
</linearGradient>
</defs>
</svg>
