<svg width="430" height="554" viewBox="0 0 430 554" fill="none" xmlns="http://www.w3.org/2000/svg">
<g filter="url(#filter0_f_131_1120)">
<circle cx="209.436" cy="277" r="126.67" fill="#E3CBCB" fill-opacity="0.2"/>
</g>
<circle cx="209.436" cy="277" r="139" fill="#E3CBCB" stroke="white" stroke-width="12"/>
<mask id="mask0_131_1120" style="mask-type:alpha" maskUnits="userSpaceOnUse" x="73" y="140" width="273" height="273">
<circle cx="209.482" cy="276.606" r="136.375" fill="white"/>
</mask>
<g mask="url(#mask0_131_1120)">
<path d="M282 357V339C282 319.118 265.882 303 246 303H174C154.118 303 138 319.118 138 339V357H282Z" fill="url(#paint0_linear_131_1120)"/>
<path d="M210 267C229.882 267 246 250.882 246 231C246 222 237 195 210 195C190.118 195 174 211.118 174 231C174 250.882 190.118 267 210 267Z" fill="url(#paint1_linear_131_1120)"/>
<path d="M282 357V339C282 319.118 265.882 303 246 303H174C154.118 303 138 319.118 138 339V357H282Z" stroke="url(#paint2_linear_131_1120)" stroke-width="1.5" stroke-linecap="round" stroke-linejoin="round"/>
<path d="M210 267C229.882 267 246 250.882 246 231C246 222 237 195 210 195C190.118 195 174 211.118 174 231C174 250.882 190.118 267 210 267Z" stroke="url(#paint3_linear_131_1120)" stroke-width="1.5" stroke-linecap="round" stroke-linejoin="round"/>
<path d="M301.04 347.25L298.839 349.303L292.306 342.298L289.987 339.81L292.188 337.757L294.507 340.245L301.04 347.25Z" fill="#C69797"/>
<path d="M294.507 340.245C294.156 340.601 293.795 340.95 293.428 341.293C293.061 341.636 292.685 341.973 292.306 342.296L289.987 339.808L292.194 337.755L294.507 340.245ZM301.393 347.579C301.042 347.934 300.681 348.283 300.314 348.626C299.947 348.97 299.572 349.307 299.192 349.63L296.873 347.142L299.08 345.089L301.393 347.579Z" fill="#C69797"/>
<path d="M303.641 314.58C303.386 321.759 301.009 328.702 296.81 334.531C292.612 340.359 286.78 344.813 280.052 347.33C273.324 349.846 266.001 350.312 259.008 348.669C252.015 347.026 245.665 343.348 240.762 338.098C234.19 331.051 230.687 321.682 231.022 312.052C231.357 302.422 235.504 293.32 242.55 286.747C257.197 273.082 280.235 273.883 293.899 288.534C297.165 292.016 299.707 296.111 301.379 300.581C303.051 305.052 303.82 309.81 303.641 314.58Z" fill="url(#paint4_linear_131_1120)"/>
<path d="M296.855 314.358C296.589 322.005 293.366 329.251 287.864 334.569C282.363 339.888 275.012 342.863 267.36 342.87C267.01 342.87 266.659 342.864 266.306 342.852C264.472 342.789 262.647 342.557 260.855 342.159C257.442 341.401 254.194 340.036 251.264 338.13C249.238 336.81 247.381 335.248 245.734 333.479C240.451 327.74 237.653 320.144 237.95 312.35C238.248 304.555 241.616 297.194 247.32 291.874C253.024 286.553 260.601 283.705 268.397 283.95C276.194 284.196 283.577 287.515 288.935 293.183C290.116 294.449 291.185 295.814 292.13 297.265C294.037 300.192 295.404 303.439 296.165 306.849C296.713 309.313 296.945 311.836 296.855 314.358Z" fill="#E3CBCB"/>
<path d="M277.103 297.515C272.329 294.806 266.674 294.103 261.382 295.562C256.09 297.02 251.594 300.52 248.882 305.293" stroke="white" stroke-width="15" stroke-linecap="round" stroke-linejoin="round"/>
<path d="M328.182 377.658C326.94 378.822 325.301 379.467 323.599 379.464H323.36C322.48 379.437 321.613 379.235 320.811 378.87C320.008 378.506 319.286 377.986 318.685 377.341L293.969 351.789L303.801 342.613L328.513 368.152C329.727 369.458 330.374 371.192 330.312 372.973C330.25 374.755 329.484 376.44 328.182 377.658Z" fill="#7A4343"/>
<path d="M329.057 376.663C328.435 377.531 327.616 378.238 326.667 378.727C325.718 379.215 324.667 379.471 323.599 379.472H323.36C322.479 379.443 321.612 379.24 320.81 378.874C320.007 378.509 319.285 377.987 318.685 377.341L293.969 351.789L295.563 350.302L320.226 375.796C320.827 376.441 321.549 376.961 322.351 377.326C323.154 377.691 324.02 377.893 324.901 377.921H325.14C326.546 377.924 327.916 377.484 329.057 376.663Z" fill="#7A4343"/>
<path d="M303.663 345.639L326.936 368.912" stroke="white" stroke-width="3" stroke-linecap="round" stroke-linejoin="round"/>
</g>
<g filter="url(#filter1_f_131_1120)">
<circle cx="333.815" cy="204.336" r="31.7494" fill="#FF7070" fill-opacity="0.7"/>
</g>
<circle cx="326.614" cy="197.135" r="31.7494" fill="url(#paint5_linear_131_1120)"/>
<path d="M335.326 203.699L329.09 197.463L335.326 191.227C335.698 190.855 335.907 190.351 335.907 189.825C335.907 189.3 335.698 188.795 335.326 188.424C334.954 188.052 334.45 187.843 333.925 187.843C333.399 187.843 332.895 188.052 332.523 188.424L326.287 194.66L320.051 188.424C319.679 188.052 319.175 187.843 318.649 187.843C318.124 187.843 317.619 188.052 317.248 188.424C316.876 188.795 316.667 189.3 316.667 189.825C316.667 190.351 316.876 190.855 317.248 191.227L323.484 197.463L317.248 203.699C316.876 204.071 316.667 204.575 316.667 205.101C316.667 205.626 316.876 206.13 317.248 206.502C317.619 206.874 318.124 207.083 318.649 207.083C319.175 207.083 319.679 206.874 320.051 206.502L326.287 200.266L332.523 206.502C332.895 206.874 333.399 207.083 333.925 207.083C334.45 207.083 334.954 206.874 335.326 206.502C335.698 206.13 335.907 205.626 335.907 205.101C335.907 204.575 335.698 204.071 335.326 203.699Z" fill="white" stroke="white" stroke-width="2"/>
<defs>
<filter id="filter0_f_131_1120" x="-67.2346" y="0.32959" width="553.341" height="553.341" filterUnits="userSpaceOnUse" color-interpolation-filters="sRGB">
<feFlood flood-opacity="0" result="BackgroundImageFix"/>
<feBlend mode="normal" in="SourceGraphic" in2="BackgroundImageFix" result="shape"/>
<feGaussianBlur stdDeviation="75" result="effect1_foregroundBlur_131_1120"/>
</filter>
<filter id="filter1_f_131_1120" x="262.065" y="132.587" width="143.499" height="143.499" filterUnits="userSpaceOnUse" color-interpolation-filters="sRGB">
<feFlood flood-opacity="0" result="BackgroundImageFix"/>
<feBlend mode="normal" in="SourceGraphic" in2="BackgroundImageFix" result="shape"/>
<feGaussianBlur stdDeviation="20" result="effect1_foregroundBlur_131_1120"/>
</filter>
<linearGradient id="paint0_linear_131_1120" x1="164.041" y1="209.551" x2="364.018" y2="280.368" gradientUnits="userSpaceOnUse">
<stop stop-color="#7A4343"/>
<stop offset="0.42992" stop-color="#D88F8F"/>
<stop offset="0.902909" stop-color="#CBE3E3"/>
</linearGradient>
<linearGradient id="paint1_linear_131_1120" x1="164.041" y1="209.551" x2="364.018" y2="280.368" gradientUnits="userSpaceOnUse">
<stop stop-color="#7A4343"/>
<stop offset="0.42992" stop-color="#D88F8F"/>
<stop offset="0.902909" stop-color="#CBE3E3"/>
</linearGradient>
<linearGradient id="paint2_linear_131_1120" x1="164.041" y1="209.551" x2="364.018" y2="280.368" gradientUnits="userSpaceOnUse">
<stop stop-color="#7A4343"/>
<stop offset="0.42992" stop-color="#D88F8F"/>
<stop offset="0.902909" stop-color="#CBE3E3"/>
</linearGradient>
<linearGradient id="paint3_linear_131_1120" x1="164.041" y1="209.551" x2="364.018" y2="280.368" gradientUnits="userSpaceOnUse">
<stop stop-color="#7A4343"/>
<stop offset="0.42992" stop-color="#D88F8F"/>
<stop offset="0.902909" stop-color="#CBE3E3"/>
</linearGradient>
<linearGradient id="paint4_linear_131_1120" x1="244.141" y1="283.524" x2="342.141" y2="322.584" gradientUnits="userSpaceOnUse">
<stop stop-color="#7A4343"/>
<stop offset="0.42992" stop-color="#D88F8F"/>
<stop offset="0.902909" stop-color="#CBE3E3"/>
</linearGradient>
<linearGradient id="paint5_linear_131_1120" x1="306.348" y1="171.089" x2="391.996" y2="205.21" gradientUnits="userSpaceOnUse">
<stop stop-color="#7A4343"/>
<stop offset="0.42992" stop-color="#D88F8F"/>
<stop offset="0.902909" stop-color="#CBE3E3"/>
</linearGradient>
</defs>
</svg>
