<svg width="18" height="20" viewBox="0 0 18 20" fill="none" xmlns="http://www.w3.org/2000/svg">
<path d="M12 15V16C12 16.394 11.9224 16.7841 11.7716 17.1481C11.6209 17.512 11.3999 17.8427 11.1213 18.1213C10.8427 18.3999 10.512 18.6209 10.1481 18.7716C9.78407 18.9224 9.39397 19 9 19C8.60603 19 8.21593 18.9224 7.85195 18.7716C7.48797 18.6209 7.15726 18.3999 6.87868 18.1213C6.6001 17.8427 6.37913 17.512 6.22836 17.1481C6.0776 16.7841 6 16.394 6 16V15H17C17 15 15 9.99999 15 7M12 1.82461C11.1129 1.30174 10.0861 1 9 1C5.732 1 3 3.732 3 7C3 11 1 15 1 15H3" stroke="#4A4A4A" stroke-width="1.5" stroke-linecap="round" stroke-linejoin="round"/>
</svg>
