<svg width="19" height="20" viewBox="0 0 19 20" fill="none" xmlns="http://www.w3.org/2000/svg">
<path d="M12.6666 15V16C12.6666 16.394 12.589 16.7841 12.4383 17.1481C12.2875 17.512 12.0665 17.8427 11.7879 18.1213C11.5094 18.3999 11.1787 18.6209 10.8147 18.7716C10.4507 18.9224 10.0606 19 9.66663 19C9.27266 19 8.88255 18.9224 8.51858 18.7716C8.1546 18.6209 7.82388 18.3999 7.54531 18.1213C7.26673 17.8427 7.04575 17.512 6.89499 17.1481C6.74422 16.7841 6.66663 16.394 6.66663 16V15H17.6666C17.6666 15 15.6666 9.99999 15.6666 7M12.6666 1.82461C11.7796 1.30174 10.7527 1 9.66663 1C6.39863 1 3.66663 3.732 3.66663 7C3.66663 11 1.66663 15 1.66663 15H3.66663" stroke="#8E8E8E" stroke-width="1.5" stroke-linecap="round" stroke-linejoin="round"/>
</svg>
