<svg width="20" height="18" viewBox="0 0 20 18" fill="none" xmlns="http://www.w3.org/2000/svg">
<path d="M18.3334 9C18.3334 9 17.7569 10.1098 16.6667 11.3612M8.33341 3.36293C8.60374 3.29852 8.88157 3.24857 9.16675 3.21518C9.43791 3.18344 9.71573 3.16667 10.0001 3.16667C12.3983 3.16667 14.3317 4.35968 15.7302 5.66667M10.0001 6.5C10.2923 6.5 10.5728 6.55013 10.8334 6.64225C11.5438 6.89333 12.1068 7.45632 12.3578 8.16667C12.45 8.42732 12.5001 8.7078 12.5001 9M2.50008 1.5L17.5001 16.5M10.0001 11.5C9.7079 11.5 9.42742 11.4499 9.16677 11.3577C8.45642 11.1067 7.89343 10.5437 7.64236 9.83333C7.59499 9.69932 7.55872 9.56006 7.53467 9.41667M3.45593 6.5C3.19905 6.78709 2.9687 7.06868 2.76561 7.33333C2.04413 8.27353 1.66675 9 1.66675 9C1.66675 9 4.69705 14.8333 10.0001 14.8333C10.2844 14.8333 10.5622 14.8166 10.8334 14.7848" stroke="#8E8E8E" stroke-width="1.5" stroke-linecap="round" stroke-linejoin="round"/>
</svg>
