<svg width="32" height="32" viewBox="0 0 32 32" fill="none" xmlns="http://www.w3.org/2000/svg">
<path d="M20.3315 21.8953C18.6872 22.462 17.9623 21.8333 17.485 20.5761C17.096 19.5756 16.4154 18.6814 16.0795 17.6632C15.5756 16.1492 14.4175 16.282 13.3037 16.4325C11.9689 16.6096 12.6849 17.734 12.5965 18.4246C12.5135 19.3081 12.5135 20.1973 12.5965 21.0808C12.5965 21.7714 12.4374 22.1078 11.6506 22.099C10.8639 22.0901 10.6782 21.7802 10.6871 21.063C10.6871 17.2471 10.6871 13.4311 10.6871 9.61506C10.6871 8.82707 11.023 8.64116 11.7213 8.65886C13.2418 8.65886 14.7711 8.60574 16.2916 8.65886C17.0323 8.62641 17.7629 8.83959 18.3703 9.2654C18.9776 9.69121 19.4277 10.3059 19.6508 11.014C20.137 12.6608 20.1104 14.3961 18.5281 15.5028C17.5469 16.1846 17.6441 16.7247 18.1391 17.6012C18.9082 19.009 19.5801 20.4433 20.3315 21.8953ZM14.9479 10.5181C14.0639 10.7572 12.3932 9.73901 12.5081 12.0941C12.6407 14.9008 12.676 15.0336 15.9291 14.6795C16.3089 14.6569 16.6758 14.5337 16.9924 14.3225C17.309 14.1114 17.564 13.8198 17.7312 13.4776C17.8984 13.1354 17.9719 12.7549 17.9442 12.3749C17.9165 11.995 17.7885 11.6292 17.5734 11.315C16.9634 10.288 15.9645 10.5801 14.9479 10.5181Z" fill="white"/>
<path d="M15.5138 31.3067C12.4236 31.2839 9.40942 30.344 6.85236 28.6058C4.29531 26.8677 2.31011 24.4093 1.14773 21.5414C-0.0146612 18.6735 -0.302075 15.5248 0.321813 12.4934C0.945702 9.4619 2.45287 6.68372 4.65284 4.50999C6.85282 2.33625 9.64684 0.864543 12.6817 0.280859C15.7166 -0.302825 18.8562 0.0277265 21.7036 1.23074C24.5509 2.43375 26.9783 4.45521 28.6789 7.03963C30.3795 9.62404 31.2769 12.6554 31.2578 15.7505C31.2204 19.9015 29.5429 23.8687 26.5924 26.7841C23.6418 29.6994 19.6585 31.3256 15.5138 31.3067ZM15.5669 1.38078C13.6868 1.38062 11.8253 1.75446 10.0907 2.48064C8.35601 3.20682 6.78266 4.27088 5.4619 5.61101C4.14113 6.95115 3.09928 8.54067 2.39683 10.2873C1.69438 12.034 1.34533 13.9031 1.36991 15.7859C1.38746 18.6178 2.24315 21.3808 3.82874 23.7255C5.41433 26.0703 7.65862 27.8914 10.2777 28.9585C12.8967 30.0255 15.7729 30.2907 18.5425 29.7204C21.312 29.1501 23.8505 27.7699 25.8368 25.7545C27.8231 23.7391 29.168 21.1789 29.7014 18.3978C30.2348 15.6168 29.9327 12.7397 28.8333 10.1306C27.734 7.52153 25.8868 5.2976 23.5253 3.74011C21.1639 2.18262 18.3943 1.36157 15.5669 1.38078Z" fill="white"/>
</svg>
