<svg width="11" height="15" viewBox="0 0 11 15" fill="none" xmlns="http://www.w3.org/2000/svg">
<path d="M10.0734 13.8953C8.42919 14.462 7.70429 13.8333 7.22693 12.5761C6.83797 11.5756 6.15733 10.6814 5.82141 9.66318C5.31753 8.14918 4.15949 8.282 3.04565 8.43252C1.71082 8.60959 2.42687 9.73403 2.33847 10.4246C2.25541 11.3081 2.25541 12.1973 2.33847 13.0808C2.33847 13.7714 2.17934 14.1078 1.39259 14.099C0.60583 14.0901 0.420168 13.7802 0.429008 13.063C0.429008 9.24705 0.429008 5.43106 0.429008 1.61506C0.429008 0.827075 0.764911 0.641156 1.46327 0.658864C2.98374 0.658864 4.51309 0.605741 6.03356 0.658864C6.77422 0.626405 7.50487 0.839591 8.11222 1.2654C8.71957 1.69121 9.16967 2.30586 9.39273 3.01398C9.87893 4.66079 9.85239 6.39612 8.27004 7.50285C7.2888 8.18459 7.38604 8.72467 7.88108 9.6012C8.65015 11.009 9.32203 12.4433 10.0734 13.8953ZM4.68987 2.51814C3.80587 2.7572 2.13512 1.73901 2.25004 4.09412C2.38263 6.90078 2.41799 7.0336 5.67109 6.67945C6.0508 6.65686 6.41771 6.5337 6.73432 6.32255C7.05093 6.11139 7.3059 5.8198 7.47313 5.47761C7.64036 5.13543 7.71386 4.7549 7.68614 4.37494C7.65842 3.99497 7.53043 3.62921 7.31531 3.31501C6.70535 2.28797 5.70646 2.58012 4.68987 2.51814Z" fill="white"/>
</svg>
