<svg width="18" height="19" viewBox="0 0 18 19" fill="none" xmlns="http://www.w3.org/2000/svg">
<path d="M14.8264 18C15.9965 18 16.9167 16.9999 16.8195 15.8339L16.1528 7.83391C16.0664 6.79732 15.1999 6 14.1597 6H13M13 6H9M13 6L13 5C13 3.93913 12.5786 2.92172 11.8284 2.17157C11.0783 1.42143 10.0609 1 9 1C7.93913 1 6.92172 1.42143 6.17157 2.17157C5.42143 2.92172 5 3.93913 5 5L5 6M13 6L13 10M5 6H3.84027C2.80009 6 1.93356 6.79732 1.84718 7.83391L1.18051 15.8339C1.08334 16.9999 2.00352 18 3.1736 18H10M5 6L5 10" stroke="#7A4343" stroke-width="1.5" stroke-linecap="round" stroke-linejoin="round"/>
</svg>
