<svg width="99" height="29" viewBox="0 0 99 29" fill="none" xmlns="http://www.w3.org/2000/svg">
<path d="M15.2793 13.9274C16.3848 14.5223 17.4026 15.2695 18.3035 16.1473C18.9507 16.7811 19.4453 17.5557 19.7494 18.4117C20.009 19.2264 20.1371 20.0779 20.1286 20.9336C20.1531 22.0476 19.9215 23.1522 19.4519 24.1612C18.9824 25.1702 18.2876 26.0561 17.4218 26.7499C15.2768 28.3209 12.665 29.11 10.0156 28.9876C9.12489 28.9892 8.23706 28.8848 7.37059 28.6768C6.5418 28.4548 5.76591 28.2239 5.04293 27.9664C4.52273 27.7888 4.02899 27.6379 3.57933 27.5135C3.1689 27.3964 2.74506 27.3337 2.31853 27.3271C2.10954 27.3127 1.89998 27.345 1.70486 27.4217C1.50974 27.4985 1.3339 27.6178 1.18997 27.7711C0.963143 28.0334 0.784055 28.3341 0.660954 28.6591V28.7301H0.27301V19.6815H0.678605V19.7526C0.830893 20.4108 1.02826 21.0576 1.26932 21.6884C1.56778 22.4908 1.93352 23.2661 2.3626 24.006C2.84743 24.8233 3.44069 25.5702 4.12597 26.226C4.86149 26.931 5.71524 27.4992 6.6476 27.9043C7.73689 28.3698 8.91199 28.5968 10.095 28.5703C11.9293 28.6854 13.7446 28.141 15.2176 27.0341C15.8174 26.4966 16.2879 25.8287 16.5934 25.081C16.8989 24.3333 17.0314 23.5254 16.9809 22.7185C17.0199 21.7247 16.7075 20.7492 16.0993 19.9657C15.4188 19.1726 14.5886 18.5237 13.657 18.0565C12.6166 17.5178 11.4263 16.9672 10.0862 16.4048L8.46387 15.6856C6.33375 14.8918 4.36268 13.7188 2.64474 12.2224C2.00893 11.6051 1.50922 10.8599 1.17808 10.0353C0.846933 9.21067 0.691776 8.32513 0.722678 7.43618C0.72859 6.43712 0.960312 5.45255 1.40027 4.55711C1.84024 3.66167 2.47689 2.87885 3.26193 2.2681C5.02578 0.893682 7.20409 0.169703 9.43373 0.216849C10.3076 0.193755 11.1796 0.310663 12.0171 0.563177C12.62 0.763369 13.2091 1.00365 13.7804 1.28244C14.1243 1.45116 14.4417 1.58438 14.7238 1.69094C15.0071 1.79129 15.3052 1.84233 15.6055 1.84188C15.9564 1.88124 16.3098 1.79304 16.6018 1.59322C16.8158 1.37991 16.9812 1.12241 17.0867 0.83845V0.776285H17.4747V7.97784H17.1044V7.90684C15.823 3.0762 13.2602 0.660842 9.41608 0.660842C8.27647 0.619045 7.14329 0.850353 6.10976 1.33572C5.31542 1.72631 4.65303 2.34404 4.20534 3.11169C3.80211 3.78751 3.58877 4.56099 3.58815 5.34944C3.5908 6.08929 3.76278 6.81853 4.09072 7.48057C4.56084 8.30864 5.22342 9.00947 6.02161 9.52293C7.31839 10.3701 8.70914 11.0615 10.1655 11.5831C11.9196 12.2501 13.6279 13.0332 15.2793 13.9274Z" fill="white"/>
<path d="M47.8575 1.01618H44.9568V28.1442H47.8575V28.5704H37.9915V28.1442H40.9363V14.407H28.6897V28.1442H31.7051V28.5704H21.6715V28.1442H24.6869V1.01618H21.6715V0.589905H31.7051V1.01618H28.6897V13.9896H40.9363V1.01618H37.9915V0.589905H47.8575V1.01618Z" fill="white"/>
<path d="M73.1529 4.51476C74.3765 5.85912 75.3341 7.42629 75.9743 9.13224C77.2678 12.6381 77.2678 16.4954 75.9743 20.0012C75.3341 21.7072 74.3765 23.2744 73.1529 24.6187C71.8997 26.0064 70.3667 27.1084 68.6563 27.851C66.9207 28.5886 65.056 28.9686 63.1722 28.9686C61.2885 28.9686 59.4238 28.5886 57.6882 27.851C55.9789 27.102 54.4442 26.001 53.1828 24.6187C51.9592 23.2744 51.0016 21.7072 50.3614 20.0012C49.0679 16.4954 49.0679 12.6381 50.3614 9.13224C51.0016 7.42629 51.9592 5.85912 53.1828 4.51476C54.4445 3.13513 55.9793 2.03707 57.6882 1.29136C59.4266 0.558913 61.2922 0.181702 63.1767 0.181702C65.0611 0.181702 66.9267 0.558913 68.6651 1.29136C70.3712 2.03292 71.9011 3.13173 73.1529 4.51476ZM53.6236 14.5401C53.6236 16.2282 53.7919 17.9119 54.1262 19.5661C54.4295 21.1431 54.9769 22.6623 55.7485 24.0682C56.4606 25.3668 57.4739 26.4727 58.7021 27.2916C60.0593 28.0828 61.5997 28.4995 63.1679 28.4995C64.736 28.4995 66.2764 28.0828 67.6336 27.2916C68.8643 26.473 69.8806 25.3672 70.596 24.0682C71.3667 22.661 71.9169 21.1424 72.2272 19.5661C72.5643 17.9122 72.7356 16.2285 72.7385 14.5401C72.7385 13.8652 72.6944 13.0217 72.5975 12.0005C72.4954 10.9079 72.3127 9.82452 72.0508 8.7593C71.7696 7.59615 71.3553 6.46979 70.8165 5.40274C69.1236 2.18823 66.5726 0.580981 63.1634 0.580981C59.7543 0.580981 57.215 2.18823 55.5457 5.40274C55.0068 6.46979 54.5926 7.59615 54.3113 8.7593C54.0468 9.82437 53.8612 10.9077 53.7559 12.0005C53.6853 13.0483 53.6236 13.8919 53.6236 14.5401Z" fill="white"/>
<path d="M88.0537 0.589905C91.5804 0.589905 94.2255 1.24706 96.0682 2.57904C96.9739 3.22171 97.7035 4.08465 98.1891 5.08761C98.6747 6.09057 98.9005 7.20093 98.8455 8.3154C98.8966 9.41425 98.6827 10.5092 98.2221 11.5067C97.7615 12.5041 97.0678 13.3743 96.2004 14.0429C94.437 15.4015 91.9595 16.0764 88.759 16.0764H85.1882V28.1442H88.0096V28.5704H78.4786V28.1442H81.1765V1.01618H78.4786V0.589905H88.0537ZM94.6487 8.3154C94.6512 7.42269 94.5775 6.53141 94.4283 5.65144C94.3016 4.81342 94.0012 4.01167 93.5466 3.29831C93.0589 2.56435 92.3739 1.98532 91.5716 1.62889C90.4737 1.1762 89.2919 0.96721 88.1066 1.01618H85.2058V15.6502H88.662C89.7634 15.6993 90.8598 15.4736 91.8537 14.9931C92.5934 14.5769 93.2039 13.9621 93.6171 13.2171C94.0263 12.4829 94.2983 11.6793 94.4194 10.8462C94.5624 10.013 94.639 9.16972 94.6487 8.32429V8.3154Z" fill="white"/>
</svg>
