<svg width="262" height="103" viewBox="0 0 262 103" fill="none" xmlns="http://www.w3.org/2000/svg">
<path d="M180.15 30.8042C181.543 30.8576 183.042 30.5908 184.303 31.0266C187.133 32.0137 189.593 30.5819 192.238 30.244C196.338 29.7193 200.173 30.075 202.651 34.2547C206.398 29.1679 211.564 29.1324 216.996 30.0839C219.038 30.5243 220.872 31.6475 222.202 33.2714C223.532 34.8952 224.279 36.9245 224.322 39.0302C224.102 46.3758 224.322 53.7303 224.366 61.0848C224.366 63.8297 224.352 66.5777 224.322 69.3286C224.322 79.1286 224.29 88.9257 224.225 98.7198C224.225 99.7069 224.649 99.9381 225.486 99.8759C225.927 99.8759 226.368 99.8759 226.817 99.8759C227.77 99.778 227.981 100.24 227.999 101.121C228.017 102.001 227.452 102.081 226.782 102.072C223.158 102.072 219.535 102.01 215.92 102.072C214.403 102.072 214.712 101.183 214.712 100.294C214.712 89.6578 214.712 79.0248 214.712 68.3948C214.712 67.63 214.633 66.8652 214.597 66.1004C214.597 62.3239 214.597 58.5414 214.597 54.753C214.633 49.1326 214.668 43.5152 214.703 37.9008C214.703 35.393 213.821 34.0235 211.758 33.4099C210.074 32.903 206.116 34.148 205.348 35.4464C205.231 35.6675 205.173 35.9159 205.181 36.1667C205.216 40.3167 205.257 44.4668 205.304 48.6168V54.922C205.132 55.7669 205.132 56.6382 205.304 57.4831C205.146 59.3324 205.146 61.192 205.304 63.0412C205.26 65.8514 205.181 68.6705 205.181 71.4806C205.181 80.009 205.225 88.5373 205.128 97.0568C205.128 98.951 205.437 99.9826 207.553 99.5824C208.646 99.369 208.919 99.9114 208.937 100.979C208.955 102.046 208.364 102.179 207.509 102.17C204.079 102.17 200.649 102.081 197.219 102.17C195.712 102.224 195.456 101.681 195.456 100.312C195.518 87.3635 195.5 74.4153 195.5 61.4672C195.5 60.7024 195.412 59.9376 195.368 59.1728C195.531 57.3089 195.531 55.4341 195.368 53.5702C195.581 51.7075 195.56 49.8251 195.306 47.9676C195.51 45.8541 195.534 43.7268 195.377 41.6092C195.377 39.5994 196.029 37.4917 195.015 35.6242C193.296 32.4494 189.425 32.2627 186.075 35.064C185.087 37.056 185.837 39.1636 185.669 41.209C185.508 44.0292 185.522 46.8568 185.713 49.6751V55.2154C185.713 59.2439 185.625 63.2813 185.616 67.3098C185.616 77.1751 185.616 87.0344 185.616 96.8878C185.616 99.5557 185.616 99.5557 188.217 99.5557C189.099 99.5557 189.981 99.2711 189.937 100.792C189.893 101.912 189.549 102.179 188.508 102.17C183.553 102.117 178.607 102.126 173.652 102.17C172.629 102.17 172.232 101.948 172.206 100.81C172.206 99.529 172.832 99.4401 173.731 99.5735C175.265 99.8047 175.759 99.28 175.75 97.6259C175.689 82.5079 175.75 67.3899 175.706 52.2718C175.706 51.6315 175.627 51.0001 175.583 50.3599C175.583 48.4745 175.583 46.5893 175.583 44.7039C175.583 41.6359 175.583 38.55 175.715 35.4908C175.812 33.6144 175.186 32.983 173.343 33.0808C171.033 33.1964 170.972 33.0097 171.668 30.7509L180.15 30.8042Z" fill="#7A4343"/>
<path d="M18.9692 53.5881C18.9692 39.6796 18.9692 25.771 19.0221 11.8624C19.0221 9.98595 18.546 9.36346 16.7385 9.63025C15.61 9.79032 14.4638 9.9504 14.596 8.02063C14.6842 6.74004 15.0192 6.43766 16.236 6.44655C21.8258 6.5088 27.4157 6.49991 32.988 6.44655C34.1518 6.44655 34.6544 6.64222 34.6455 7.99395C34.6367 9.34568 34.2135 9.71027 32.8822 9.6747C30.2371 9.59467 30.2371 9.67472 30.2371 12.3871C30.2371 38.147 30.2077 63.9099 30.1489 89.6758C30.1489 97.3504 26.6927 101.539 19.0662 102.66C14.9607 103.389 10.7313 102.766 7.00473 100.881C2.51695 98.4976 -0.119285 94.9048 0.00415103 89.5157C0.11877 84.6513 0.0746858 79.7779 0.00415103 74.9046C0.00415103 73.5528 0.383278 73.126 1.71462 73.1971C4.13044 73.3038 6.54625 73.3038 8.96207 73.1971C10.3022 73.1349 10.6637 73.5528 10.6461 74.8957C10.5755 81.6276 10.602 88.3596 10.6461 95.0916C10.6461 98.3553 12.912 100.73 15.7334 100.507C16.6064 100.527 17.4546 100.214 18.1085 99.6306C18.7624 99.0469 19.1737 98.2357 19.2601 97.3593C19.3691 96.5997 19.4163 95.8323 19.4012 95.0649C19.4012 81.2215 19.4012 67.3811 19.4012 53.5437L18.9692 53.5881Z" fill="#7A4343"/>
<path d="M139.028 44.3574C139.028 41.5383 139.134 38.7282 139.072 35.9091C139.122 35.0355 138.833 34.1766 138.268 33.5131C137.702 32.8497 136.903 32.4334 136.039 32.3519C133.676 32.1563 132.019 33.179 131.534 35.251C131.322 36.2507 131.216 37.2701 131.216 38.2924C131.216 42.5166 131.164 46.7407 131.216 50.9649C131.216 52.1387 130.926 52.5034 129.735 52.45C127.205 52.3344 124.666 52.3433 122.126 52.3611C121.245 52.3611 120.76 52.2099 120.777 51.1161C120.839 47.4077 120.68 43.6816 120.839 39.9821C121.033 35.2332 125.618 30.7779 130.749 30.0842C131.19 30.0309 131.631 30.0131 132.081 29.9775L137.371 29.9063C138.367 30.0308 139.372 30.0753 140.351 30.2887C145.209 31.3826 147.836 34.673 149.027 39.3596C149.027 58.6306 149.115 77.9105 149.071 97.1638C149.071 99.0936 149.503 99.8317 151.46 99.5738C152.148 99.4849 153.338 98.978 153.329 100.614C153.329 101.619 153.188 102.082 152.015 102.055C148.489 101.975 144.9 102.055 141.347 102.055C139.011 102.055 139.011 102.055 138.773 99.7517C137.626 100.054 136.903 101.006 135.951 101.53C132.239 103.629 128.474 103.362 124.86 101.477C121.483 99.6983 119.896 96.6302 119.816 92.8329C119.737 89.1868 119.816 85.5318 119.816 81.8857C119.816 81.1832 119.772 80.4806 119.746 79.7781V75.5806C119.825 74.8186 119.851 74.0519 119.825 73.2862C119.667 70.7109 120.375 68.1571 121.837 66.0392C123.298 63.9213 125.426 62.3635 127.875 61.6186C128.107 61.5277 128.333 61.4238 128.554 61.3074L133.482 60.845C134.999 60.8894 136.524 60.8983 138.041 60.9872C139.011 61.0406 139.205 60.5782 139.178 59.7244C139.116 57.5457 139.116 55.3669 139.099 53.197L139.028 44.3574ZM139.108 79.6713C139.108 74.7357 139.055 69.8002 139.108 64.8735C139.108 63.504 138.64 63.1571 137.397 63.0949C132.989 62.7836 130.599 64.9268 130.555 69.7379C130.485 78.453 130.423 87.1681 131.075 95.8654C131.225 97.8841 132.169 98.8535 134.161 99.0047C137.097 99.2359 138.993 97.5284 139.09 94.4959C139.352 89.5581 139.358 84.6098 139.108 79.6713Z" fill="#7A4343"/>
<path d="M231.993 65.3359C232.196 57.3323 232.504 49.3286 232.549 41.3249C232.498 39.6524 232.887 37.9961 233.677 36.5246C234.466 35.0531 235.629 33.819 237.045 32.9478C239.61 31.1935 242.579 30.1339 245.667 29.8707C248.755 29.6075 251.858 30.1496 254.679 31.4449C259.44 33.5169 261.812 37.6699 261.865 42.9346C261.944 50.627 261.865 58.3194 261.926 66.0029C261.926 67.577 261.459 67.8971 260.013 67.8793C254.723 67.7904 249.433 67.8793 244.196 67.8793C241.365 67.8793 241.357 67.8793 241.551 70.6628C241.601 71.0413 241.677 71.4158 241.78 71.7833C241.78 72.477 241.78 73.1795 241.78 73.8732C241.514 74.4602 241.437 75.1163 241.559 75.7496C241.559 81.9035 241.559 88.0575 241.559 94.2114C241.519 95.4242 241.716 96.6332 242.141 97.7686C243.085 100.125 244.874 101.272 246.991 100.872C248.088 100.67 249.085 100.098 249.819 99.2499C250.552 98.4018 250.979 97.3278 251.029 96.2034C251.231 91.1433 251.461 86.0921 251.602 81.032C251.602 79.9471 251.963 79.6269 253.03 79.6536C255.569 79.7247 258.109 79.6536 260.648 79.6536C261.283 79.6536 261.944 79.5558 261.935 80.5429C261.882 84.1001 262.2 87.764 261.776 91.2945C260.956 98.2221 256.107 102.286 248.675 102.775C246.332 102.987 243.97 102.813 241.683 102.26C235.511 100.632 231.543 95.4475 231.499 88.6266C231.499 83.9489 231.72 79.2712 231.817 74.6024C231.817 73.4463 231.817 72.2991 231.773 71.143C231.773 69.3111 231.796 67.4791 231.843 65.6472L232.072 65.3359H231.993ZM251.461 50.3157H251.655C251.655 46.0916 251.655 41.8585 251.655 37.6344C251.655 34.3084 249.468 31.9962 246.461 31.9518C243.455 31.9073 241.074 34.2195 241.057 37.6166C241.057 46.2072 241.057 54.7889 241.057 63.4062C241.057 64.5445 241.445 64.7935 242.476 64.7668C244.945 64.6957 247.431 64.6512 249.9 64.7668C251.328 64.8468 251.575 64.2599 251.566 62.9882C251.425 58.7729 251.461 54.5488 251.461 50.3157Z" fill="#7A4343"/>
<path d="M38.4545 64.4287C38.4545 56.9942 38.4545 49.5686 38.4545 42.1341C38.4985 36.4515 41.3288 32.5564 46.7511 30.9645C50.8245 29.7729 54.9949 29.4171 59.0947 30.7956C61.6252 31.632 63.8279 33.2555 65.3866 35.4332C66.9453 37.6109 67.7799 40.2308 67.7705 42.9167C67.7705 50.5379 67.7264 58.1681 67.8145 65.7894C67.8145 67.399 67.5589 67.977 65.7867 67.9326C60.1968 67.7903 54.6069 67.9326 49.0347 67.8525C47.7827 67.8525 47.43 68.1905 47.4388 69.4622C47.4917 77.9194 47.4388 86.3588 47.4388 94.8338C47.4234 95.7959 47.5879 96.7522 47.9237 97.6528C48.8583 100.045 50.5688 101.21 52.6937 100.899C53.8304 100.724 54.8712 100.155 55.6371 99.29C56.403 98.425 56.8462 97.3178 56.8905 96.1588C57.0933 91.161 57.3049 86.172 57.4283 81.1742C57.4283 80.0537 57.6664 79.6001 58.9007 79.6535C61.44 79.7602 63.9792 79.6535 66.5185 79.6535C67.1621 79.6535 67.7969 79.5557 67.7793 80.5428C67.7264 84.1 68.0526 87.7639 67.6382 91.3033C66.8359 98.1686 61.9337 102.277 54.5099 102.766C52.1671 102.982 49.805 102.808 47.5182 102.251C41.1612 100.561 37.2289 95.2429 37.2995 88.0218C37.3876 80.1426 37.6874 72.2634 37.899 64.3932L38.4545 64.4287ZM46.8657 50.4846C46.8657 54.6554 46.9451 58.8262 46.8657 62.9881C46.8217 64.491 47.3066 64.8111 48.682 64.7667C51.0273 64.6511 53.3902 64.6511 55.7355 64.7667C57.1021 64.8289 57.4195 64.3754 57.4195 63.0503C57.4195 54.7176 57.4812 46.3849 57.5077 38.0522C57.5077 34.3883 55.4974 32.0317 52.3498 31.9694C49.2022 31.9072 46.9274 34.2994 46.9098 38.0078C46.8481 42.1519 46.8657 46.3227 46.8657 50.4846Z" fill="#7A4343"/>
<path d="M98.603 6.53543C98.603 14.1211 98.6559 21.4222 98.5589 28.7678C98.5589 30.3597 98.9292 30.9466 100.543 30.7687C101.795 30.6354 103.082 30.7687 104.352 30.7687C105.374 30.7687 106.115 30.7154 106.115 32.2272C106.115 33.739 105.392 33.6856 104.352 33.659C102.959 33.6145 101.548 33.739 100.164 33.6145C98.7793 33.49 98.4531 33.9524 98.4531 35.2864C98.4531 43.0411 98.3473 50.7957 98.268 58.5504C98.1563 70.6033 98.0328 82.6503 97.8976 94.6914C97.8976 98.3464 99.1673 99.6092 102.747 99.6803C103.741 99.5779 104.742 99.5779 105.736 99.6803C106.811 99.9204 106.785 100.463 106.811 101.263C106.811 102.304 106.168 102.153 105.542 102.153C102.897 102.09 100.181 102.49 97.5626 101.966C91.3115 100.712 87.6172 95.9631 87.5996 89.3022C87.5996 75.3936 87.5996 61.485 87.5996 47.5764C87.5996 43.539 87.5114 39.5016 87.6437 35.4731C87.6878 33.8813 87.1499 33.5789 85.7304 33.5878C84.9633 33.5878 83.6849 34.406 83.3763 32.9564C83.1118 31.7203 83.1294 30.6087 85.078 30.7421C87.5908 30.911 87.5996 30.7421 87.5996 28.2521C87.5996 23.192 87.5996 18.1318 87.5996 13.0629C87.5357 12.5995 87.6409 12.1286 87.8955 11.7377C88.1501 11.3467 88.5369 11.0623 88.9838 10.9375C92.1667 9.4879 95.3143 8.02056 98.603 6.53543Z" fill="#7A4343"/>
<path d="M162.036 30.6311C163.445 30.6843 162.036 30.6312 166.29 30.6311C167.844 30.631 167.844 30.6311 167.844 30.6311C167.571 32.5283 167.786 38.9664 167.616 41.0059C167.453 43.818 167.468 46.6376 167.661 49.4478V54.9722C167.661 58.9891 167.572 63.0151 167.563 67.032C167.563 76.8689 167.563 86.7001 167.563 96.5252C167.563 99.1854 167.563 99.1855 170.192 99.1855C171.084 99.1855 171.975 98.9017 171.93 100.418C171.886 101.535 171.538 101.801 170.486 101.793C165.477 101.739 160.476 101.748 155.467 101.793C154.433 101.793 154.032 101.571 154.005 100.436C154.005 99.1589 154.638 99.0702 155.547 99.2032C157.098 99.4337 157.597 98.9105 157.588 97.2612C157.526 82.1867 157.588 67.1116 157.544 52.037C157.544 51.3986 157.464 50.769 157.419 50.1305C157.419 48.2507 157.419 46.3707 157.419 44.4909C157.419 41.4316 157.419 38.3546 157.553 35.3042C157.651 33.4332 157.018 32.8036 155.155 32.9011C152.82 33.0164 152.757 32.8302 153.461 30.5779L162.036 30.6311Z" fill="#7A4343"/>
<path d="M159.615 24.8905C158.682 24.7873 157.741 24.7635 156.803 24.8194C155.04 25.0506 154.608 24.2947 154.766 22.6762C154.837 21.4767 154.837 20.274 154.766 19.0745C154.766 18.3809 154.766 17.6783 154.705 16.9847V10.315C154.537 8.53637 155.26 7.91388 157.05 8.1362C158.547 8.23836 160.049 8.23836 161.546 8.1362C163.151 8.42967 165.364 7.43365 166.237 8.59862C167.11 9.7636 166.493 11.7912 166.546 13.4364C166.546 14.0144 166.546 14.5925 166.607 15.1616C166.435 16.8944 166.435 18.6401 166.607 20.3729C166.607 20.942 166.537 21.5112 166.537 22.0804C166.537 24.7482 166.537 24.7482 164.05 24.935C162.58 24.7327 161.09 24.7178 159.615 24.8905Z" fill="#7A4343"/>
<path d="M118.67 10.0928C118.256 12.0403 117.85 13.9879 117.436 15.9444C117.074 17.0184 116.779 18.1144 116.554 19.2258C116.351 20.5953 115.672 20.9066 114.394 20.8533C112.877 20.7821 113.353 19.7149 113.257 18.9502C112.974 16.7536 113.45 14.5037 112.789 12.3427C112.789 10.1461 112.728 7.95847 112.692 5.77081C112.639 4.30347 112.639 2.82724 112.498 1.32433C112.41 0.328314 112.613 -0.116354 113.697 0.0259333C115.769 0.301615 117.85 0.541724 119.94 0.719583C120.821 0.79962 120.751 1.15535 120.574 1.84011C119.922 4.61471 119.314 7.34485 118.67 10.0928Z" fill="#7A4343"/>
</svg>
