<svg width="49" height="16" viewBox="0 0 49 16" fill="none" xmlns="http://www.w3.org/2000/svg">
<path fill-rule="evenodd" clip-rule="evenodd" d="M12.2505 15.6974H8.00987L4.82991 3.56565C4.67897 3.00759 4.3585 2.51424 3.88708 2.28171C2.71062 1.69737 1.41424 1.23231 0 0.997768V0.530695H6.83134C7.77417 0.530695 8.48129 1.23231 8.59914 2.04716L10.2491 10.7982L14.4877 0.530695H18.6104L12.2505 15.6974ZM20.9675 15.6974H16.9626L20.2604 0.530695H24.2653L20.9675 15.6974ZM29.4467 4.73234C29.5646 3.91546 30.2717 3.44839 31.0967 3.44839C32.3931 3.33112 33.8052 3.56567 34.9838 4.14799L35.6909 0.882528C34.5123 0.415455 33.216 0.180908 32.0395 0.180908C28.1524 0.180908 25.3239 2.28172 25.3239 5.19739C25.3239 7.41547 27.3274 8.58012 28.7417 9.28174C30.2717 9.98134 30.861 10.4484 30.7431 11.148C30.7431 12.1974 29.5646 12.6645 28.3881 12.6645C26.9739 12.6645 25.5596 12.3147 24.2653 11.7303L23.5582 14.9978C24.9724 15.5801 26.5025 15.8147 27.9167 15.8147C32.2752 15.9299 34.9838 13.8311 34.9838 10.6809C34.9838 6.71385 29.4467 6.48133 29.4467 4.73234ZM49 15.6974L45.82 0.530695H42.4044C41.6972 0.530695 40.9901 0.997768 40.7544 1.69737L34.8659 15.6974H38.9887L39.8116 13.4813H44.8772L45.3486 15.6974H49ZM42.9936 4.61507L44.1701 10.3311H40.8723L42.9936 4.61507Z" fill="white"/>
</svg>
