<svg width="382" height="248" viewBox="0 0 382 248" fill="none" xmlns="http://www.w3.org/2000/svg">
<g clip-path="url(#clip0_130_608)">
<path d="M12.1067 190.339C13.9998 170.992 25.4419 151.68 43.6476 144.924C36.9202 164.963 37.4888 186.738 45.2528 206.397C48.2745 213.967 52.4227 222.073 49.9683 229.847C48.4412 234.684 44.4954 238.457 40.0379 240.868C35.58 243.28 30.5949 244.503 25.6719 245.704L24.7186 246.536C16.3965 228.973 10.2136 209.686 12.1067 190.339Z" fill="#BBBBBB"/>
<path d="M43.8393 145.284C33.5601 157.432 27.0904 172.946 25.9592 188.851C25.7146 192.289 25.7655 195.799 26.6023 199.16C27.4432 202.43 29.1433 205.415 31.526 207.804C33.7029 210.077 36.1925 212.15 37.7797 214.913C39.4527 217.825 39.6014 221.18 38.5905 224.346C37.3536 228.22 34.8001 231.418 32.1945 234.459C29.3014 237.835 26.243 241.295 25.0906 245.701C24.9509 246.235 24.1319 245.986 24.2713 245.453C26.2763 237.789 33.5395 233.275 36.8785 226.331C38.4366 223.091 39.0288 219.361 37.4022 216.027C35.9799 213.11 33.4144 210.971 31.1903 208.689C28.855 206.293 27.0434 203.644 26.0615 200.416C25.0572 197.114 24.8692 193.599 25.0249 190.17C25.4359 182.395 27.0652 174.733 29.8533 167.465C32.9893 159.153 37.5224 151.439 43.2566 144.657C43.6116 144.237 44.1921 144.867 43.8393 145.284Z" fill="white"/>
<path d="M26.0547 183.662C23.3946 183.088 21.0247 181.586 19.3683 179.425C17.712 177.263 16.8769 174.583 17.0123 171.862C17.0188 171.751 17.0681 171.647 17.1497 171.572C17.2314 171.496 17.339 171.456 17.45 171.458C17.5609 171.461 17.6665 171.507 17.7445 171.586C17.8224 171.665 17.8667 171.771 17.868 171.882C17.7372 174.416 18.5153 176.913 20.0619 178.922C21.6084 180.932 23.8215 182.322 26.3017 182.841C26.8405 182.955 26.5904 183.774 26.0547 183.662Z" fill="white"/>
<path d="M30.271 206.798C34.9709 203.819 38.3767 199.176 39.8094 193.794C39.9509 193.261 40.7701 193.509 40.6287 194.042C39.1274 199.639 35.5733 204.463 30.6756 207.552C30.2086 207.847 29.8065 207.09 30.271 206.798Z" fill="white"/>
<path d="M33.804 159.943C34.7871 160.38 35.8631 160.565 36.9353 160.483C38.0076 160.4 39.0426 160.052 39.9474 159.47C40.4105 159.17 40.8121 159.927 40.3521 160.225C39.3494 160.864 38.2059 161.246 37.0214 161.34C35.8369 161.434 34.6474 161.236 33.557 160.764C33.4504 160.728 33.3616 160.653 33.3084 160.553C33.2553 160.454 33.2418 160.339 33.2708 160.23C33.3041 160.121 33.3787 160.03 33.4786 159.977C33.5784 159.923 33.6954 159.911 33.804 159.943Z" fill="white"/>
<path d="M100.536 177.907C100.252 178.103 99.9687 178.298 99.6847 178.501C95.8824 181.149 92.3013 184.102 88.9767 187.33C88.7157 187.576 88.4549 187.829 88.2015 188.081C80.2746 195.945 73.8748 205.214 69.3274 215.418C67.5216 219.479 66.0271 223.673 64.8568 227.961C63.2409 233.885 61.9594 240.435 58.583 245.334C58.2364 245.849 57.8584 246.342 57.451 246.81L25.8067 247.636C25.7339 247.602 25.6608 247.575 25.5876 247.541L24.3257 247.631C24.3706 247.406 24.4221 247.173 24.467 246.948C24.4925 246.817 24.5251 246.686 24.5506 246.555C24.5698 246.468 24.5894 246.38 24.6018 246.3C24.6081 246.271 24.6148 246.242 24.6212 246.22C24.6336 246.14 24.6536 246.068 24.6662 245.995C24.9501 244.693 25.2437 243.39 25.5469 242.088C25.5467 242.08 25.5467 242.08 25.5535 242.073C27.8891 232.153 31.0724 222.34 35.6419 213.324C35.7795 213.053 35.9165 212.774 36.0685 212.503C38.1508 208.45 40.5604 204.574 43.2733 200.915C44.7652 198.915 46.3573 196.993 48.0433 195.155C52.409 190.414 57.4923 186.391 63.1067 183.232C74.3001 176.936 87.38 174.294 99.6048 177.642C99.9175 177.728 100.223 177.814 100.536 177.907Z" fill="#BBBBBB"/>
<path d="M100.475 178.311C84.9633 181.814 70.4684 190.301 60.0012 202.318C57.7382 204.916 55.6685 207.749 54.3155 210.937C53.0205 214.055 52.5831 217.463 53.0486 220.807C53.42 223.934 54.1616 227.09 53.7674 230.253C53.3519 233.587 51.4533 236.355 48.7421 238.274C45.4249 240.621 41.463 241.635 37.5542 242.492C33.2142 243.444 28.6912 244.363 25.1219 247.186C24.6894 247.528 24.1846 246.836 24.6165 246.495C30.8265 241.584 39.34 242.358 46.1815 238.827C49.3739 237.179 52.0896 234.558 52.7962 230.915C53.4141 227.729 52.6521 224.474 52.2486 221.311C51.825 217.99 51.9713 214.783 53.1283 211.614C54.3118 208.373 56.2754 205.453 58.4621 202.808C63.4654 196.848 69.3735 191.713 75.9701 187.591C83.4726 182.844 91.7309 179.417 100.388 177.459C100.923 177.338 101.008 178.191 100.475 178.311Z" fill="white"/>
<path d="M63.1977 198.232C61.4187 196.171 60.4294 193.543 60.4067 190.819C60.3839 188.095 61.3291 185.451 63.0734 183.36C63.4278 182.938 64.0992 183.47 63.7443 183.892C62.1164 185.836 61.2362 188.299 61.2626 190.836C61.289 193.373 62.2202 195.817 63.8882 197.726C64.2502 198.142 63.5576 198.646 63.1977 198.232Z" fill="white"/>
<path d="M52.652 219.247C58.1958 219.702 63.7072 218.048 68.0871 214.614C68.5207 214.274 69.0256 214.966 68.5925 215.306C64.028 218.87 58.2891 220.579 52.5211 220.094C51.9714 220.047 52.1052 219.2 52.652 219.247Z" fill="white"/>
<path d="M83.6481 183.966C84.1704 184.908 84.9181 185.704 85.8239 186.285C86.7298 186.865 87.7654 187.211 88.8378 187.292C89.3879 187.332 89.2534 188.178 88.707 188.139C87.5225 188.044 86.3792 187.66 85.377 187.021C84.3748 186.382 83.5441 185.507 82.9576 184.473C82.8941 184.38 82.8684 184.266 82.8856 184.155C82.9028 184.044 82.9616 183.943 83.0501 183.874C83.1419 183.807 83.2562 183.78 83.3681 183.797C83.4801 183.814 83.5807 183.875 83.6481 183.966Z" fill="white"/>
<path d="M286.26 16.9749C285.787 15.5781 279.863 10.83 283.493 10.0319L286.47 14.0068L300.159 0.301758L301.536 1.68016L286.26 16.9749Z" fill="#7A4343"/>
<path d="M286.26 63.5777C285.787 62.1809 279.863 57.4328 283.493 56.6347L286.47 60.6095L300.159 46.9045L301.536 48.2829L286.26 63.5777Z" fill="#7A4343"/>
<path d="M286.26 110.846C285.787 109.449 279.863 104.701 283.493 103.903L286.47 107.878L300.159 94.1731L301.536 95.5515L286.26 110.846Z" fill="#7A4343"/>
<path d="M273.655 72.6307C275.988 72.6307 277.879 70.7372 277.879 68.4015C277.879 66.0658 275.988 64.1724 273.655 64.1724C271.322 64.1724 269.431 66.0658 269.431 68.4015C269.431 70.7372 271.322 72.6307 273.655 72.6307Z" fill="#1F1F1F"/>
<path d="M273.655 26.533C275.988 26.533 277.879 24.6396 277.879 22.3039C277.879 19.9682 275.988 18.0747 273.655 18.0747C271.322 18.0747 269.431 19.9682 269.431 22.3039C269.431 24.6396 271.322 26.533 273.655 26.533Z" fill="#1F1F1F"/>
<path d="M382 12.5767H313.994V13.4225H382V12.5767Z" fill="#1F1F1F"/>
<path d="M275.767 121.771C278.1 121.771 279.991 119.878 279.991 117.542C279.991 115.206 278.1 113.313 275.767 113.313C273.434 113.313 271.543 115.206 271.543 117.542C271.543 119.878 273.434 121.771 275.767 121.771Z" fill="#1F1F1F"/>
<path d="M382 59.1794H313.994V60.0253H382V59.1794Z" fill="#1F1F1F"/>
<path d="M382 106.448H313.994V107.294H382V106.448Z" fill="#1F1F1F"/>
<path d="M296.928 117.148H275.809V95.5789H290.17V96.4247H276.653V116.302H296.084V106.575H296.928V117.148Z" fill="#1F1F1F"/>
<path d="M296.928 69.7811H275.809V48.2124H290.17V49.0582H276.653V68.9353H296.084V59.2082H296.928V69.7811Z" fill="#1F1F1F"/>
<path d="M296.928 21.5687H275.809V0H290.17V0.845831H276.653V20.7229H296.084V10.9958H296.928V21.5687Z" fill="#1F1F1F"/>
<path d="M159.034 76.8741C159.034 76.8741 153.39 100.735 160.289 100.735C167.188 100.735 183.494 73.7344 183.494 73.7344L177.849 66.8271L167.718 80.9102L167.188 73.7344L159.034 76.8741Z" fill="#D4B1B1"/>
<path d="M181.99 74.7717C185.022 74.7717 187.481 72.3102 187.481 69.2738C187.481 66.2374 185.022 63.7759 181.99 63.7759C178.957 63.7759 176.499 66.2374 176.499 69.2738C176.499 72.3102 178.957 74.7717 181.99 74.7717Z" fill="#D4B1B1"/>
<path d="M154.249 239.39L161.558 239.39L165.035 211.162L154.247 211.163L154.249 239.39Z" fill="#D4B1B1"/>
<path d="M153.992 247.025L176.469 247.024V246.739C176.468 244.416 175.547 242.188 173.906 240.546C172.265 238.903 170.04 237.98 167.72 237.98H167.719L163.614 234.861L155.953 237.98L153.991 237.98L153.992 247.025Z" fill="#1F1F1F"/>
<path d="M75.625 230.26L82.165 233.528L97.8663 209.825L88.2137 205.002L75.625 230.26Z" fill="#D4B1B1"/>
<path d="M71.9897 236.976L92.1014 247.025L92.2284 246.77C93.2644 244.691 93.4333 242.286 92.6979 240.083C91.9626 237.879 90.3833 236.059 88.3073 235.021L88.3068 235.021L86.0242 230.395L77.7789 229.761L76.0233 228.883L71.9897 236.976Z" fill="#1F1F1F"/>
<path d="M240.703 247.052H0V248H240.703V247.052Z" fill="#BBBBBB"/>
<path d="M106.992 120.162C106.992 120.162 104.071 155.327 103.444 162.862C103.014 167.585 101.96 172.231 100.308 176.676C100.308 176.676 99.0541 179.188 99.0541 181.7L84.8384 207.567C84.8384 207.567 80.4944 210.764 81.1215 213.276C81.7487 215.788 78.5024 217.294 78.5024 217.294L93.4729 220.183C93.4729 220.183 92.8457 218.299 94.7272 217.671C96.6087 217.043 98.1064 211.597 98.1064 211.597L119.123 177.304L134.175 145.908C134.175 145.908 142.955 174.165 144.837 177.304C144.837 177.304 151.736 212.469 152.99 215.608C154.244 218.748 154.872 218.748 154.244 220.004C153.617 221.26 153.617 222.516 154.244 223.143C154.872 223.771 166.788 223.143 166.788 223.143L163.652 178.56L158.007 125.186L129.158 116.395L106.992 120.162Z" fill="#1F1F1F"/>
<path d="M135.238 36.2149C142.512 36.2149 148.408 30.3111 148.408 23.0284C148.408 15.7456 142.512 9.8418 135.238 9.8418C127.964 9.8418 122.067 15.7456 122.067 23.0284C122.067 30.3111 127.964 36.2149 135.238 36.2149Z" fill="#D4B1B1"/>
<path d="M159.262 55.4856L143.583 45.9749C143.583 45.9749 143.148 40.0689 138.681 39.791C136.439 39.6515 133.073 39.4382 128.022 39.1122C126.955 39.0433 126.235 44.8902 125.011 44.8108L108.461 49.2063L110.97 91.9057C110.97 91.9057 107.207 108.86 108.461 111.999C109.716 115.139 105.326 116.395 106.58 117.023C107.834 117.651 106.58 122.046 106.58 122.046C106.58 122.046 131.039 134.605 158.007 125.186L155.499 117.023C155.84 115.956 155.904 114.819 155.685 113.72C155.465 112.622 154.969 111.597 154.244 110.744C154.244 110.744 156.753 106.976 153.617 103.836C153.617 103.836 154.871 98.185 151.736 95.6733L151.108 86.8822L152.99 82.4867L159.262 55.4856Z" fill="#D2D2D2"/>
<path d="M123.809 30.5616L123.441 29.7055C123.394 29.5948 118.736 18.5705 122.864 11.7704C124.775 8.62226 128.251 6.8449 133.193 6.48807C140.926 5.92824 146.218 7.76485 148.927 11.943C149.382 12.6511 149.637 13.4687 149.667 14.3098C149.696 15.1509 149.499 15.9844 149.095 16.7227C148.692 17.461 148.097 18.0769 147.374 18.5055C146.65 18.9341 145.825 19.1596 144.984 19.1584H144.88L143.46 17.3112L143.377 17.4909C142.862 18.6052 141.681 19.2152 140.297 19.0816C140.062 19.0646 139.853 19.268 139.686 19.7033C139.63 19.8938 139.523 20.0655 139.378 20.2005C139.232 20.3355 139.053 20.4287 138.859 20.4705C137.837 20.6698 136.379 19.3804 135.727 18.7378C135.702 18.8857 135.645 19.0264 135.561 19.1505C135.477 19.2747 135.367 19.3792 135.239 19.4572C134.552 19.8543 133.482 19.3356 133.175 19.1704C130.728 19.6908 129.145 19.5516 128.467 18.7572C128.007 22.0151 127.019 27.8794 125.836 28.2044C125.712 28.2329 125.583 28.2208 125.466 28.1699C125.35 28.119 125.253 28.032 125.19 27.9217C124.905 27.5512 124.65 27.3666 124.491 27.4185C124.106 27.5411 123.879 28.8107 123.846 29.6301L123.809 30.5616Z" fill="#1F1F1F"/>
<path d="M152.363 56.1136L158.62 55.0959C163.126 59.4314 166.196 65.0467 167.415 71.184C169.297 81.2309 169.924 83.1147 169.924 83.1147L154.872 86.8823L146.719 71.184L152.363 56.1136Z" fill="#D2D2D2"/>
<path d="M124.602 69.1816L120.735 118.254L219.401 126.047L223.267 76.9742L124.602 69.1816Z" fill="white"/>
<path d="M135.143 72.9835C132.728 71.2571 129.663 71.1323 128.492 71.1571C128.849 72.2737 129.959 75.1374 132.374 76.8645C134.794 78.5953 137.856 78.7163 139.025 78.6922C138.668 77.576 137.558 74.7111 135.143 72.9835Z" fill="#7A4343"/>
<path d="M144.669 104.209L128.826 102.958C128.358 102.921 127.887 102.977 127.44 103.122C126.994 103.267 126.58 103.499 126.223 103.804C125.866 104.11 125.572 104.482 125.359 104.901C125.146 105.32 125.017 105.777 124.98 106.246C124.943 106.714 124.999 107.186 125.144 107.633C125.289 108.08 125.52 108.494 125.825 108.852C126.13 109.209 126.502 109.503 126.921 109.717C127.339 109.93 127.795 110.059 128.263 110.096L144.106 111.347C145.052 111.422 145.988 111.118 146.709 110.501C147.43 109.885 147.877 109.007 147.952 108.06C148.027 107.113 147.723 106.176 147.107 105.454C146.491 104.732 145.614 104.284 144.669 104.209Z" fill="#7A4343"/>
<path d="M219.378 72.2044L130.552 65.1882C129.519 65.1067 128.48 65.2298 127.494 65.5504C126.509 65.8711 125.596 66.3829 124.808 67.0568C124.02 67.7306 123.372 68.5533 122.901 69.4779C122.431 70.4024 122.147 71.4106 122.065 72.4451L118.649 115.773C118.485 117.863 119.157 119.932 120.516 121.526C121.875 123.121 123.811 124.109 125.898 124.274L214.724 131.29C215.757 131.372 216.797 131.249 217.782 130.928C218.768 130.608 219.681 130.096 220.469 129.422C221.257 128.748 221.905 127.925 222.375 127.001C222.846 126.076 223.13 125.068 223.211 124.034L226.457 82.8521L226.523 82.0107L226.626 80.7015C226.707 79.6671 226.584 78.6267 226.264 77.6399C225.944 76.653 225.433 75.739 224.76 74.9499C224.087 74.1609 223.265 73.5123 222.342 73.0413C221.418 72.5702 220.411 72.2858 219.378 72.2044ZM216.755 109.902L216.192 117.04C216.089 118.301 215.492 119.47 214.531 120.291C213.57 121.112 212.323 121.519 211.064 121.422L199.18 120.485C197.921 120.382 196.754 119.784 195.934 118.821C195.114 117.859 194.707 116.611 194.804 115.35L195.367 108.212C195.47 106.951 196.067 105.783 197.028 104.962C197.989 104.141 199.236 103.734 200.495 103.83L212.375 104.768C213.634 104.872 214.801 105.47 215.622 106.431C216.442 107.393 216.85 108.641 216.755 109.902ZM124.194 106.18C124.286 105.025 124.832 103.954 125.712 103.201C126.592 102.449 127.734 102.076 128.888 102.166L144.731 103.418C145.303 103.462 145.861 103.619 146.373 103.879C146.884 104.14 147.34 104.498 147.713 104.935C148.086 105.372 148.37 105.877 148.548 106.424C148.726 106.97 148.794 107.546 148.75 108.119C148.705 108.692 148.548 109.251 148.288 109.763C148.027 110.275 147.669 110.731 147.232 111.104C146.796 111.478 146.291 111.761 145.745 111.939C145.199 112.117 144.623 112.185 144.051 112.14L144.043 112.142L128.201 110.89C127.628 110.844 127.071 110.687 126.56 110.425C126.048 110.164 125.594 109.804 125.222 109.367C124.849 108.929 124.567 108.423 124.391 107.876C124.214 107.329 124.147 106.753 124.194 106.18ZM127.585 70.8743L127.477 70.4306L127.933 70.3888C128.111 70.3696 132.325 69.9908 135.605 72.3369C138.886 74.6831 139.892 78.7995 139.936 78.9716L140.04 79.4164L139.585 79.4623C138.94 79.5103 138.291 79.506 137.647 79.4495C135.596 79.3293 133.615 78.6594 131.911 77.51C128.631 75.1639 127.625 71.0475 127.585 70.8743Z" fill="#7A4343"/>
<path d="M203.428 114.636L198.279 114.229C197.912 114.201 197.548 114.32 197.268 114.56C196.989 114.799 196.815 115.14 196.786 115.508C196.757 115.876 196.875 116.24 197.114 116.521C197.353 116.801 197.693 116.976 198.06 117.005L203.209 117.412C203.577 117.44 203.94 117.322 204.22 117.082C204.5 116.842 204.674 116.501 204.703 116.133C204.732 115.766 204.614 115.402 204.375 115.121C204.136 114.84 203.795 114.666 203.428 114.636Z" fill="#7A4343"/>
<path d="M212.934 115.387L207.785 114.98C207.417 114.952 207.054 115.071 206.774 115.311C206.495 115.55 206.321 115.891 206.292 116.259C206.263 116.626 206.381 116.99 206.62 117.271C206.859 117.552 207.199 117.726 207.566 117.756L212.715 118.163C213.082 118.191 213.445 118.072 213.725 117.832C214.005 117.592 214.178 117.251 214.207 116.884C214.236 116.516 214.118 116.152 213.879 115.872C213.641 115.591 213.301 115.417 212.934 115.387Z" fill="#7A4343"/>
<path d="M203.709 111.067L198.56 110.661C198.193 110.632 197.83 110.751 197.55 110.991C197.271 111.231 197.097 111.572 197.068 111.939C197.039 112.307 197.157 112.671 197.396 112.951C197.635 113.232 197.975 113.407 198.342 113.436L203.491 113.843C203.858 113.871 204.221 113.753 204.501 113.513C204.781 113.273 204.955 112.932 204.984 112.564C205.013 112.197 204.895 111.833 204.656 111.552C204.417 111.271 204.077 111.097 203.709 111.067Z" fill="#7A4343"/>
<path d="M213.215 111.818L208.066 111.411C207.699 111.383 207.335 111.501 207.055 111.741C206.775 111.981 206.602 112.322 206.573 112.69C206.544 113.057 206.662 113.422 206.901 113.702C207.139 113.983 207.48 114.157 207.847 114.187L212.996 114.594C213.363 114.622 213.727 114.503 214.007 114.264C214.287 114.024 214.46 113.683 214.489 113.315C214.518 112.947 214.4 112.583 214.161 112.302C213.922 112.022 213.582 111.847 213.215 111.818Z" fill="#7A4343"/>
<path d="M203.99 107.498L198.841 107.092C198.474 107.063 198.11 107.182 197.83 107.422C197.551 107.661 197.377 108.002 197.348 108.37C197.319 108.738 197.437 109.102 197.676 109.383C197.915 109.663 198.255 109.838 198.623 109.867L203.771 110.274C204.139 110.302 204.502 110.183 204.782 109.944C205.061 109.704 205.235 109.363 205.264 108.995C205.293 108.628 205.175 108.264 204.936 107.983C204.697 107.702 204.357 107.528 203.99 107.498Z" fill="#7A4343"/>
<path d="M213.496 108.249L208.347 107.842C207.98 107.814 207.617 107.933 207.337 108.173C207.057 108.412 206.884 108.753 206.855 109.121C206.826 109.488 206.944 109.852 207.182 110.133C207.421 110.414 207.761 110.588 208.128 110.618L213.277 111.025C213.644 111.053 214.008 110.934 214.287 110.694C214.567 110.455 214.741 110.114 214.77 109.746C214.798 109.378 214.681 109.014 214.442 108.734C214.203 108.453 213.863 108.279 213.496 108.249Z" fill="#7A4343"/>
<path d="M120.745 86.1162L120.679 86.9597L224.949 95.1607L225.015 94.3171L120.745 86.1162Z" fill="white"/>
<path d="M226.523 82.0105L226.457 82.8521L222.828 82.5671L184.165 79.5263L184.235 78.6838L222.894 81.7254L226.523 82.0105Z" fill="#1F1F1F"/>
<path d="M99.0544 73.0679C99.0544 73.0679 93.41 96.9293 100.309 96.9293C107.208 96.9293 123.514 69.9282 123.514 69.9282L117.869 63.021L107.738 77.104L107.208 69.9282L99.0544 73.0679Z" fill="#D4B1B1"/>
<path d="M122.009 70.9655C125.042 70.9655 127.5 68.504 127.5 65.4676C127.5 62.4312 125.042 59.9697 122.009 59.9697C118.977 59.9697 116.518 62.4312 116.518 65.4676C116.518 68.504 118.977 70.9655 122.009 70.9655Z" fill="#D4B1B1"/>
<path d="M113.03 52.9739L109.267 49.2063C109.267 49.2063 101.741 53.6018 101.114 57.9973C100.487 62.3929 97.3511 76.2074 97.3511 76.2074L108.954 77.1493L112.717 71.4979L113.03 52.9739Z" fill="#D2D2D2"/>
</g>
<defs>
<clipPath id="clip0_130_608">
<rect width="382" height="248" fill="white"/>
</clipPath>
</defs>
</svg>
